<svg xmlns="http://www.w3.org/2000/svg" width="880.428" height="472.174" viewBox="0 0 880.428 472.174"><linearGradient id="a" gradientUnits="userSpaceOnUse" x1="790.246" y1="227.238" x2="790.246" y2="-213.651" gradientTransform="matrix(1 0 0 -1 -350.035 244.709)"><stop offset="0" stop-color="#fff"/><stop offset="1" stop-color="#EAEBED"/></linearGradient><path fill="url(#a)" d="M12.512 291.474c-1.575-4.681-4.438-5.976-9.133-5.976h-3.379v-15.388h9.113c12.518 0 16.682 2.341 20.604 14.604l26.854 83.147c2.066 6.263 3.896 14.08 3.896 14.08h.518s2.098-7.817 4.183-14.08l32.063-97.229h17.722l32.069 97.229c2.079 6.263 4.17 14.08 4.17 14.08h.522s1.563-7.558 3.643-14.08l27.114-83.147c3.915-12.263 8.079-14.604 20.591-14.604h9.125v15.388h-3.643c-4.432 0-7.557 1.295-9.131 5.976l-37.534 109.766h-19.545l-32.068-93.332c-2.092-6.498-3.921-14.08-3.921-14.08h-.511s-1.824 7.582-4.177 14.08l-31.802 93.332h-19.809l-37.534-109.766zm285.304 28.957h7.289v-1.568c0-27.389-9.91-37.023-33.887-37.023-6.523 0-25.553 1.83-25.553 11.467v8.341h-16.937v-12.513c0-18.238 31.278-22.158 42.75-22.158 41.443 0 51.353 22.158 51.353 50.318v62.818c0 3.922 2.079 5.752 5.733 5.752h10.956v15.375h-17.996c-11.21 0-15.636-4.955-15.636-15.648 0-5.727.268-9.66.268-9.66h-.523c.256 0-10.688 28.435-43.534 28.435-21.911 0-44.594-12.773-44.594-38.842.002-43.526 57.623-45.094 80.311-45.094zm-32.859 68.819c25.029 0 40.148-26.082 40.148-48.764v-5.988h-7.558c-20.597 0-61.778.523-61.778 29.978.001 12.25 9.643 24.774 29.188 24.774zm96.002-150.169c0-3.647-2.085-5.727-5.732-5.727h-10.949v-15.375h18.506c11.21 0 15.91 4.681 15.91 15.892v146.24c0 3.922 2.085 5.752 5.733 5.752h10.948v15.375h-18.506c-11.223 0-15.91-4.693-15.91-15.897v-146.26zm56.862 0c0-3.647-2.073-5.727-5.721-5.727h-10.961v-15.375h18.506c11.21 0 15.897 3.909 15.897 15.107v87.069h13.569c4.954 0 11.204-1.543 14.864-6.249l33.613-43.796h21.647l-37.808 47.967c-6.523 8.079-9.909 9.387-9.909 9.387v.51s3.921 1.83 8.092 9.66l23.729 42.478c2.327 4.433 4.93 5.752 11.988 5.752h7.032v15.375h-12.25c-13.047 0-16.693-2.079-22.682-13.034l-26.069-46.921c-2.876-5.217-9.125-5.739-13.817-5.739h-12.001v65.694h-17.722v-162.158h.003zm389.854-135.354c14.292 0 25.894-11.59 25.894-25.882 0-14.286-11.602-25.876-25.894-25.876-14.268 0-25.87 11.59-25.87 25.876-.001 14.292 11.603 25.882 25.87 25.882zm-5.976 233.324c14.291 0 25.869-11.591 25.869-25.883 0-14.278-11.578-25.869-25.869-25.869-14.292 0-25.883 11.591-25.883 25.869 0 14.292 11.591 25.883 25.883 25.883zm-97.254-262.754c0-10.295-8.354-18.649-18.647-18.649-10.31 0-18.648 8.354-18.648 18.649 0 10.302 8.34 18.649 18.648 18.649 10.294 0 18.647-8.347 18.647-18.649zm-127.99 368.211c0 10.309 8.354 18.648 18.649 18.648s18.649-8.341 18.649-18.648c0-10.283-8.354-18.637-18.649-18.637s-18.649 8.354-18.649 18.637zm-48.975-345.859c-10.296 0-18.649 8.347-18.649 18.643 0 10.301 8.354 18.649 18.649 18.649s18.648-8.348 18.648-18.649c.001-10.295-8.353-18.643-18.648-18.643zm271.53 103.248c10.296 0 18.647-8.353 18.647-18.655 0-10.296-8.353-18.649-18.647-18.649-10.309 0-18.648 8.353-18.648 18.649-.001 10.302 8.34 18.655 18.648 18.655zm-7.071 216.766c10.307 0 18.648-8.341 18.648-18.649 0-10.295-8.343-18.647-18.648-18.647-10.296 0-18.648 8.354-18.648 18.647-.001 10.308 8.352 18.649 18.648 18.649zm63.578-202.418c-11.641 0-21.352 8.055-24.077 18.854l-61.213 1.27c-.224-9.779-1.693-19.24-4.22-28.272l15.162-7.326-.236-.504c4.531 4.824 10.931 7.88 18.076 7.88 13.731 0 24.897-11.173 24.897-24.904s-11.166-24.905-24.897-24.905c-13.744 0-24.91 11.173-24.91 24.905 0 1.257.186 2.458.373 3.672l-.112-.249-13.569 6.555c-5.055-11.597-12-22.141-20.379-31.391l49.734-54.347c5.079 3.243 11.08 5.185 17.528 5.185 18.101 0 32.829-14.721 32.829-32.822 0-18.095-14.729-32.816-32.829-32.816-18.089 0-32.805 14.721-32.805 32.816 0 5.981 1.73 11.515 4.531 16.346l-.1-.081-50.121 54.771c-13.271-11.18-29.118-19.34-46.474-23.654l5.554-26.274c12.562-1.257 22.434-11.771 22.434-24.656 0-13.731-11.167-24.904-24.897-24.904-13.744 0-24.911 11.173-24.911 24.904 0 9.026 4.868 16.869 12.089 21.238l-5.678 26.859c-4.06-.436-8.191-.685-12.361-.685-8.641 0-17.02 1.027-25.135 2.832l-19.271-59.021c11.217-5.764 18.997-17.33 18.997-30.793 0-19.148-15.587-34.728-34.733-34.728-19.147 0-34.733 15.58-34.733 34.727 0 19.153 15.587 34.733 34.733 34.733l.522-.05 19.482 59.638c-13.607 5.066-25.97 12.599-36.602 22.097l-28.048-25.664c1.419-3.119 2.24-6.555 2.24-10.189 0-13.732-11.18-24.905-24.91-24.905-13.732 0-24.911 11.173-24.911 24.905 0 13.737 11.179 24.911 24.911 24.911 4.382 0 8.44-1.232 12.014-3.23l27.711 25.347c-17.229 20.167-27.711 46.28-27.711 74.826 0 49.273 31.085 91.314 74.62 107.86l-20.491 72.752c-13.021.772-23.43 11.529-23.43 24.75 0 13.744 11.18 24.923 24.911 24.923s24.911-11.179 24.911-24.923c0-8.678-4.482-16.309-11.229-20.766l20.317-72.182c7.096 1.645 14.439 2.59 21.96 2.826l1.905 40.349c-9.873 3.312-17.058 12.549-17.058 23.517 0 13.731 11.168 24.911 24.912 24.911 13.72 0 24.898-11.18 24.898-24.911 0-11.167-7.445-20.529-17.592-23.678l.511-.025-1.904-40.56c5.641-.573 11.092-1.693 16.47-3.05l29.99 63.614.66-.299c-6.723 6.324-10.979 15.238-10.979 25.186 0 19.158 15.586 34.732 34.732 34.732 19.147 0 34.733-15.574 34.733-34.732 0-19.146-15.586-34.722-34.733-34.722-3.81 0-7.407.759-10.831 1.893l-28.533-60.527c7.668-3.112 14.939-6.996 21.699-11.627l50.406 53.382c-2.054 3.622-3.312 7.731-3.312 12.175 0 13.744 11.166 24.911 24.898 24.911 13.73 0 24.898-11.167 24.898-24.911 0-13.719-11.168-24.897-24.898-24.897-3.574 0-6.947.785-10.035 2.142l-49.672-52.61c8.453-7.655 15.748-16.508 21.648-26.343l15.909 7.471c-.56 2.391-.907 4.854-.907 7.395 0 18.102 14.715 32.828 32.815 32.828 18.088 0 32.816-14.728 32.816-32.828 0-18.088-14.729-32.815-32.816-32.815-9.922 0-18.711 4.508-24.725 11.479l-15.859-7.444c4.332-10.108 7.22-20.978 8.49-32.331l62.943-1.307c3.771 8.988 12.647 15.313 22.969 15.313 13.729 0 24.91-11.18 24.91-24.91.005-13.735-11.17-24.912-24.901-24.912zm-56.507-54.777c12.002 0 21.772 9.772 21.772 21.774 0 12.007-9.771 21.773-21.772 21.773-12.001 0-21.786-9.767-21.786-21.773-.001-12.001 9.785-21.774 21.786-21.774zm8.665-111.308c16.383 0 29.704 13.321 29.704 29.686 0 16.371-13.321 29.691-29.704 29.691-16.358 0-29.68-13.321-29.68-29.691.001-16.366 13.321-29.686 29.68-29.686zm-143.665 26.137c0-12.007 9.771-21.773 21.786-21.773 12.001 0 21.772 9.766 21.772 21.773s-9.771 21.774-21.772 21.774c-12.013 0-21.786-9.767-21.786-21.774zm-100.813-39.57c0-17.422 14.167-31.596 31.597-31.596s31.596 14.174 31.596 31.596c0 17.423-14.166 31.603-31.596 31.603s-31.597-14.18-31.597-31.603zm53.681 407.781c0 12.015-9.762 21.785-21.773 21.785-12.014 0-21.774-9.771-21.774-21.785 0-12.002 9.762-21.762 21.774-21.762s21.773 9.76 21.773 21.762zm152.329-5.068c0 17.417-14.18 31.607-31.597 31.607-17.429 0-31.597-14.19-31.597-31.607 0-17.416 14.168-31.597 31.597-31.597 17.417.002 31.597 14.181 31.597 31.597zm44.506-39.426c0 12.002-9.773 21.787-21.773 21.787-12.002 0-21.774-9.785-21.774-21.787 0-12.001 9.772-21.761 21.774-21.761 11.999 0 21.773 9.76 21.773 21.761zm-12.014-116.525c16.357 0 29.68 13.32 29.68 29.679 0 16.383-13.321 29.704-29.68 29.704-16.383 0-29.69-13.321-29.69-29.704-.001-16.356 13.307-29.679 29.69-29.679zm-295.992-166.197c0-12.001 9.761-21.774 21.773-21.774s21.773 9.772 21.773 21.774c0 12.007-9.761 21.78-21.773 21.78s-21.773-9.773-21.773-21.78zm176.877 300.96c0 12.001-9.761 21.773-21.761 21.773-12.014 0-21.787-9.772-21.787-21.773 0-12.014 9.773-21.773 21.787-21.773 12.001 0 21.761 9.759 21.761 21.773zm-27.649-71.035c-59.595 0-108.072-48.477-108.072-108.071 0-59.587 48.479-108.065 108.072-108.065s108.071 48.478 108.071 108.065c.001 59.594-48.477 108.071-108.071 108.071zm200.582-84.293c-12.002 0-21.774-9.772-21.774-21.774 0-12.006 9.772-21.772 21.774-21.772 12.013 0 21.773 9.766 21.773 21.772.001 11.999-9.76 21.774-21.773 21.774zm0-40.424c-10.296 0-18.637 8.347-18.637 18.649 0 10.295 8.341 18.648 18.637 18.648 10.295 0 18.66-8.354 18.66-18.648 0-10.301-8.365-18.649-18.66-18.649zm-213.342 195.752c0 10.295 8.341 18.648 18.648 18.648 10.283 0 18.648-8.354 18.648-18.648s-8.365-18.648-18.648-18.648c-10.308 0-18.648 8.353-18.648 18.648zm-47.382-408.621c-14.965 0-27.103 12.132-27.103 27.096s12.138 27.102 27.103 27.102c14.964 0 27.102-12.138 27.102-27.102s-12.138-27.096-27.102-27.096zm142.817 456.912c14.964 0 27.089-12.139 27.089-27.103 0-14.965-12.125-27.103-27.089-27.103s-27.103 12.138-27.103 27.103c.001 14.964 12.139 27.103 27.103 27.103zm-40.908-231.519h-2.515v-15.947c1.42-.473 2.764-.623 4.644-.623 5.813 0 8.554 2.589 8.554 8.086-.001 5.895-2.666 8.484-10.683 8.484zm0 6.125h-2.515v17.365c1.27.475 2.764.772 4.881.772 5.888 0 9.35-2.341 9.35-8.554 0-6.433-2.989-9.583-11.716-9.583zm60.739-2.003c0 56.619-45.898 102.508-102.506 102.508s-102.494-45.889-102.494-102.508c0-56.606 45.887-102.5 102.494-102.5s102.506 45.893 102.506 102.5zm-129.433-27.059h-12.798v22.309h-13.669v-22.309h-12.811v54.048h12.811v-23.415h13.67v23.415h12.798l-.001-54.048zm45.812 0h-11.775v37.938c0 4.882-2.739 7.31-6.438 7.31s-6.523-2.428-6.523-7.233v-38.014h-12.798v38.089c0 10.382 8.005 16.818 18.773 16.818 10.843 0 18.761-6.513 18.761-16.818v-38.09zm47.308 39.122c0-7.457-6.35-12.176-11.218-13.433v-.162c4.319-1.095 9.647-4.868 9.647-11.938 0-8.092-6.585-14.373-20.814-14.373-7.059 0-13.034 1.257-16.645 3.143v49.325c4.008 2.041 9.822 3.137 17.278 3.137 13.435-.002 21.752-4.943 21.752-15.699z"/></svg>