<?xml version="1.0" encoding="utf-8"?>
<!-- Generator: Adobe Illustrator 16.0.3, SVG Export Plug-In . SVG Version: 6.00 Build 0)  -->
<!DOCTYPE svg PUBLIC "-//W3C//DTD SVG 1.1//EN" "http://www.w3.org/Graphics/SVG/1.1/DTD/svg11.dtd">
<svg version="1.1" id="Layer_1" xmlns="http://www.w3.org/2000/svg" xmlns:xlink="http://www.w3.org/1999/xlink" x="0px" y="0px"
	 width="880.428px" height="472.174px" viewBox="0 0 880.428 472.174" enable-background="new 0 0 880.428 472.174"
	 xml:space="preserve">
<linearGradient id="SVGID_1_" gradientUnits="userSpaceOnUse" x1="790.2458" y1="227.2378" x2="790.2457" y2="-213.6513" gradientTransform="matrix(1 0 0 -1 -350.0352 244.709)">
	<stop  offset="0" style="stop-color:#FFFFFF"/>
	<stop  offset="1" style="stop-color:#EAEBED"/>
</linearGradient>
<path fill="url(#SVGID_1_)" d="M12.512,291.474c-1.575-4.681-4.438-5.976-9.133-5.976H0V270.11h9.113
	c12.518,0,16.682,2.341,20.604,14.604l26.854,83.147c2.066,6.263,3.896,14.08,3.896,14.08h0.518c0,0,2.098-7.817,4.183-14.08
	l32.063-97.229h17.722l32.069,97.229c2.079,6.263,4.17,14.08,4.17,14.08h0.522c0,0,1.563-7.558,3.643-14.08l27.114-83.147
	c3.915-12.263,8.079-14.604,20.591-14.604h9.125v15.388h-3.643c-4.432,0-7.557,1.295-9.131,5.976l-37.534,109.766h-19.545
	l-32.068-93.332c-2.092-6.498-3.921-14.08-3.921-14.08h-0.511c0,0-1.824,7.582-4.177,14.08l-31.802,93.332H50.046L12.512,291.474z
	 M297.816,320.431h7.289v-1.568c0-27.389-9.91-37.023-33.887-37.023c-6.523,0-25.553,1.83-25.553,11.467v8.341h-16.937v-12.513
	c0-18.238,31.278-22.158,42.75-22.158c41.443,0,51.353,22.158,51.353,50.318v62.818c0,3.922,2.079,5.752,5.733,5.752h10.956v15.375
	h-17.996c-11.21,0-15.636-4.955-15.636-15.648c0-5.727,0.268-9.66,0.268-9.66h-0.523c0.256,0-10.688,28.435-43.534,28.435
	c-21.911,0-44.594-12.773-44.594-38.842C217.507,321.999,275.128,320.431,297.816,320.431z M264.957,389.25
	c25.029,0,40.148-26.082,40.148-48.764v-5.988h-7.558c-20.597,0-61.778,0.523-61.778,29.978
	C235.77,376.726,245.412,389.25,264.957,389.25z M360.959,239.081c0-3.647-2.085-5.727-5.732-5.727h-10.949v-15.375h18.506
	c11.21,0,15.91,4.681,15.91,15.892v146.24c0,3.922,2.085,5.752,5.733,5.752h10.948v15.375h-18.506
	c-11.223,0-15.91-4.693-15.91-15.897V239.081z M417.821,239.081c0-3.647-2.073-5.727-5.721-5.727h-10.961v-15.375h18.506
	c11.21,0,15.897,3.909,15.897,15.107v87.069h13.569c4.954,0,11.204-1.543,14.864-6.249l33.613-43.796h21.647l-37.808,47.967
	c-6.523,8.079-9.909,9.387-9.909,9.387v0.51c0,0,3.921,1.83,8.092,9.66l23.729,42.478c2.327,4.433,4.93,5.752,11.988,5.752h7.032
	v15.375h-12.25c-13.047,0-16.693-2.079-22.682-13.034l-26.069-46.921c-2.876-5.217-9.125-5.739-13.817-5.739h-12.001v65.694h-17.722
	V239.081L417.821,239.081z M807.675,103.727c14.292,0,25.894-11.59,25.894-25.882c0-14.286-11.602-25.876-25.894-25.876
	c-14.268,0-25.87,11.59-25.87,25.876C781.804,92.137,793.408,103.727,807.675,103.727z M801.699,337.051
	c14.291,0,25.869-11.591,25.869-25.883c0-14.278-11.578-25.869-25.869-25.869c-14.292,0-25.883,11.591-25.883,25.869
	C775.816,325.46,787.407,337.051,801.699,337.051z M704.445,74.297c0-10.295-8.354-18.649-18.647-18.649
	c-10.31,0-18.648,8.354-18.648,18.649c0,10.302,8.34,18.649,18.648,18.649C696.092,92.946,704.445,84.599,704.445,74.297z
	 M576.455,442.508c0,10.309,8.354,18.648,18.649,18.648s18.649-8.341,18.649-18.648c0-10.283-8.354-18.637-18.649-18.637
	S576.455,432.225,576.455,442.508z M527.48,96.649c-10.296,0-18.649,8.347-18.649,18.643c0,10.301,8.354,18.649,18.649,18.649
	s18.648-8.348,18.648-18.649C546.129,104.997,537.775,96.649,527.48,96.649z M799.01,199.897c10.296,0,18.647-8.353,18.647-18.655
	c0-10.296-8.353-18.649-18.647-18.649c-10.309,0-18.648,8.353-18.648,18.649C780.361,191.544,788.702,199.897,799.01,199.897z
	 M791.939,416.663c10.307,0,18.648-8.341,18.648-18.649c0-10.295-8.343-18.647-18.648-18.647c-10.296,0-18.648,8.354-18.648,18.647
	C773.29,408.322,781.643,416.663,791.939,416.663z M855.517,214.245c-11.641,0-21.352,8.055-24.077,18.854l-61.213,1.27
	c-0.224-9.779-1.693-19.24-4.22-28.272l15.162-7.326l-0.236-0.504c4.531,4.824,10.931,7.88,18.076,7.88
	c13.731,0,24.897-11.173,24.897-24.904s-11.166-24.905-24.897-24.905c-13.744,0-24.91,11.173-24.91,24.905
	c0,1.257,0.186,2.458,0.373,3.672l-0.112-0.249l-13.569,6.555c-5.055-11.597-12-22.141-20.379-31.391l49.734-54.347
	c5.079,3.243,11.08,5.185,17.528,5.185c18.101,0,32.829-14.721,32.829-32.822c0-18.095-14.729-32.816-32.829-32.816
	c-18.089,0-32.805,14.721-32.805,32.816c0,5.981,1.73,11.515,4.531,16.346l-0.1-0.081l-50.121,54.771
	c-13.271-11.18-29.118-19.34-46.474-23.654l5.554-26.274c12.562-1.257,22.434-11.771,22.434-24.656
	c0-13.731-11.167-24.904-24.897-24.904c-13.744,0-24.911,11.173-24.911,24.904c0,9.026,4.868,16.869,12.089,21.238l-5.678,26.859
	c-4.06-0.436-8.191-0.685-12.361-0.685c-8.641,0-17.02,1.027-25.135,2.832l-19.271-59.021c11.217-5.764,18.997-17.33,18.997-30.793
	C629.526,15.58,613.939,0,594.793,0c-19.147,0-34.733,15.58-34.733,34.727c0,19.153,15.587,34.733,34.733,34.733
	c0.174,0,0.349-0.05,0.522-0.05l19.482,59.638c-13.607,5.066-25.97,12.599-36.602,22.097l-28.048-25.664
	c1.419-3.119,2.24-6.555,2.24-10.189c0-13.732-11.18-24.905-24.91-24.905c-13.732,0-24.911,11.173-24.911,24.905
	c0,13.737,11.179,24.911,24.911,24.911c4.382,0,8.44-1.232,12.014-3.23l27.711,25.347c-17.229,20.167-27.711,46.28-27.711,74.826
	c0,49.273,31.085,91.314,74.62,107.86l-20.491,72.752c-13.021,0.772-23.43,11.529-23.43,24.75c0,13.744,11.18,24.923,24.911,24.923
	s24.911-11.179,24.911-24.923c0-8.678-4.482-16.309-11.229-20.766l20.317-72.182c7.096,1.645,14.439,2.59,21.96,2.826l1.905,40.349
	c-9.873,3.312-17.058,12.549-17.058,23.517c0,13.731,11.168,24.911,24.912,24.911c13.72,0,24.898-11.18,24.898-24.911
	c0-11.167-7.445-20.529-17.592-23.678l0.511-0.025l-1.904-40.56c5.641-0.573,11.092-1.693,16.47-3.05l29.99,63.614l0.66-0.299
	c-6.723,6.324-10.979,15.238-10.979,25.186c0,19.158,15.586,34.732,34.732,34.732c19.147,0,34.733-15.574,34.733-34.732
	c0-19.146-15.586-34.722-34.733-34.722c-3.81,0-7.407,0.759-10.831,1.893l-28.533-60.527c7.668-3.112,14.939-6.996,21.699-11.627
	l50.406,53.382c-2.054,3.622-3.312,7.731-3.312,12.175c0,13.744,11.166,24.911,24.898,24.911c13.73,0,24.898-11.167,24.898-24.911
	c0-13.719-11.168-24.897-24.898-24.897c-3.574,0-6.947,0.785-10.035,2.142l-49.672-52.61c8.453-7.655,15.748-16.508,21.648-26.343
	l15.909,7.471c-0.56,2.391-0.907,4.854-0.907,7.395c0,18.102,14.715,32.828,32.815,32.828c18.088,0,32.816-14.728,32.816-32.828
	c0-18.088-14.729-32.815-32.816-32.815c-9.922,0-18.711,4.508-24.725,11.479l-15.859-7.444c4.332-10.108,7.22-20.978,8.49-32.331
	l62.943-1.307c3.771,8.988,12.647,15.313,22.969,15.313c13.729,0,24.91-11.18,24.91-24.91
	C880.423,225.422,869.248,214.245,855.517,214.245z M799.01,159.468c12.002,0,21.772,9.772,21.772,21.774
	c0,12.007-9.771,21.773-21.772,21.773c-12.001,0-21.786-9.767-21.786-21.773C777.223,169.241,787.009,159.468,799.01,159.468z
	 M807.675,48.16c16.383,0,29.704,13.321,29.704,29.686c0,16.371-13.321,29.691-29.704,29.691c-16.358,0-29.68-13.321-29.68-29.691
	C777.996,61.48,791.316,48.16,807.675,48.16z M664.01,74.297c0-12.007,9.771-21.773,21.786-21.773
	c12.001,0,21.772,9.766,21.772,21.773c0,12.007-9.771,21.774-21.772,21.774C673.783,96.071,664.01,86.304,664.01,74.297z
	 M563.197,34.727c0-17.422,14.167-31.596,31.597-31.596s31.596,14.174,31.596,31.596c0,17.423-14.166,31.603-31.596,31.603
	S563.197,52.15,563.197,34.727z M616.878,442.508c0,12.015-9.762,21.785-21.773,21.785c-12.014,0-21.774-9.771-21.774-21.785
	c0-12.002,9.762-21.762,21.774-21.762S616.878,430.506,616.878,442.508z M769.207,437.44c0,17.417-14.18,31.607-31.597,31.607
	c-17.429,0-31.597-14.19-31.597-31.607c0-17.416,14.168-31.597,31.597-31.597C755.027,405.845,769.207,420.024,769.207,437.44z
	 M813.713,398.014c0,12.002-9.773,21.787-21.773,21.787c-12.002,0-21.774-9.785-21.774-21.787c0-12.001,9.772-21.761,21.774-21.761
	C803.939,376.253,813.713,386.013,813.713,398.014z M801.699,281.489c16.357,0,29.68,13.32,29.68,29.679
	c0,16.383-13.321,29.704-29.68,29.704c-16.383,0-29.69-13.321-29.69-29.704C772.008,294.812,785.316,281.489,801.699,281.489z
	 M505.707,115.292c0-12.001,9.761-21.774,21.773-21.774s21.773,9.772,21.773,21.774c0,12.007-9.761,21.78-21.773,21.78
	S505.707,127.299,505.707,115.292z M682.584,416.252c0,12.001-9.761,21.773-21.761,21.773c-12.014,0-21.787-9.772-21.787-21.773
	c0-12.014,9.773-21.773,21.787-21.773C672.824,394.479,682.584,404.238,682.584,416.252z M654.935,345.217
	c-59.595,0-108.072-48.477-108.072-108.071c0-59.587,48.479-108.065,108.072-108.065s108.071,48.478,108.071,108.065
	C763.007,296.74,714.529,345.217,654.935,345.217z M855.517,260.924c-12.002,0-21.774-9.772-21.774-21.774
	c0-12.006,9.772-21.772,21.774-21.772c12.013,0,21.773,9.766,21.773,21.772C877.291,251.149,867.53,260.924,855.517,260.924z
	 M855.517,220.5c-10.296,0-18.637,8.347-18.637,18.649c0,10.295,8.341,18.648,18.637,18.648c10.295,0,18.66-8.354,18.66-18.648
	C874.177,228.848,865.812,220.5,855.517,220.5z M642.175,416.252c0,10.295,8.341,18.648,18.648,18.648
	c10.283,0,18.648-8.354,18.648-18.648s-8.365-18.648-18.648-18.648C650.515,397.604,642.175,405.957,642.175,416.252z
	 M594.793,7.631c-14.965,0-27.103,12.132-27.103,27.096s12.138,27.102,27.103,27.102c14.964,0,27.102-12.138,27.102-27.102
	S609.757,7.631,594.793,7.631z M737.61,464.543c14.964,0,27.089-12.139,27.089-27.103c0-14.965-12.125-27.103-27.089-27.103
	s-27.103,12.138-27.103,27.103C710.508,452.404,722.646,464.543,737.61,464.543z M696.702,233.024h-2.515v-15.947
	c1.42-0.473,2.764-0.623,4.644-0.623c5.813,0,8.554,2.589,8.554,8.086C707.384,230.435,704.719,233.024,696.702,233.024z
	 M696.702,239.149h-2.515v17.365c1.27,0.475,2.764,0.772,4.881,0.772c5.888,0,9.35-2.341,9.35-8.554
	C708.418,242.299,705.429,239.149,696.702,239.149z M757.441,237.146c0,56.619-45.898,102.508-102.506,102.508
	s-102.494-45.889-102.494-102.508c0-56.606,45.887-102.5,102.494-102.5S757.441,180.539,757.441,237.146z M628.008,210.087H615.21
	v22.309h-13.669v-22.309H588.73v54.048h12.811V240.72h13.67v23.415h12.798L628.008,210.087L628.008,210.087z M673.82,210.087
	h-11.775v37.938c0,4.882-2.739,7.31-6.438,7.31s-6.523-2.428-6.523-7.233v-38.014h-12.798v38.089
	c0,10.382,8.005,16.818,18.773,16.818c10.843,0,18.761-6.513,18.761-16.818V210.087z M721.128,249.209
	c0-7.457-6.35-12.176-11.218-13.433v-0.162c4.319-1.095,9.647-4.868,9.647-11.938c0-8.092-6.585-14.373-20.814-14.373
	c-7.059,0-13.034,1.257-16.645,3.143v49.325c4.008,2.041,9.822,3.137,17.278,3.137C712.811,264.906,721.128,259.965,721.128,249.209
	z"/>
</svg>
