<svg xmlns="http://www.w3.org/2000/svg"><defs><font horiz-adv-x="545"><font-face ascent="750" descent="-250"/><glyph unicode="fi" horiz-adv-x="540" d="M462 500v-500h-80v430h-202v-430h-80v430h-78v70h78v28q0 94 46.5 136.5t136.5 42.5q59 0 105-11.5t72-27.5l-27-64q-27 17-64 25t-79 8q-37 0-58.5-8.5t-33-26-15-43.5-3.5-59h282z"/><glyph unicode="fl" horiz-adv-x="583" d="M376 634q-15 3-43 5.5t-55 2.5q-34 0-53.5-9.5t-29.5-28-12.5-45-2.5-59.5h103v-70h-103v-430h-80v430h-78v70h78v28q0 94 40.5 139t135.5 45q20 0 45-1.5t50.5-4 48-5.5 36.5-7v-571q0-35 12.5-50t33.5-15q14 0 29 2t34 9l8-63q-8-4-19.5-7.5t-24.5-5.5-26-3.5-23-1.5q-45 0-74.5 25.5t-29.5 86.5v534z"/><glyph horiz-adv-x="267"/><glyph horiz-adv-x="267"/><glyph horiz-adv-x="267"/><glyph horiz-adv-x="267"/><glyph unicode="!" horiz-adv-x="305" d="M127 700h83v-347l-17-176h-49l-17 176v347zm-17-654q0 27 15.5 42.5t41.5 15.5q27 0 43-15.5t16-42.5q0-26-16-42t-43-16q-26 0-41.5 16t-15.5 42z"/><glyph unicode=""" horiz-adv-x="335" d="M90 507zm117 193h78l-31-193h-47v193zm-117 0h78l-31-193h-47v193z"/><glyph unicode="#" d="M280 225h-105l-39-167h-69l39 167h-78l14 64h79l31 131h-74l14 64h75l38 158h69l-38-158h105l38 158h69l-38-158h77l-16-64h-76l-31-131h73l-16-64h-72l-39-167h-69zm-90 64h105l31 131h-105z"/><glyph unicode="$" d="M242-12q-55 1-97.5 9.5t-68.5 22.5l27 73q20-12 54.5-22t84.5-11v270q-30 15-59.5 32t-52.5 40.5-37 55.5-14 76q0 72 40.5 118t122.5 57v91h68v-88q51-2 83.5-9.5t58.5-19.5l-24-70q-20 10-48 17.5t-70 9.5v-247q31-16 62-34.5t55.5-42.5 39.5-56 15-75q0-78-43.5-128.5t-128.5-64.5v-92h-68v88zm157 190q0 24-8.5 43t-22.5 34-33 27-41 23v-243q46 7 75.5 35.5t29.5 80.5zm-237 361q0-43 27.5-70t68.5-49v219q-53-6-74.5-35t-21.5-65z"/><glyph unicode="%" horiz-adv-x="773" d="M70 0zm0 542q0 45 12 77t32.5 53 49 30.5 61.5 9.5 61.5-9 49-29 32.5-52.5 12-79.5-12-79.5-32.5-52.5-49-29-61.5-9-61.5 9-49 29-32.5 52.5-12 79.5zm74 0q0-60 21.5-86t59.5-26q19 0 34 5.5t25.5 18 16 34 5.5 54.5-5.5 54.5-16 34-25.5 18-34 5.5q-38 0-59.5-23.5t-21.5-88.5zm283-371q0 45 12 77t32.5 53 49 30.5 61.5 9.5 61.5-9 49-29 32.5-52.5 12-79.5-12-79.5-32.5-52.5-49-29-61.5-9-61.5 9-49 29-32.5 52.5-12 79.5zm74 0q0-60 21.5-86t59.5-26q19 0 34 5.5t25.5 18 16 34 5.5 54.5-5.5 54.5-16 34-25.5 18-34 5.5q-38 0-59.5-23.5t-21.5-88.5zm136 542l49-38-513-687-50 39z"/><glyph unicode="&" horiz-adv-x="814" d="M118 187q0 40 14 76.5t38 67.5 54.5 57 63.5 46q-24 36-41.5 72t-17.5 78q0 24 8 47t25.5 41 45 29 66.5 11q41 0 69-10.5t45-27.5 24.5-38 7.5-43q0-42-32.5-86.5t-102.5-85.5q16-29 37.5-59.5t45.5-60.5 49-59.5 50-54.5q11 12 22 30.5t21.5 39 19 42.5 15.5 42l62-29q-6-17-17-40.5t-24.5-48-27.5-47-26-37.5q21-20 38-34.5t31.5-25 28-19 27.5-16.5l-50-56q-53 26-121 93-18-18-39.5-34.5t-48.5-29.5-59.5-21-71.5-8q-47 0-88.5 13t-72.5 38.5-49.5 62.5-18.5 85zm401-56q-29 29-57 63t-53.5 68-47 65.5-36.5 55.5q-27-20-50-41t-40.5-44.5-27-50.5-9.5-58 13-55.5 35.5-41 51.5-25.5 61-9q25 0 48.5 6.5t44.5 16.5 38.5 23 28.5 27zm-212 453q0-30 12.5-59.5t32.5-58.5q53 34 73.5 62t20.5 49q0 32-15.5 52t-53.5 20q-36 0-53-18t-17-47z"/><glyph unicode="'" horiz-adv-x="218" d="M90 700h78l-31-193h-47v193z"/><glyph unicode="(" horiz-adv-x="280" d="M227-220q-46 48-78 105.5t-51.5 118-28.5 122-9 117.5q0 55 9 116t29 122.5 52.5 120.5 79.5 110l48-35q-40-51-66.5-105.5t-42.5-110.5-22.5-111.5-6.5-106.5q0-48 7.5-104.5t24-113 43-110.5 63.5-98z"/><glyph unicode=")" horiz-adv-x="280" d="M53 712q46-48 78-105.5t51.5-118 28.5-122 9-117.5q0-55-9-116t-29-122.5-52.5-120.5-79.5-110l-48 35q40 51 67 106t42.5 111 22 111 6.5 106q0 48-8 104t-24.5 113-42.5 111-63 98z"/><glyph unicode="*" horiz-adv-x="351" d="M130 715l25-42 18-56 21 57 24 40 48-26-26-43-46-48 68 12h48v-56h-46l-64 12 46-48 23-39-47-28-26 42-23 61-19-58-25-42-50 28 27 42 42 42-58-12h-50v56h50l62-12-45 44-26 46z"/><glyph unicode="+" horiz-adv-x="505" d="M40 374h176v180h72v-180h176v-72h-176v-180h-72v180h-176v72z"/><glyph unicode="," horiz-adv-x="195" d="M49 43q0 24 16 39t41 15q31 0 50.5-22t19.5-64q0-36-10-63t-26-46.5-35-32-38-18.5l-25 39q36 14 53.5 43.5t17.5 59.5q-9-3-17-3-20 0-33.5 13.5t-13.5 39.5z"/><glyph unicode="-" horiz-adv-x="360" d="M59 325h242v-74h-242v74z"/><glyph unicode="." horiz-adv-x="214" d="M49 46q0 27 15.5 42.5t41.5 15.5q27 0 43-15.5t16-42.5q0-26-16-42t-43-16q-26 0-41.5 16t-15.5 42z"/><glyph unicode="/" horiz-adv-x="354" d="M328 712l63-28-365-824-63 28z"/><glyph unicode="0" d="M43 350q0 180 58.5 271t170.5 91q121 0 175.5-89.5t54.5-272.5q0-180-58.5-271t-171.5-91q-119 0-174 95t-55 267zm83 0q0-65 8.5-118.5t26.5-92 45.5-60 65.5-21.5q76 0 111.5 70.5t35.5 221.5q0 64-7.5 118t-25 93-45.5 60-69 21q-75 0-110.5-71t-35.5-221z"/><glyph unicode="1" d="M108 74h140v484l10 59-40-47-110-79-38 51 220 170h36v-638h137v-74h-355v74z"/><glyph unicode="2" d="M446 541q0-53-19.5-108.5t-51-111.5-70.5-109.5-78-101.5l-49-43v-4l64 11h218v-74h-398v29q22 23 53 57t64.5 75.5 66 88 59 94.5 42.5 95 16 89q0 49-28 81.5t-85 32.5q-38 0-74-15.5t-62-35.5l-33 57q35 30 83 47t103 17q43 0 76-12.5t56-35.5 35-54.5 12-68.5z"/><glyph unicode="3" d="M234 58q34 0 63 10t50 29.5 33 46.5 12 59q0 70-41.5 104t-114.5 34h-74v29l144 222 46 44-65-10h-198v74h357v-29l-159-239-35-29v-2l34 7q40-1 74-14.5t59-39 39-61 14-80.5q0-54-19-96t-51.5-70.5-76.5-43.5-93-15q-45 0-81 7t-63 18l21 71q23-11 54.5-18.5t70.5-7.5z"/><glyph unicode="4" d="M524 215h-118v-215h-78v215h-308v33l332 463h54v-426h118v-70zm-196 288l10 82h-3l-35-68-141-191-48-49 70 8h147v218z"/><glyph unicode="5" d="M213 58q69 0 114 40t45 116q0 73-44.5 109t-122.5 36l-84-5v346h312v-74h-237v-199l43 2q99-1 156-55t57-155q0-56-19-99.5t-51.5-72.5-76.5-44-94-15q-45 0-76 5t-58 15l21 68q23-9 49.5-13.5t65.5-4.5z"/><glyph unicode="6" d="M492 211q0-46-14-86.5t-41-71-67-48-91-17.5q-50 0-90 16t-69 47.5-44.5 77.5-15.5 106q0 99 25.5 182.5t70.5 145.5 106.5 100.5 133.5 48.5l17-64q-56-10-102-38t-80.5-69-56.5-92-30-105q16 27 54 49.5t93 22.5q94 0 147.5-54t53.5-151zm-83-8q0 71-33 107t-102 36q-49 0-84.5-24t-49.5-54q-2-14-2-23v-20q0-31 8.5-61t26.5-53.5 44.5-38 62.5-14.5q29 0 52.5 11t40.5 30 26.5 46 9.5 58z"/><glyph unicode="7" d="M110 0l251 586 44 49-59-9h-285v74h418v-27l-288-673h-81z"/><glyph unicode="8" d="M68 167q0 63 33 109.5t103 84.5q-25 15-46.5 31.5t-38 37.5-26 47-9.5 60q0 39 13.5 71t39 55 61 36 80.5 13q42 0 76-12t57.5-33 36.5-50 13-64q0-57-26-100.5t-86-85.5q26-15 49.5-33t41-40 27.5-49.5 10-62.5q0-43-14-78.5t-41-61-66-40-89-14.5q-48 0-85 14t-62.5 38-38.5 56.5-13 70.5zm331 10q0 30-12 52.5t-31.5 41-44.5 33.5-52 29q-61-34-87-76t-26-80q0-24 8-46t24-38 39.5-25.5 54.5-9.5q25 0 48 7.5t40.5 22 28 37 10.5 52.5zm-237 362q0-28 11-49.5t29.5-38.5 42.5-31.5 50-27.5q45 35 66.5 69t21.5 75q0 51-31.5 78.5t-75.5 27.5q-27 0-48-9t-36-23-22.5-32.5-7.5-38.5z"/><glyph unicode="9" d="M52 488q0 48 14 89t41 71 67.5 47 94.5 17q102 0 159-66t57-186q0-113-25.5-197.5t-70.5-142.5-106.5-90.5-133.5-41.5l-18 64q58 9 104.5 34t80 63 54.5 86.5 29 105.5q-27-32-59.5-44.5t-85.5-12.5q-41 0-77.5 13.5t-64.5 39.5-44 64-16 87zm83 8q0-71 37.5-106.5t98.5-35.5q49 0 84 16t50 42q2 13 2 23v21q0 36-8.5 69.5t-25.5 60-44.5 41.5-64.5 15q-61 0-95-38.5t-34-107.5z"/><glyph unicode=":" horiz-adv-x="219" d="M91 449q0 27 15.5 42.5t41.5 15.5q27 0 43-15.5t16-42.5q0-26-16-42t-43-16q-26 0-41.5 16t-15.5 42zm0-403q0 27 15.5 42.5t41.5 15.5q27 0 43-15.5t16-42.5q0-26-16-42t-43-16q-26 0-41.5 16t-15.5 42z"/><glyph unicode=";" horiz-adv-x="256" d="M89 43q0 24 16 39t41 15q31 0 50.5-22t19.5-64q0-36-10-63t-26-46.5-35-32-38-18.5l-25 39q36 14 53.5 43.5t17.5 59.5q-9-3-17-3-20 0-33.5 13.5t-13.5 39.5zm7 406q0 27 15.5 42.5t41.5 15.5q27 0 43-15.5t16-42.5q0-26-16-42t-43-16q-26 0-41.5 16t-15.5 42z"/><glyph unicode="<" horiz-adv-x="505" d="M42 305v29l378 231 38-62-237-145-91-38 90-32 243-144-38-60z"/><glyph unicode="=" horiz-adv-x="505" d="M40 457h424v-72h-424v72zm0-166h424v-72h-424v72z"/><glyph unicode=">" horiz-adv-x="505" d="M463 344v-29l-378-231-38 61 237 145 91 38-90 32-243 144 38 61z"/><glyph unicode="?" horiz-adv-x="436" d="M150 177q-1 5-1 11v11q0 42 12.5 74t31 58.5 40 49.5 40 46.5 31 50 12.5 60.5q0 46-26.5 75t-88.5 29q-36 0-73-12.5t-64-29.5l-27 62q38 23 80 36.5t104 13.5q44 0 77.5-12.5t56-34.5 33.5-52 11-64q0-45-13.5-78.5t-34-61-44-51.5-44-50.5-34-57.5-13.5-73h-66zm-20-131q0 27 15.5 42.5t41.5 15.5q27 0 43-15.5t16-42.5q0-26-16-42t-43-16q-26 0-41.5 16t-15.5 42z"/><glyph unicode="@" horiz-adv-x="1064" d="M707 491h34l-51-287q-5-26-7.5-46.5t-2.5-36.5q0-25 8.5-36.5t29.5-11.5q34 0 67.5 18t59.5 51 42.5 79.5 16.5 104.5q0 77-26 136t-73 99.5-112 61.5-143 21q-81 0-152.5-30t-124-83-83-127-30.5-161q0-89 27.5-159t78.5-118 122-73 158-25q29 0 66 6.5t67 21.5l20-64q-45-19-83-25.5t-82-6.5q-93 0-174.5 28t-142 83-95.5 136.5-35 188.5q0 109 37.5 197t101.5 150 149 95.5 180 33.5q90 0 167-26.5t133.5-76 89-121 32.5-162.5q0-64-22-122.5t-59.5-102.5-87.5-70.5-106-26.5q-42 0-67 18t-25 67q0 9 1 19.5t3 22.5h-4q-14-23-33-45.5t-42.5-40.5-50-29.5-55.5-11.5q-24 0-46 10.5t-38 30.5-25.5 47.5-9.5 62.5q0 64 21 126t56.5 110 83 77.5 100.5 29.5q37 0 59-11t43-27zm-57-98q-17 20-34 27.5t-43 7.5q-39 0-73-23.5t-58.5-61-39-84-14.5-91.5q0-39 16-66.5t58-27.5q20 0 41.5 13t42.5 35.5 40 50.5 34 57z"/><glyph unicode="A" horiz-adv-x="585" d="M418 194h-258l-70-194h-82l265 711h38l266-711h-87zm-231 72h206l-78 213-25 106h-1l-25-108z"/><glyph unicode="B" horiz-adv-x="584" d="M507 540q0-25-8-51t-24-48.5-41-39.5-59-26v-4q30-5 57.5-17t48.5-33 34-51 13-71q0-54-22.5-93.5t-59-64.5-83.5-37-96-12h-40l-48 1.5-50 4-44 7.5v689q37 6 86 10t107 4q39 0 79.5-6.5t73.5-25 54.5-51.5 21.5-85zm-232-476q32 0 62 7.5t53 24 36.5 40.5 13.5 57q0 41-16.5 66t-43 39-59.5 19-66 5h-87v-251q7-2 20-3t28-2 31-1.5 28-.5zm-55 328q17 0 41 1t40 3q24 8 45 19.5t37.5 27 26 36 9.5 44.5q0 33-12.5 54.5t-33.5 34.5-48 18.5-55 5.5q-33 0-60.5-1.5t-41.5-4.5v-238h52z"/><glyph unicode="C" horiz-adv-x="571" d="M533 29q-30-23-76-32t-98-9q-63 0-118 21.5t-96 65.5-65 112.5-24 162.5q0 98 26.5 166.5t70 112 97.5 63.5 110 20q60 0 98-6.5t65-17.5l-20-73q-48 23-137 23-41 0-81-15t-71.5-49-50.5-89-19-135q0-72 18-126t49.5-90 74-54 92.5-18q45 0 78.5 9t56.5 23z"/><glyph unicode="D" horiz-adv-x="654" d="M85 700q19 3 42.5 4.5t49 2 50 1 45.5.5q84 0 145.5-26t101.5-72.5 59.5-111.5 19.5-143q0-71-18.5-136.5t-58.5-116-104-81-155-30.5q-16 0-41.5.5t-52.5 2-50 2.5-33 3v701zm189-66h-28.5l-30.5-1-27.5-2-19.5-2v-560q5-1 19-1.5t29-1 29-1 19-.5q70 0 117.5 24t76 64.5 40.5 93 12 108.5q0 49-11 98.5t-38 89.5-72.5 65.5-114.5 25.5z"/><glyph unicode="E" horiz-adv-x="536" d="M85 700h381v-74h-298v-229h273v-74h-273v-249h303v-74h-386v700z"/><glyph unicode="F" horiz-adv-x="517" d="M85 700h381v-74h-298v-239h278v-74h-278v-313h-83v700z"/><glyph unicode="G" horiz-adv-x="612" d="M321 349h235v-308q-16-12-38.5-22t-48-17-53-10.5-53.5-3.5q-67 0-123 21.5t-97 66-64 113-23 161.5q0 97 28 166t73 112.5 101 63.5 112 20q60 0 99-6.5t66-17.5l-21-73q-48 23-137 23-42 0-83.5-14.5t-74.5-48.5-54-89-21-136q0-74 17-128t47.5-89.5 73.5-53 94-17.5q64 0 109 25v195l-164 20v47z"/><glyph unicode="H" horiz-adv-x="672" d="M504 321h-336v-321h-83v700h83v-305h336v305h83v-700h-83v321z"/><glyph unicode="I" horiz-adv-x="291" d="M104 700h83v-700h-83v700z"/><glyph unicode="J" horiz-adv-x="291" d="M112 700h83v-546q0-80-35.5-122t-107.5-42q-8 0-20 1t-24 3-23.5 5-18.5 7l16 71q28-13 61-13 42 0 55.5 29.5t13.5 80.5v526z"/><glyph unicode="K" horiz-adv-x="610" d="M215 324h-47v-324h-83v700h83v-326l45 14 235 312h96l-234-301-42-33 51-40 256-326h-105z"/><glyph unicode="L" horiz-adv-x="517" d="M499 0h-414v700h83v-626h331v-74z"/><glyph unicode="M" horiz-adv-x="791" d="M623 470l10 105h-5l-38-96-182-316h-25l-193 317-36 95h-5l14-104v-471h-78v700h62l219-358 33-78h2l31 80 209 356h65v-700h-83v470z"/><glyph unicode="N" horiz-adv-x="673" d="M211 458l-54 101h-4l10-101v-458h-78v711h44l335-467 52-96h5l-11 96v456h78v-711h-44z"/><glyph unicode="O" horiz-adv-x="684" d="M56 350q0 175 74 268.5t211 93.5q74 0 128-26t89.5-73.5 52.5-114 17-148.5q0-175-74.5-268.5t-212.5-93.5q-73 0-126.5 26t-89 73.5-52.5 114-17 148.5zm88 0q0-58 11.5-110t35.5-91.5 61.5-63 88.5-23.5q93 0 146 70.5t53 217.5q0 57-11.5 109.5t-36 92-62 63-89.5 23.5q-92 0-144.5-70.5t-52.5-217.5z"/><glyph unicode="P" horiz-adv-x="559" d="M85 693q38 9 82 12t87 3q46 0 93.5-9t86.5-33 63.5-66 24.5-107q0-64-23-108t-61-71.5-87-39.5-101-12h-16.5l-24 .5-24.5 1.5-17 2v-266h-83v693zm171-57q-26 0-50-1t-38-5v-290q5-2 16-2.5t23-1 23-.5h16q34 0 67.5 6.5t60.5 23.5 43.5 48 16.5 79q0 41-15.5 68.5t-41 44-57.5 23.5-64 7z"/><glyph unicode="Q" horiz-adv-x="684" d="M704-171q-24-7-47-9.5t-46-2.5q-50 0-97.5 10.5t-92 23-85.5 23-78 10.5q-24 0-46-6v73q14 3 27 5t27 2q42 0 83.5-10.5t84.5-23 88-23 95-10.5q44 0 87 10v-72zm-648 521q0 175 74 268.5t211 93.5q74 0 128-26t89.5-73.5 52.5-114 17-148.5q0-175-74.5-268.5t-212.5-93.5q-73 0-126.5 26t-89 73.5-52.5 114-17 148.5zm88 0q0-58 11.5-110t35.5-91.5 61.5-63 88.5-23.5q93 0 146 70.5t53 217.5q0 57-11.5 109.5t-36 92-62 63-89.5 23.5q-92 0-144.5-70.5t-52.5-217.5z"/><glyph unicode="R" horiz-adv-x="595" d="M85 693q38 7 87.5 11t90.5 4q46 0 87.5-10t73-33 50.5-60 19-90q0-82-45-133t-114-68l48-37 174-277h-97l-193 302-98 15v-317h-83v693zm180-57h-27l-27-1-24.5-2-18.5-3v-258h78q69 0 114 34t45 106q0 54-37 89t-103 35z"/><glyph unicode="S" horiz-adv-x="531" d="M401 178q0 42-25 68.5t-62.5 47-81.5 38.5-81.5 43.5-62.5 63-25 95.5q0 82 57 130t162 48q61 0 111-9t78-23l-25-73q-23 11-67.5 21t-100.5 10q-66 0-99-29.5t-33-69.5q0-39 25-65t62.5-46.5 81.5-40.5 81.5-46.5 62.5-63.5 25-92q0-45-16-81t-47-62-75-40-100-14q-75 0-124 11.5t-76 25.5l28 75q23-13 68-25.5t101-12.5q33 0 62 6.5t50 21 33.5 36.5 12.5 52z"/><glyph unicode="T" horiz-adv-x="555" d="M537 626h-218v-626h-83v626h-218v74h519v-74z"/><glyph unicode="U" horiz-adv-x="652" d="M487 700h80v-467q0-63-16.5-109t-47-75.5-73.5-43.5-95-14q-124 0-187 56t-63 170v483h83v-444q0-53 10.5-89.5t31.5-59 52.5-32.5 73.5-10q81 0 116 44.5t35 146.5v444z"/><glyph unicode="V" horiz-adv-x="568" d="M267 219l24-106h1l26 108 169 479h83l-265-711h-37l-270 711h91z"/><glyph unicode="W" horiz-adv-x="828" d="M222 231l16-116h1l17 118 144 467h40l145-469 17-116h1l18 118 118 467h81l-195-711h-46l-142 469-18 106h-5l-18-107-142-468h-46l-200 711h88z"/><glyph unicode="X" horiz-adv-x="618" d="M259 356l-213 344h100l142-237 25-57 24 57 150 237h92l-220-337 230-363h-97l-158 251-27 60-26-60-162-251h-93z"/><glyph unicode="Y" horiz-adv-x="558" d="M239 278l-231 422h97l164-306 17-61h1l18 63 157 304h89l-229-421v-279h-83v278z"/><glyph unicode="Z" d="M38 75l353 511 42 40h-395v74h470v-75l-355-514-42-37h397v-74h-470v75z"/><glyph unicode="[" horiz-adv-x="304" d="M85 700h181v-70h-103v-790h103v-70h-181v930z"/><glyph unicode="\" horiz-adv-x="380" d="M399-111l-66-29-370 824 67 28z"/><glyph unicode="]" horiz-adv-x="304" d="M220-230h-182v70h104v790h-104v70h182v-930z"/><glyph unicode="^" horiz-adv-x="500" d="M234 711h29l169-276h-82l-80 135-23 69-31-70-92-134h-76z"/><glyph unicode="_" horiz-adv-x="408" d="M0-135h408v-70h-408v70z"/><glyph unicode="`" horiz-adv-x="280" d="M220 571h-45l-115 128v21h95z"/><glyph unicode="a" horiz-adv-x="496" d="M69 463q38 23 88.5 34t105.5 11q52 0 83.5-14t48-36.5 22-49.5 5.5-54q0-60-3-117t-3-108q0-37 3-70t11-61h-59l-21 70h-5q-9-14-22.5-27.5t-32.5-24-44-17.5-57-7-59.5 10-47.5 28.5-31.5 44.5-11.5 59q0 44 18 73.5t50.5 47 78 25 100.5 7.5h27.5l27.5-2q3 30 3 54 0 55-22 77t-80 22q-17 0-36.5-2.5t-40-7-39-11-32.5-14.5zm142-401q28 0 50 7.5t38 19 26.5 25.5 15.5 27v83q-14 1-28.5 1.5t-28.5.5q-31 0-60.5-3.5t-52-13-36-26-13.5-41.5q0-35 25-57.5t64-22.5z"/><glyph unicode="b" horiz-adv-x="540" d="M77 700h80v-249h4q23 29 58.5 45t77.5 16q97 0 145.5-62t48.5-192q0-131-64-199t-180-68q-56 0-101.5 12t-68.5 26v671zm206-258q-50 0-81-28t-45-79v-252q19-11 46-16.5t56-5.5q68 0 108.5 48t40.5 150q0 39-7 73t-22 58-38.5 38-57.5 14z"/><glyph unicode="c" horiz-adv-x="451" d="M418 33q-30-22-71-33.5t-86-11.5q-58 0-98 18.5t-65.5 53-37 83-11.5 107.5q0 127 56 194.5t161 67.5q48 0 81.5-7.5t60.5-21.5l-23-69q-23 13-51 20.5t-60 7.5q-142 0-142-192 0-38 7.5-72.5t25-61 46-42.5 70.5-16q36 0 64.5 11t46.5 25z"/><glyph unicode="d" horiz-adv-x="538" d="M461 172q0-51 1-92.5t9-81.5h-54l-20 71h-4q-20-35-58-58t-89-23q-100 0-148.5 63t-48.5 197q0 128 60.5 194.5t166.5 66.5q37 0 58.5-4t46.5-13v208h80v-528zm-202-114q51 0 81 26.5t41 80.5v248q-18 14-41 20t-61 6q-69 0-108-45.5t-39-145.5q0-41 6.5-76t21.5-60 39.5-39.5 59.5-14.5z"/><glyph unicode="e" horiz-adv-x="508" d="M442 40q-30-24-75.5-38t-96.5-14q-57 0-99 18.5t-69 53-40 82.5-13 108q0 128 57 195t163 67q34 0 68-7.5t61-28.5 44-59.5 17-101.5q0-33-6-73h-321q0-44 9-78t28-57.5 49.5-36 74.5-12.5q34 0 68 12t51 28zm-172 402q-59 0-94.5-31t-42.5-106h248q0 76-29 106.5t-82 30.5z"/><glyph unicode="f" horiz-adv-x="319" d="M22 500h78v28q0 46 7.5 80t24.5 55.5 44 32 67 10.5q32 0 56.5-4t51.5-15l-18-67q-23 10-43.5 13t-38.5 3q-26 0-40.5-8t-21-23.5-8-38-1.5-52.5v-14h133v-70h-133v-430h-80v430h-78v70z"/><glyph unicode="g" horiz-adv-x="537" d="M460-23q0-97-51.5-143t-152.5-46q-60 0-96.5 7.5t-62.5 19.5l21 68q23-9 51-17t73-8q42 0 68.5 7.5t42.5 25 22 45 6 65.5v48h-4q-20-29-51-44.5t-81-15.5q-101 0-148.5 63t-47.5 196q0 128 61 194.5t180 66.5q57 0 97.5-9t72.5-21v-502zm-201 82q51 0 80 25.5t41 79.5v256q-40 19-102 19-68 0-107-46t-39-144q0-42 7-77t22-60 39-39 59-14z"/><glyph unicode="h" horiz-adv-x="547" d="M398 0v285q0 39-4.5 68.5t-16.5 49-32.5 29.5-53.5 10q-47 0-85-30.5t-49-78.5v-333h-80v700h80v-256h4q26 31 62.5 49.5t90.5 18.5q42 0 73-9.5t51.5-33.5 30-64.5 9.5-102.5v-302h-80z"/><glyph unicode="i" horiz-adv-x="268" d="M94 500h80v-500h-80v500zm-17 152q0 23 15.5 39.5t39.5 16.5 41-16.5 17-39.5-17-38-41-15-39.5 15-15.5 38z"/><glyph unicode="j" horiz-adv-x="267" d="M93 500h80v-527q0-93-32-139t-102-46q-8 0-15 .5t-15 1.5v68q28 0 44.5 8.5t25.5 26.5 11.5 45.5 2.5 64.5v497zm-17 152q0 23 15.5 39.5t39.5 16.5 41-16.5 17-39.5-17-38-41-15-39.5 15-15.5 38z"/><glyph unicode="k" horiz-adv-x="479" d="M203 225h-46v-225h-80v700h80v-426l41 14 155 212h93l-153-201-41-33 50-40 167-226h-99z"/><glyph unicode="l" horiz-adv-x="292" d="M166 123q0-35 12-50t34-15q13 0 28 2t34 9l9-63q-16-8-44.5-13t-49.5-5q-45 0-74 25.5t-29 86.5v600h80v-577z"/><glyph unicode="m" horiz-adv-x="812" d="M370 0v283q0 40-3.5 69.5t-13.5 49.5-28.5 30-48.5 10q-46 0-76.5-28t-42.5-70v-344h-80v500h56l15-61h4q27 32 62.5 52.5t92.5 20.5q48 0 78.5-18.5t47.5-64.5q23 39 63.5 61t91.5 22q42 0 71-9.5t48-33.5 27.5-65 8.5-104v-300h-80v301q0 36-3.5 62.5t-14 44-29 26-48.5 8.5q-50 0-78-28t-40-80v-334h-80z"/><glyph unicode="n" horiz-adv-x="547" d="M398 0v285q0 78-22.5 117.5t-82.5 39.5q-53 0-87.5-28.5t-48.5-71.5v-342h-80v500h56l15-61h4q24 32 64.5 52.5t96.5 20.5q41 0 72-9.5t51.5-33.5 31-64.5 10.5-102.5v-302h-80z"/><glyph unicode="o" horiz-adv-x="536" d="M49 250q0 127 56.5 194.5t162.5 67.5q56 0 97.5-18.5t68.5-53 40-83 13-107.5q0-127-56.5-194.5t-162.5-67.5q-56 0-97.5 18.5t-68.5 53-40 83-13 107.5zm83 0q0-38 7.5-73t23.5-61 42-42 63-16q136-1 136 192 0 39-7.5 74t-23.5 61-42 41.5-63 15.5q-136 1-136-192z"/><glyph unicode="p" horiz-adv-x="541" d="M77 500h55l15-60h4q23 35 59.5 53.5t83.5 18.5q100 0 149-59t49-193q0-63-16.5-113.5t-46.5-85.5-72.5-54-94.5-19q-37 0-58.5 4.5t-46.5 15.5v-208h-80v700zm202-58q-51 0-80.5-26.5t-41.5-80.5v-248q18-14 41-21.5t61-7.5q69 0 109.5 51.5t40.5 151.5q0 41-7 74.5t-22.5 57-40 36.5-60.5 13z"/><glyph unicode="q" horiz-adv-x="537" d="M460-200h-80v250h-4q-20-30-50.5-46t-80.5-16q-100 0-148 63.5t-48 196.5q0 129 62 195t181 66q53 0 99.5-10t68.5-21v-678zm-201 258q51 0 80 26t41 80v256q-37 19-102 19-69 0-107.5-46.5t-38.5-143.5q0-42 7-77.5t22-60.5 39-39 59-14z"/><glyph unicode="r" horiz-adv-x="340" d="M313 423q-30 10-57 10-43 0-68-23.5t-31-59.5v-350h-80v500h56l15-61h4q19 34 45.5 52.5t67.5 18.5q29 0 65-10z"/><glyph unicode="s" horiz-adv-x="421" d="M297 136q0 30-18 47t-44.5 28.5-58 22-58 27-44.5 42.5-18 70q0 72 41 105.5t114 33.5q54 0 90.5-9.5t63.5-22.5l-19-66q-23 11-55.5 19.5t-69.5 8.5q-44 0-64.5-15t-20.5-52q0-26 18-40.5t44.5-26 58-22.5 58-29 44.5-45.5 18-72.5q0-32-10.5-60t-32.5-48-54.5-31.5-76.5-11.5q-57 0-97 11t-67 26l24 68q23-13 60-24t75-11q43 0 71 17t28 61z"/><glyph unicode="t" horiz-adv-x="339" d="M11 500h78v99l80 23v-122h136v-70h-136v-277q0-52 13-73.5t44-21.5q26 0 44 5.5t40 14.5l18-61q-27-13-59-21t-69-8q-61 0-86 34.5t-25 115.5v292h-78v70z"/><glyph unicode="u" horiz-adv-x="539" d="M149 500v-285q0-39 4.5-68.5t15.5-49 30-29.5 48-10q27 0 48 8.5t37.5 23.5 29 34.5 20.5 41.5v334h80v-358q0-36 2.5-74.5t8.5-67.5h-55l-20 79h-5q-23-39-62-65t-99-26q-40 0-70.5 9.5t-51 33.5-31 64.5-10.5 102.5v302h80z"/><glyph unicode="v" horiz-adv-x="482" d="M221 207l28-95h1l25 97 112 291h86l-213-511h-34l-217 511h92z"/><glyph unicode="w" horiz-adv-x="735" d="M401 500l115-292 25-96h2l19 98 89 290h76l-168-511h-39l-131 330-19 82h-3l-20-83-126-329h-39l-174 511h87l99-291 17-97h1l24 99 107 289h58z"/><glyph unicode="x" horiz-adv-x="515" d="M208 256l-168 244h98l95-138 28-57 29 57 97 138h90l-169-240 179-260h-95l-106 152-30 60-31-60-108-152h-89z"/><glyph unicode="y" horiz-adv-x="466" d="M224 176l28-96h5l22 97 97 323h81l-148-449q-17-49-33.5-95t-36.5-82-45-57.5-58-21.5q-36 0-59 10l14 69q13-5 25-5 28 0 54 29.5t43 101.5l-201 500h92z"/><glyph unicode="z" horiz-adv-x="447" d="M42 70l231 318 42 42h-273v70h356v-70l-233-321-41-39h274v-70h-356v70z"/><glyph unicode="{" horiz-adv-x="346" d="M137 112q0 51-21 69.5t-59 18.5v70q38 0 59 20t21 64v242q0 47 23.5 76t71.5 29h85v-70h-50q-27 0-39.5-13.5t-12.5-45.5v-237q0-44-21-67t-49-28v-6q27-4 48.5-30.5t21.5-68.5v-236q0-31 12-45t41-14h49v-70h-85q-45 0-70 26.5t-25 77.5v238z"/><glyph unicode="|" horiz-adv-x="238" d="M85 700h68v-830h-68v830z"/><glyph unicode="}" horiz-adv-x="346" d="M235 359q0-51 21-69.5t59-18.5v-70q-38 0-59-20t-21-64v-242q0-47-23.5-76t-71.5-29h-85v70h50q27 0 39.5 13.5t12.5 45.5v237q0 44 20.5 67t48.5 28v6q-27 4-48 30.5t-21 68.5v236q0 31-12 45t-40 14h-50v70h86q44 0 69-26.5t25-77.5v-238z"/><glyph unicode="~" horiz-adv-x="505" d="M31 361q43 33 78 46t64 13q28 0 52-8.5t46-19 43-19 44-8.5q19 0 39 8t43 28l34-61q-38-26-68.5-36.5t-55.5-10.5q-27 0-49.5 8.5t-43 19-41 19-44.5 8.5q-23 0-49-10.5t-58-36.5z"/><glyph unicode="¡" horiz-adv-x="304" d="M176-200h-83v347l17 176h49l17-176v-347zm-102 653q0 27 15.5 42.5t41.5 15.5q27 0 43-15.5t16-42.5q0-26-16-42t-43-16q-26 0-41.5 16t-15.5 42z"/><glyph unicode="¢" d="M461 33q-24-17-54.5-27.5t-65.5-14.5v-91h-71v90q-50 5-84.5 25.5t-56.5 54-32 79.5-10 101q0 115 47.5 181.5t135.5 77.5v91h71v-89q35-2 62-9.5t49-18.5l-23-68q-20 10-44.5 17t-50.5 9v-383q32 2 58 12.5t43 23.5zm-291 217q0-33 5.5-63.5t18.5-56 34-43.5 52-25v377q-110-21-110-189z"/><glyph unicode="£" d="M42 383h66q-12 26-20 57t-8 73q0 98 56 148.5t153 50.5q61 0 106-9t74-23l-26-71q-23 11-61.5 20t-93.5 9q-60 0-92.5-32.5t-32.5-87.5q0-42 10-74t24-61h161v-70h-131q8-23 13-48t5-55-9-61.5-27-51.5l-39-33v-4l62 14h256v-74h-446v72q32 0 54.5 11.5t37 30 21.5 42 7 47.5q0 33-6.5 59.5t-16.5 50.5h-97v70z"/><glyph unicode="¤" d="M70 596l78-77 21-35q42 33 103 33 59 0 103-33l22 35 78 77 49-49-77-78-35-22q32-43 32-102 0-60-32-103l35-21 77-78-49-48-78 77-21 33q-43-31-104-31-62 0-103 31l-21-33-78-77-49 48 77 78 34 22q-31 42-31 102 0 29 8.5 55t22.5 48l-34 21-77 78zm100-251q0-45 28.5-75t73.5-30 74 30 29 75-29 75.5-74 30.5-73.5-30.5-28.5-75.5z"/><glyph unicode="¥" d="M111 328h94l-203 372h97l164-306 17-61h1l18 63 157 304h89l-203-372h94v-60h-121v-63h121v-60h-121v-145h-83v145h-121v60h121v63h-121v60z"/><glyph unicode="¦" horiz-adv-x="238" d="M85 206h68v-336h-68v336zm68 158h-68v336h68v-336z"/><glyph unicode="§" horiz-adv-x="497" d="M57 353q0 31 15.5 60.5t41.5 52.5l41 14q-26 16-43.5 40.5t-17.5 65.5q0 56 41.5 91t115.5 35q54 0 91.5-9t64.5-22l-19-67q-24 11-57 19.5t-69 8.5q-45 0-66.5-16t-21.5-43q0-26 19.5-40.5t49.5-25.5 64-22 64-28.5 49.5-46 19.5-73.5q0-31-15-60t-41-52l-45-14q27-16 45.5-41t18.5-66q0-31-12-54.5t-33.5-39.5-50.5-24-62-8q-56 0-92 9.5t-64 23.5l20 65q23-11 55.5-19.5t70.5-8.5q42 0 65 13.5t23 45.5q0 26-19.5 41t-49.5 26-64 22-64 28.5-49.5 45.5-19.5 73zm303-8q0 25-13 41t-34.5 27.5-48.5 20-54 18.5q-29-13-51-37t-22-60q0-25 13-41t33.5-27.5 47-19.5 53.5-18q14 6 27.5 16t24.5 22.5 17.5 27 6.5 30.5z"/><glyph unicode="¨" horiz-adv-x="411" d="M60 653q0 23 13.5 37t35.5 14 35.5-14 13.5-37q0-21-13.5-35t-35.5-14-35.5 14-13.5 35zm192 0q0 23 13.5 37t35.5 14q23 0 36.5-14t13.5-37q0-21-13.5-35t-36.5-14q-22 0-35.5 14t-13.5 35z"/><glyph unicode="©" horiz-adv-x="806" d="M51 290q0 83 28 148.5t76 110.5 112 69 136 24 136-24 112-69 76-110.5 28-148.5-28-148.5-76-110.5-112-69-136-24q-80 0-145 24t-111 69-71 110.5-25 148.5zm70 0q0-69 22-122.5t60-89.5 89.5-55 110.5-19 110.5 19 89.5 55 60 89.5 22 122.5-22 122.5-60 89.5-89.5 55-110.5 19-110.5-19-89.5-55-60-89.5-22-122.5zm398-163q-23-13-51.5-20t-66.5-7q-81 0-123.5 51t-42.5 139q0 91 45.5 140.5t120.5 49.5q18 0 32.5-2t27-5.5 24.5-8.5 27-11l-26-61q-22 11-42 15t-34 4q-42 0-68.5-26t-26.5-95q0-58 26-89.5t77-32.5q47 0 80 18z"/><glyph unicode="ª" horiz-adv-x="386" d="M68 677q25 13 66 22t91 9q62 0 85-26t23-75q0-38-1.5-73t-1.5-67q0-24 1.5-46t6.5-41h-55l-13 46h-4q-13-17-37-33.5t-67-16.5q-52 0-83 25.5t-31 69.5q0 31 15 52t40.5 34 60 19 74.5 6q7 0 13.5-.5t13.5-.5q1 6 1 11.5v10.5q0 27-12 38t-46 11q-40 0-73-7.5t-52-17.5zm105-245q21 0 36.5 5t26.5 13.5 18 18 11 18.5v42q-11 1-21 1h-21q-21 0-40-2t-33.5-8-23-16.5-8.5-27.5q0-20 14.5-32t40.5-12z"/><glyph unicode="«" horiz-adv-x="478" d="M222 259l158 228 53-42-97-144-48-41 48-36 103-141-52-43zm-183 0l160 230 54-43-98-145-48-41 48-36 104-142-54-44z"/><glyph unicode="¬" horiz-adv-x="505" d="M41 392h424v-192h-72v120h-352v72z"/><glyph unicode="­" horiz-adv-x="360" d="M59 325h242v-74h-242v74z"/><glyph unicode="®" horiz-adv-x="700" d="M85 451q0 64 21 113.5t57.5 83 84.5 51 102 17.5q55 0 103.5-17.5t84.5-51 56.5-83 20.5-113.5-21-113.5-57.5-83-84.5-51-102-17.5q-56 0-104 17.5t-84 51-56.5 83-20.5 113.5zm63 0q0-52 16-90.5t43.5-64 64.5-38.5 78-13q43 0 80 12.5t64 38 42.5 64 15.5 91.5q0 52-16 90.5t-43.5 64-64 38.5-78.5 13q-44 0-81-13t-64-38.5-42-64-15-90.5zm99 130q16 5 45 7.5t55 2.5q42 0 72-17.5t30-60.5q0-32-20.5-49t-50.5-19l28-14 74-109h-61l-72 104-48 15v-119h-52v259zm89-35q-11 0-21-.5t-16-3.5v-71h34q29 0 45 9t16 31q0 35-58 35z"/><glyph unicode="¯" horiz-adv-x="416" d="M60 643h296v-62h-296v62z"/><glyph unicode="°" horiz-adv-x="425" d="M85 571q0 31 11 57t30 44.5 45 29 55 10.5 55-9.5 45-28 30-44.5 11-59-11-59-30-44.5-45-28-55-9.5-55 9.5-45 28-30 44.5-11 59zm63 0q0-38 23.5-59.5t54.5-21.5 54.5 21.5 23.5 59.5-23.5 59.5-54.5 21.5-54.5-21.5-23.5-59.5z"/><glyph unicode="±" horiz-adv-x="505" d="M40 494h176v180h72v-180h176v-72h-176v-121h-72v121h-176v72zm0-244h424v-72h-424v72z"/><glyph unicode="²" horiz-adv-x="394" d="M48 380zm271 310q0-31-10.5-60t-28-57-41.5-55.5-51-55.5l-46-32v-2l57 15h140v-63h-291v33q23 19 57.5 51t66.5 69 54.5 76 22.5 72q0 31-20 46.5t-49 15.5q-27 0-52.5-9.5t-44.5-21.5l-22 57q26 18 60.5 28t70.5 10q63 0 95-31t32-86z"/><glyph unicode="³" horiz-adv-x="395" d="M67 373zm102 60q48 0 73.5 19t25.5 56q0 32-23 52t-74 20h-55v23l97 116 34 27-49-6h-130v60h256v-33l-103-123-25-18v-2l23 3q55-1 87-33t32-86q0-61-44.5-98t-118.5-37q-36 0-62 6t-46 13l15 60q17-8 39-13.5t48-5.5z"/><glyph unicode="´" horiz-adv-x="268" d="M119 720h89v-21l-101-128h-47z"/><glyph unicode="¶" horiz-adv-x="494" d="M341 700h68v-830h-68v830zm-156-390q-32 0-59 16.5t-46.5 44-31 63-11.5 72.5 11.5 72 33.5 62 54 43.5 72 16.5h45v-830h-68v440z"/><glyph unicode="·" horiz-adv-x="267" d="M76 238zm0 58q0 27 15.5 42.5t41.5 15.5q27 0 43-15.5t16-42.5q0-26-16-42t-43-16q-26 0-41.5 16t-15.5 42z"/><glyph unicode="¸" horiz-adv-x="287" d="M148-43q42-8 60.5-26t18.5-49q0-41-33-65.5t-89-24.5q-11 0-22 1t-23 3l7 49q6-1 11-1.5t23-1.5q12 0 23.5 1.5t18 6.5 8.5 11 2 12q1 29-86 37l48 90h57z"/><glyph unicode="¹" horiz-adv-x="394" d="M53 380zm19 61h106v254l7 36-27-28-78-47-27 49 154 102h41v-366h95v-61h-271v61z"/><glyph unicode="º" horiz-adv-x="398" d="M44 542q0 45 12 77t32.5 53 49 30.5 61.5 9.5 61.5-9 49-29 32.5-52.5 12-79.5-12-79.5-32.5-52.5-49-29-61.5-9-61.5 9-49 29-32.5 52.5-12 79.5zm74 0q0-60 21.5-86t59.5-26q19 0 34 5.5t25.5 18 16 34 5.5 54.5-5.5 54.5-16 34-25.5 18-34 5.5q-38 0-59.5-23.5t-21.5-88.5z"/><glyph unicode="»" horiz-adv-x="478" d="M257 268l-160-228-52 42 96 144 49 41-49 36-102 141 52 43zm182 0l-160-230-54 43 98 145 48 41-48 36-104 142 53 44z"/><glyph unicode="¼" horiz-adv-x="837" d="M53 0zm595 713l52-35-487-690-52 36zm149-617h-83v-96h-67v96h-204v37l226 302h45v-280h83v-59zm-150 187l6 49h-2l-22-46-78-105-33-31 50 5h79v128zm-468 312l7 36-28-28-78-47-27 49 154 102h42v-427h-70v315z"/><glyph unicode="½" horiz-adv-x="850" d="M53 0zm595 713l52-35-487-690-52 36zm142-403q0-31-10.5-60t-28-57-41.5-55.5-51-55.5l-46-32v-2l57 15h140v-63h-291v33q23 19 57.5 51t66.5 69 54.5 76 22.5 72q0 31-20 46.5t-49 15.5q-27 0-52.5-9.5t-44.5-21.5l-22 57q26 18 60.5 28t70.5 10q63 0 95-31t32-86zm-611 285l7 36-28-28-78-47-27 49 154 102h42v-427h-70v315z"/><glyph unicode="¾" horiz-adv-x="876" d="M76 0zm611 713l52-35-487-690-52 36zm149-617h-83v-96h-67v96h-204v37l226 302h45v-280h83v-59zm-150 187l6 49h-2l-22-46-78-105-33-31 50 5h79v128zm-508 50q48 0 73.5 19t25.5 56q0 32-23 52t-74 20h-55v23l97 116 34 27-49-6h-130v60h256v-33l-103-123-25-18v-2l23 3q55-1 87-33t32-86q0-61-44.5-98t-118.5-37q-36 0-62 6t-46 13l15 60q17-8 39-13.5t48-5.5z"/><glyph unicode="¿" horiz-adv-x="436" d="M286 323q1-5 1-11v-11q0-42-12.5-74t-31-58.5-40-49.5-40-46.5-31-50-12.5-60.5q0-46 26.5-75t88.5-29q36 0 73 12.5t64 29.5l27-62q-38-23-80-36.5t-104-13.5q-44 0-77.5 12.5t-56 34.5-33.5 51.5-11 64.5q0 45 13.5 78.5t34 61 44 51.5 44 50.5 34 57.5 13.5 73h66zm-95 131q0 27 15.5 42.5t41.5 15.5q27 0 43-15.5t16-42.5q0-26-16-42t-43-16q-26 0-41.5 16t-15.5 42z"/><glyph unicode="À" horiz-adv-x="585" d="M8 0zm410 194h-258l-70-194h-82l265 711h38l266-711h-87zm-231 72h206l-78 213-25 106h-1l-25-108zm180 486h-74l-158 97v21h114z"/><glyph unicode="Á" horiz-adv-x="585" d="M8 0zm410 194h-258l-70-194h-82l265 711h38l266-711h-87zm-231 72h206l-78 213-25 106h-1l-25-108zm144 604h114v-21l-163-97h-69z"/><glyph unicode="Â" horiz-adv-x="585" d="M8 0zm410 194h-258l-70-194h-82l265 711h38l266-711h-87zm-231 72h206l-78 213-25 106h-1l-25-108zm78 604h60l127-102v-21h-81l-60 49-17 35-19-34-64-50h-79v22z"/><glyph unicode="Ã" horiz-adv-x="585" d="M8 0zm410 194h-258l-70-194h-82l265 711h38l266-711h-87zm-231 72h206l-78 213-25 106h-1l-25-108zm-52 519q31 32 57.5 43.5t50.5 11.5q19 0 37-5t34.5-11.5 32.5-11.5 31-5q26 0 50 21l25-43q-27-25-51-34.5t-45-9.5q-19 0-36 5t-33.5 11.5-32.5 11.5-32 5-31.5-6.5-32.5-23.5z"/><glyph unicode="Ä" horiz-adv-x="585" d="M8 0zm410 194h-258l-70-194h-82l265 711h38l266-711h-87zm-231 72h206l-78 213-25 106h-1l-25-108zm-43 528q0 21 15 34t39 13q23 0 37.5-13t14.5-34q0-20-14.5-33t-37.5-13q-24 0-39 13t-15 33zm192 0q0 21 14.5 34t37.5 13q24 0 39-13t15-34q0-20-15-33t-39-13q-23 0-37.5 13t-14.5 33z"/><glyph unicode="Å" horiz-adv-x="585" d="M188 768q0 37 25 61t80 24q50 0 78-21.5t28-63.5q0-32-20-53.5t-59-27.5l257-687h-87l-72 194h-258l-70-194h-82l256 687q-38 6-57 27.5t-19 53.5zm-1-502h206l-78 213-25 106h-1l-25-108zm62 502q0-17 10.5-28.5t33.5-11.5q22 0 33.5 11t11.5 29q0 19-11 30.5t-34 11.5q-22 0-33-11.5t-11-30.5z"/><glyph unicode="Æ" horiz-adv-x="846" d="M391 600l-34-103-133-229h171v332h-4zm4-402h-214l-112-198h-91l415 700h383v-74h-298v-229h273v-74h-273v-249h303v-74h-386v198z"/><glyph unicode="Ç" horiz-adv-x="571" d="M533 29q-26-20-64-29t-83-11l-17-32q42-8 60.5-26t18.5-49q0-39-32-64.5t-90-25.5q-11 0-22 1t-23 3l9 39q6-1 11-1h10q22 0 34.5 4t19 9.5 8 12.5 1.5 13q0 28-86 37l42 80q-58 4-108 27.5t-87 67.5-58 110-21 155q0 98 26.5 166.5t70 112 97.5 63.5 110 20q60 0 98-6.5t65-17.5l-20-73q-48 23-137 23-41 0-81-15t-71.5-49-50.5-89-19-135q0-72 18-126t49.5-90 74-54 92.5-18q45 0 78.5 9t56.5 23z"/><glyph unicode="È" horiz-adv-x="536" d="M85 0zm0 700h381v-74h-298v-229h273v-74h-273v-249h303v-74h-386v700zm241 52h-74l-158 97v21h114z"/><glyph unicode="É" horiz-adv-x="536" d="M85 0zm0 700h381v-74h-298v-229h273v-74h-273v-249h303v-74h-386v700zm245 170h114v-21l-163-97h-69z"/><glyph unicode="Ê" horiz-adv-x="536" d="M85 0zm0 700h381v-74h-298v-229h273v-74h-273v-249h303v-74h-386v700zm157 170h60l127-102v-21h-81l-60 49-17 35-19-34-64-50h-79v22z"/><glyph unicode="Ë" horiz-adv-x="536" d="M85 0zm0 700h381v-74h-298v-229h273v-74h-273v-249h303v-74h-386v700zm35 94q0 21 15 34t39 13q23 0 37.5-13t14.5-34q0-20-14.5-33t-37.5-13q-24 0-39 13t-15 33zm192 0q0 21 14.5 34t37.5 13q24 0 39-13t15-34q0-20-15-33t-39-13q-23 0-37.5 13t-14.5 33z"/><glyph unicode="Ì" horiz-adv-x="291" d="M0 0zm104 700h83v-700h-83v700zm91 52h-74l-158 97v21h114z"/><glyph unicode="Í" horiz-adv-x="291" d="M62 0zm42 700h83v-700h-83v700zm76 170h114v-21l-163-97h-69z"/><glyph unicode="Î" horiz-adv-x="291" d="M0 0zm104 700h83v-700h-83v700zm14 170h60l127-102v-21h-81l-60 49-17 35-19-34-64-50h-79v22z"/><glyph unicode="Ï" horiz-adv-x="291" d="M0 0zm104 700h83v-700h-83v700zm-106 94q0 21 15 34t39 13q23 0 37.5-13t14.5-34q0-20-14.5-33t-37.5-13q-24 0-39 13t-15 33zm192 0q0 21 14.5 34t37.5 13q24 0 39-13t15-34q0-20-15-33t-39-13q-23 0-37.5 13t-14.5 33z"/><glyph unicode="Ð" horiz-adv-x="658" d="M-1 392h90v308q19 3 42.5 4.5t49 2 50 1 45.5.5q84 0 145.5-26t101.5-72.5 59.5-111.5 19.5-143q0-71-18.5-136.5t-58.5-116-104-81-155-30.5q-16 0-41.5.5t-52.5 2-50 2.5-33 3v333h-90v60zm279 242h-28.5l-30.5-1-27.5-2-19.5-2v-237h147v-60h-147v-263q5-1 19-1.5t29-1 29-1 19-.5q70 0 117.5 24t76 64.5 40.5 93 12 108.5q0 49-11 98.5t-38 89.5-72.5 65.5-114.5 25.5z"/><glyph unicode="Ñ" horiz-adv-x="673" d="M85 0zm126 458l-54 101h-4l10-101v-458h-78v711h44l335-467 52-96h5l-11 96v456h78v-711h-44zm-32 327q31 32 57.5 43.5t50.5 11.5q19 0 37-5t34.5-11.5 32.5-11.5 31-5q26 0 50 21l25-43q-27-25-51-34.5t-45-9.5q-19 0-36 5t-33.5 11.5-32.5 11.5-32 5-31.5-6.5-32.5-23.5z"/><glyph unicode="Ò" horiz-adv-x="684" d="M56 0zm0 350q0 175 74 268.5t211 93.5q74 0 128-26t89.5-73.5 52.5-114 17-148.5q0-175-74.5-268.5t-212.5-93.5q-73 0-126.5 26t-89 73.5-52.5 114-17 148.5zm88 0q0-58 11.5-110t35.5-91.5 61.5-63 88.5-23.5q93 0 146 70.5t53 217.5q0 57-11.5 109.5t-36 92-62 63-89.5 23.5q-92 0-144.5-70.5t-52.5-217.5zm266 402h-74l-158 97v21h114z"/><glyph unicode="Ó" horiz-adv-x="684" d="M56 0zm0 350q0 175 74 268.5t211 93.5q74 0 128-26t89.5-73.5 52.5-114 17-148.5q0-175-74.5-268.5t-212.5-93.5q-73 0-126.5 26t-89 73.5-52.5 114-17 148.5zm88 0q0-58 11.5-110t35.5-91.5 61.5-63 88.5-23.5q93 0 146 70.5t53 217.5q0 57-11.5 109.5t-36 92-62 63-89.5 23.5q-92 0-144.5-70.5t-52.5-217.5zm271 520h114v-21l-163-97h-69z"/><glyph unicode="Ô" horiz-adv-x="684" d="M56 0zm0 350q0 175 74 268.5t211 93.5q74 0 128-26t89.5-73.5 52.5-114 17-148.5q0-175-74.5-268.5t-212.5-93.5q-73 0-126.5 26t-89 73.5-52.5 114-17 148.5zm88 0q0-58 11.5-110t35.5-91.5 61.5-63 88.5-23.5q93 0 146 70.5t53 217.5q0 57-11.5 109.5t-36 92-62 63-89.5 23.5q-92 0-144.5-70.5t-52.5-217.5zm168 520h60l127-102v-21h-81l-60 49-17 35-19-34-64-50h-79v22z"/><glyph unicode="Õ" horiz-adv-x="684" d="M56 0zm0 350q0 175 74 268.5t211 93.5q74 0 128-26t89.5-73.5 52.5-114 17-148.5q0-175-74.5-268.5t-212.5-93.5q-73 0-126.5 26t-89 73.5-52.5 114-17 148.5zm88 0q0-58 11.5-110t35.5-91.5 61.5-63 88.5-23.5q93 0 146 70.5t53 217.5q0 57-11.5 109.5t-36 92-62 63-89.5 23.5q-92 0-144.5-70.5t-52.5-217.5zm38 435q31 32 57.5 43.5t50.5 11.5q19 0 37-5t34.5-11.5 32.5-11.5 31-5q26 0 50 21l25-43q-27-25-51-34.5t-45-9.5q-19 0-36 5t-33.5 11.5-32.5 11.5-32 5-31.5-6.5-32.5-23.5z"/><glyph unicode="Ö" horiz-adv-x="684" d="M56 0zm0 350q0 175 74 268.5t211 93.5q74 0 128-26t89.5-73.5 52.5-114 17-148.5q0-175-74.5-268.5t-212.5-93.5q-73 0-126.5 26t-89 73.5-52.5 114-17 148.5zm88 0q0-58 11.5-110t35.5-91.5 61.5-63 88.5-23.5q93 0 146 70.5t53 217.5q0 57-11.5 109.5t-36 92-62 63-89.5 23.5q-92 0-144.5-70.5t-52.5-217.5zm46 444q0 21 15 34t39 13q23 0 37.5-13t14.5-34q0-20-14.5-33t-37.5-13q-24 0-39 13t-15 33zm192 0q0 21 14.5 34t37.5 13q24 0 39-13t15-34q0-20-15-33t-39-13q-23 0-37.5 13t-14.5 33z"/><glyph unicode="×" horiz-adv-x="505" d="M127 517l126-127 127 127 51-53-126-126 126-127-51-52-127 128-127-128-52 51 128 129-126 125z"/><glyph unicode="Ø" horiz-adv-x="684" d="M122 91q-34 48-50 113t-16 146q0 175 74 268.5t211 93.5q57 0 101-15t78-44l42 60 52-35-51-72q33-48 49-112.5t16-143.5q0-175-74.5-268.5t-212.5-93.5q-107 0-175 56l-39-56-52 36zm22 259q0-51 8.5-96t26.5-83l290 411q-23 26-54.5 41t-73.5 15q-92 0-144.5-70.5t-52.5-217.5zm396 0q0 48-8.5 93t-25.5 82l-290-411q23-25 54-38.5t71-13.5q93 0 146 70.5t53 217.5z"/><glyph unicode="Ù" horiz-adv-x="652" d="M85 0zm402 700h80v-467q0-63-16.5-109t-47-75.5-73.5-43.5-95-14q-124 0-187 56t-63 170v483h83v-444q0-53 10.5-89.5t31.5-59 52.5-32.5 73.5-10q81 0 116 44.5t35 146.5v444zm-80 52h-74l-158 97v21h114z"/><glyph unicode="Ú" horiz-adv-x="652" d="M85 0zm402 700h80v-467q0-63-16.5-109t-47-75.5-73.5-43.5-95-14q-124 0-187 56t-63 170v483h83v-444q0-53 10.5-89.5t31.5-59 52.5-32.5 73.5-10q81 0 116 44.5t35 146.5v444zm-97 170h114v-21l-163-97h-69z"/><glyph unicode="Û" horiz-adv-x="652" d="M85 0zm402 700h80v-467q0-63-16.5-109t-47-75.5-73.5-43.5-95-14q-124 0-187 56t-63 170v483h83v-444q0-53 10.5-89.5t31.5-59 52.5-32.5 73.5-10q81 0 116 44.5t35 146.5v444zm-186 170h60l127-102v-21h-81l-60 49-17 35-19-34-64-50h-79v22z"/><glyph unicode="Ü" horiz-adv-x="652" d="M85 0zm402 700h80v-467q0-63-16.5-109t-47-75.5-73.5-43.5-95-14q-124 0-187 56t-63 170v483h83v-444q0-53 10.5-89.5t31.5-59 52.5-32.5 73.5-10q81 0 116 44.5t35 146.5v444zm-309 94q0 21 15 34t39 13q23 0 37.5-13t14.5-34q0-20-14.5-33t-37.5-13q-24 0-39 13t-15 33zm192 0q0 21 14.5 34t37.5 13q24 0 39-13t15-34q0-20-15-33t-39-13q-23 0-37.5 13t-14.5 33z"/><glyph unicode="Ý" horiz-adv-x="558" d="M8 0zm231 278l-231 422h97l164-306 17-61h1l18 63 157 304h89l-229-421v-279h-83v278zm116 592h114v-21l-163-97h-69z"/><glyph unicode="Þ" horiz-adv-x="559" d="M85 800h83v-175q42 3 86 3 46 0 93.5-9t86.5-33 63.5-66 24.5-107q0-64-23-108t-61-71.5-87-39.5-101-12h-16.5l-24 .5-24.5 1.5-17 2v-186h-83v800zm171-244q-26 0-50-1t-38-5v-290q5-2 16-2.5t23-1 23-.5h16q34 0 67.5 6.5t60.5 23.5 43.5 48 16.5 79q0 41-15.5 68.5t-41 44-57.5 23.5-64 7z"/><glyph unicode="ß" horiz-adv-x="592" d="M384 559q0 17-9.5 31t-24.5 24.5-33 16-35 5.5q-28 0-47.5-7t-32-23-17.5-42.5-5-65.5v-498h-80v430h-78v70h78v23q0 97 47.5 140t131.5 43q41 0 75-10.5t58.5-30 38-46 13.5-59.5q0-38-19-61t-41.5-41-41.5-35-19-42q0-22 15-35t38-23 49-20.5 49-27.5 38-44.5 15-71.5q0-32-12-62.5t-34.5-54.5-56.5-39-77-15q-23 0-40.5 1.5t-32 5-27.5 8.5-26 13l23 67q12-6 21-11t19.5-8 23.5-4.5 32-1.5q21 0 40.5 7.5t34.5 20.5 23.5 30.5 8.5 39.5q0 30-15 47.5t-37.5 29.5-49 21.5-49 24-37.5 37-15 60.5q0 39 18.5 62.5t42 42 41.5 35.5 18 43z"/><glyph unicode="à" horiz-adv-x="496" d="M39 0zm30 463q38 23 88.5 34t105.5 11q52 0 83.5-14t48-36.5 22-49.5 5.5-54q0-60-3-117t-3-108q0-37 3-70t11-61h-59l-21 70h-5q-9-14-22.5-27.5t-32.5-24-44-17.5-57-7-59.5 10-47.5 28.5-31.5 44.5-11.5 59q0 44 18 73.5t50.5 47 78 25 100.5 7.5h27.5l27.5-2q3 30 3 54 0 55-22 77t-80 22q-17 0-36.5-2.5t-40-7-39-11-32.5-14.5zm142-401q28 0 50 7.5t38 19 26.5 25.5 15.5 27v83q-14 1-28.5 1.5t-28.5.5q-31 0-60.5-3.5t-52-13-36-26-13.5-41.5q0-35 25-57.5t64-22.5zm94 509h-45l-115 128v21h95z"/><glyph unicode="á" horiz-adv-x="496" d="M39 0zm30 463q38 23 88.5 34t105.5 11q52 0 83.5-14t48-36.5 22-49.5 5.5-54q0-60-3-117t-3-108q0-37 3-70t11-61h-59l-21 70h-5q-9-14-22.5-27.5t-32.5-24-44-17.5-57-7-59.5 10-47.5 28.5-31.5 44.5-11.5 59q0 44 18 73.5t50.5 47 78 25 100.5 7.5h27.5l27.5-2q3 30 3 54 0 55-22 77t-80 22q-17 0-36.5-2.5t-40-7-39-11-32.5-14.5zm142-401q28 0 50 7.5t38 19 26.5 25.5 15.5 27v83q-14 1-28.5 1.5t-28.5.5q-31 0-60.5-3.5t-52-13-36-26-13.5-41.5q0-35 25-57.5t64-22.5zm27 658h89v-21l-101-128h-47z"/><glyph unicode="â" horiz-adv-x="496" d="M39 0zm30 463q38 23 88.5 34t105.5 11q52 0 83.5-14t48-36.5 22-49.5 5.5-54q0-60-3-117t-3-108q0-37 3-70t11-61h-59l-21 70h-5q-9-14-22.5-27.5t-32.5-24-44-17.5-57-7-59.5 10-47.5 28.5-31.5 44.5-11.5 59q0 44 18 73.5t50.5 47 78 25 100.5 7.5h27.5l27.5-2q3 30 3 54 0 55-22 77t-80 22q-17 0-36.5-2.5t-40-7-39-11-32.5-14.5zm142-401q28 0 50 7.5t38 19 26.5 25.5 15.5 27v83q-14 1-28.5 1.5t-28.5.5q-31 0-60.5-3.5t-52-13-36-26-13.5-41.5q0-35 25-57.5t64-22.5zm28 670h32l111-182h-72l-39 66-21 58-22-58-45-66h-67z"/><glyph unicode="ã" horiz-adv-x="496" d="M39 0zm30 463q38 23 88.5 34t105.5 11q52 0 83.5-14t48-36.5 22-49.5 5.5-54q0-60-3-117t-3-108q0-37 3-70t11-61h-59l-21 70h-5q-9-14-22.5-27.5t-32.5-24-44-17.5-57-7-59.5 10-47.5 28.5-31.5 44.5-11.5 59q0 44 18 73.5t50.5 47 78 25 100.5 7.5h27.5l27.5-2q3 30 3 54 0 55-22 77t-80 22q-17 0-36.5-2.5t-40-7-39-11-32.5-14.5zm142-401q28 0 50 7.5t38 19 26.5 25.5 15.5 27v83q-14 1-28.5 1.5t-28.5.5q-31 0-60.5-3.5t-52-13-36-26-13.5-41.5q0-35 25-57.5t64-22.5zm-102 594q29 33 53 45.5t44 12.5q17 0 31.5-6.5t28-14 26-13.5 26.5-6q22 0 46 24l24-43q-26-29-47.5-39.5t-39.5-10.5q-16 0-30 6t-27.5 13.5-27 14-27.5 6.5q-13 0-26.5-7t-30.5-24z"/><glyph unicode="ä" horiz-adv-x="496" d="M39 0zm30 463q38 23 88.5 34t105.5 11q52 0 83.5-14t48-36.5 22-49.5 5.5-54q0-60-3-117t-3-108q0-37 3-70t11-61h-59l-21 70h-5q-9-14-22.5-27.5t-32.5-24-44-17.5-57-7-59.5 10-47.5 28.5-31.5 44.5-11.5 59q0 44 18 73.5t50.5 47 78 25 100.5 7.5h27.5l27.5-2q3 30 3 54 0 55-22 77t-80 22q-17 0-36.5-2.5t-40-7-39-11-32.5-14.5zm142-401q28 0 50 7.5t38 19 26.5 25.5 15.5 27v83q-14 1-28.5 1.5t-28.5.5q-31 0-60.5-3.5t-52-13-36-26-13.5-41.5q0-35 25-57.5t64-22.5zm-106 591q0 23 13.5 37t35.5 14 35.5-14 13.5-37q0-21-13.5-35t-35.5-14-35.5 14-13.5 35zm192 0q0 23 13.5 37t35.5 14q23 0 36.5-14t13.5-37q0-21-13.5-35t-36.5-14q-22 0-35.5 14t-13.5 35z"/><glyph unicode="å" horiz-adv-x="496" d="M39 0zm30 463q38 23 88.5 34t105.5 11q52 0 83.5-14t48-36.5 22-49.5 5.5-54q0-60-3-117t-3-108q0-37 3-70t11-61h-59l-21 70h-5q-9-14-22.5-27.5t-32.5-24-44-17.5-57-7-59.5 10-47.5 28.5-31.5 44.5-11.5 59q0 44 18 73.5t50.5 47 78 25 100.5 7.5h27.5l27.5-2q3 30 3 54 0 55-22 77t-80 22q-17 0-36.5-2.5t-40-7-39-11-32.5-14.5zm142-401q28 0 50 7.5t38 19 26.5 25.5 15.5 27v83q-14 1-28.5 1.5t-28.5.5q-31 0-60.5-3.5t-52-13-36-26-13.5-41.5q0-35 25-57.5t64-22.5zm-59 581q0 42 26.5 66.5t70.5 24.5q42 0 70-22t28-69q0-39-28-64.5t-70-25.5-69.5 23.5-27.5 66.5zm54 0q0-20 13-31t30-11q19 0 31.5 10t12.5 32-13.5 32.5-30.5 10.5-30-10-13-33z"/><glyph unicode="æ" horiz-adv-x="796" d="M211 62q28 0 50 7.5t38 19 26.5 25.5 15.5 27v83q-14 1-28.5 1.5t-28.5.5q-31 0-60.5-3.5t-52-13-36-26-13.5-41.5q0-35 25-57.5t64-22.5zm156 22q-13-18-30-34.5t-38.5-29-49-20.5-60.5-8q-32 0-59.5 10t-47.5 28.5-31.5 44.5-11.5 59q0 44 18 73.5t50.5 47 78 25 100.5 7.5h27.5l27.5-2q1 15 2 28.5t1 25.5q0 55-22 77.5t-80 21.5q-17 0-36.5-2.5t-40-7-39-11-32.5-14.5l-25 60q38 23 88.5 34t105.5 11q105 0 136-65 26 36 70 52.5t88 16.5q34 0 68-7.5t61-29 44-60.5 17-102q0-16-1.5-33.5t-3.5-37.5h-323q0-87 36.5-135.5t124.5-48.5q35 0 68.5 12.5t51.5 27.5l30-58q-30-24-75.5-38t-96.5-14q-61 0-110.5 25t-73.5 71h-7zm191 358q-59 0-95-31t-42-106h248v12q0 68-30.5 96.5t-80.5 28.5z"/><glyph unicode="ç" horiz-adv-x="451" d="M418 33q-49-35-121-43l-18-33q42-8 60.5-26t18.5-49q0-39-32-64.5t-90-25.5q-11 0-22 1t-23 3l9 39q6-1 11-1h10q22 0 34.5 4t19 9.5 8 12.5 1.5 13q0 28-86 37l42 79q-52 3-88 23t-59 54-33.5 80.5-10.5 103.5q0 127 56 194.5t161 67.5q48 0 81.5-7.5t60.5-21.5l-23-69q-23 13-51 20.5t-60 7.5q-142 0-142-192 0-38 7.5-72.5t25-61 46-42 70.5-15.5q36 0 64.5 10.5t46.5 24.5z"/><glyph unicode="è" horiz-adv-x="508" d="M49 0zm393 40q-30-24-75.5-38t-96.5-14q-57 0-99 18.5t-69 53-40 82.5-13 108q0 128 57 195t163 67q34 0 68-7.5t61-28.5 44-59.5 17-101.5q0-33-6-73h-321q0-44 9-78t28-57.5 49.5-36 74.5-12.5q34 0 68 12t51 28zm-172 402q-59 0-94.5-31t-42.5-106h248q0 76-29 106.5t-82 30.5zm60 129h-45l-115 128v21h95z"/><glyph unicode="é" horiz-adv-x="508" d="M49 0zm393 40q-30-24-75.5-38t-96.5-14q-57 0-99 18.5t-69 53-40 82.5-13 108q0 128 57 195t163 67q34 0 68-7.5t61-28.5 44-59.5 17-101.5q0-33-6-73h-321q0-44 9-78t28-57.5 49.5-36 74.5-12.5q34 0 68 12t51 28zm-172 402q-59 0-94.5-31t-42.5-106h248q0 76-29 106.5t-82 30.5zm21 278h89v-21l-101-128h-47z"/><glyph unicode="ê" horiz-adv-x="508" d="M49 0zm393 40q-30-24-75.5-38t-96.5-14q-57 0-99 18.5t-69 53-40 82.5-13 108q0 128 57 195t163 67q34 0 68-7.5t61-28.5 44-59.5 17-101.5q0-33-6-73h-321q0-44 9-78t28-57.5 49.5-36 74.5-12.5q34 0 68 12t51 28zm-172 402q-59 0-94.5-31t-42.5-106h248q0 76-29 106.5t-82 30.5zm-25 290h32l111-182h-72l-39 66-21 58-22-58-45-66h-67z"/><glyph unicode="ë" horiz-adv-x="508" d="M49 0zm393 40q-30-24-75.5-38t-96.5-14q-57 0-99 18.5t-69 53-40 82.5-13 108q0 128 57 195t163 67q34 0 68-7.5t61-28.5 44-59.5 17-101.5q0-33-6-73h-321q0-44 9-78t28-57.5 49.5-36 74.5-12.5q34 0 68 12t51 28zm-172 402q-59 0-94.5-31t-42.5-106h248q0 76-29 106.5t-82 30.5zm-151 211q0 23 13.5 37t35.5 14 35.5-14 13.5-37q0-21-13.5-35t-35.5-14-35.5 14-13.5 35zm192 0q0 23 13.5 37t35.5 14q23 0 36.5-14t13.5-37q0-21-13.5-35t-36.5-14q-22 0-35.5 14t-13.5 35z"/><glyph unicode="ì" horiz-adv-x="268" d="M12 0zm82 500h80v-500h-80v500zm78 71h-45l-115 128v21h95z"/><glyph unicode="í" horiz-adv-x="268" d="M94 0zm0 500h80v-500h-80v500zm60 220h89v-21l-101-128h-47z"/><glyph unicode="î" horiz-adv-x="268" d="M0 0zm94 500h80v-500h-80v500zm27 232h32l111-182h-72l-39 66-21 58-22-58-45-66h-67z"/><glyph unicode="ï" horiz-adv-x="268" d="M0 0zm94 500h80v-500h-80v500zm-106 153q0 23 13.5 37t35.5 14 35.5-14 13.5-37q0-21-13.5-35t-35.5-14-35.5 14-13.5 35zm192 0q0 23 13.5 37t35.5 14q23 0 36.5-14t13.5-37q0-21-13.5-35t-36.5-14q-22 0-35.5 14t-13.5 35z"/><glyph unicode="ð" horiz-adv-x="561" d="M220 596l57 31q-38 23-76 32l35 54q18-7 46-19t58-33l68 37 26-45-50-27q24-23 46-53.5t39-71 27-91.5 10-115q0-81-18-139t-48.5-95.5-71-55-86.5-17.5q-61 0-104 21t-70 57-39.5 83.5-12.5 101.5q0 52 14.5 99t43 82.5 70 56.5 96.5 21q45 0 79.5-14t48.5-32q-11 37-33.5 70t-51.5 59l-76-41zm-82-346q0-49 11-85t30.5-60 47-35.5 59.5-11.5q30 0 55.5 13t44.5 41 30 72 11 106q0 10-.5 22.5l-1 25-2 24-3.5 19.5q-8 14-22.5 25t-32.5 18.5-38 11-39 3.5q-39 0-67.5-14.5t-47-40-27-60-8.5-74.5z"/><glyph unicode="ñ" horiz-adv-x="547" d="M77 0zm321 0v285q0 78-22.5 117.5t-82.5 39.5q-53 0-87.5-28.5t-48.5-71.5v-342h-80v500h56l15-61h4q24 32 64.5 52.5t96.5 20.5q41 0 72-9.5t51.5-33.5 31-64.5 10.5-102.5v-302h-80zm-264 656q29 33 53 45.5t44 12.5q17 0 31.5-6.5t28-14 26-13.5 26.5-6q22 0 46 24l24-43q-26-29-47.5-39.5t-39.5-10.5q-16 0-30 6t-27.5 13.5-27 14-27.5 6.5q-13 0-26.5-7t-30.5-24z"/><glyph unicode="ò" horiz-adv-x="536" d="M49 0zm0 250q0 127 56.5 194.5t162.5 67.5q56 0 97.5-18.5t68.5-53 40-83 13-107.5q0-127-56.5-194.5t-162.5-67.5q-56 0-97.5 18.5t-68.5 53-40 83-13 107.5zm83 0q0-38 7.5-73t23.5-61 42-42 63-16q136-1 136 192 0 39-7.5 74t-23.5 61-42 41.5-63 15.5q-136 1-136-192zm185 321h-45l-115 128v21h95z"/><glyph unicode="ó" horiz-adv-x="536" d="M49 0zm0 250q0 127 56.5 194.5t162.5 67.5q56 0 97.5-18.5t68.5-53 40-83 13-107.5q0-127-56.5-194.5t-162.5-67.5q-56 0-97.5 18.5t-68.5 53-40 83-13 107.5zm83 0q0-38 7.5-73t23.5-61 42-42 63-16q136-1 136 192 0 39-7.5 74t-23.5 61-42 41.5-63 15.5q-136 1-136-192zm154 470h89v-21l-101-128h-47z"/><glyph unicode="ô" horiz-adv-x="536" d="M49 0zm0 250q0 127 56.5 194.5t162.5 67.5q56 0 97.5-18.5t68.5-53 40-83 13-107.5q0-127-56.5-194.5t-162.5-67.5q-56 0-97.5 18.5t-68.5 53-40 83-13 107.5zm83 0q0-38 7.5-73t23.5-61 42-42 63-16q136-1 136 192 0 39-7.5 74t-23.5 61-42 41.5-63 15.5q-136 1-136-192zm126 482h32l111-182h-72l-39 66-21 58-22-58-45-66h-67z"/><glyph unicode="õ" horiz-adv-x="536" d="M49 0zm0 250q0 127 56.5 194.5t162.5 67.5q56 0 97.5-18.5t68.5-53 40-83 13-107.5q0-127-56.5-194.5t-162.5-67.5q-56 0-97.5 18.5t-68.5 53-40 83-13 107.5zm83 0q0-38 7.5-73t23.5-61 42-42 63-16q136-1 136 192 0 39-7.5 74t-23.5 61-42 41.5-63 15.5q-136 1-136-192zm-3 406q29 33 53 45.5t44 12.5q17 0 31.5-6.5t28-14 26-13.5 26.5-6q22 0 46 24l24-43q-26-29-47.5-39.5t-39.5-10.5q-16 0-30 6t-27.5 13.5-27 14-27.5 6.5q-13 0-26.5-7t-30.5-24z"/><glyph unicode="ö" horiz-adv-x="536" d="M49 0zm0 250q0 127 56.5 194.5t162.5 67.5q56 0 97.5-18.5t68.5-53 40-83 13-107.5q0-127-56.5-194.5t-162.5-67.5q-56 0-97.5 18.5t-68.5 53-40 83-13 107.5zm83 0q0-38 7.5-73t23.5-61 42-42 63-16q136-1 136 192 0 39-7.5 74t-23.5 61-42 41.5-63 15.5q-136 1-136-192zm-8 403q0 23 13.5 37t35.5 14 35.5-14 13.5-37q0-21-13.5-35t-35.5-14-35.5 14-13.5 35zm192 0q0 23 13.5 37t35.5 14q23 0 36.5-14t13.5-37q0-21-13.5-35t-36.5-14q-22 0-35.5 14t-13.5 35z"/><glyph unicode="÷" horiz-adv-x="505" d="M40 374h424v-72h-424v72zm154 151q0 27 15.5 42.5t41.5 15.5q27 0 43-15.5t16-42.5q0-26-16-42t-43-16q-26 0-41.5 16t-15.5 42zm0-375q0 27 15.5 42.5t41.5 15.5q27 0 43-15.5t16-42.5q0-26-16-42t-43-16q-26 0-41.5 16t-15.5 42z"/><glyph unicode="ø" horiz-adv-x="536" d="M49 250q0 127 56.5 194.5t162.5 67.5q73 0 122-32l26 35 50-37-29-42q26-34 38-81t12-105q0-127-56.5-194.5t-162.5-67.5q-78 0-128 35l-27-37-52 38 33 46q-23 34-34 79.5t-11 100.5zm355 0q0 32-5 61.5t-16 53.5l-199-277q16-13 36.5-21.5t47.5-8.5q136-1 136 192zm-272 0q0-30 4.5-58t13.5-51l197 274q-15 12-34.5 19.5t-44.5 7.5q-136 1-136-192z"/><glyph unicode="ù" horiz-adv-x="539" d="M69 0zm80 500v-285q0-39 4.5-68.5t15.5-49 30-29.5 48-10q27 0 48 8.5t37.5 23.5 29 34.5 20.5 41.5v334h80v-358q0-36 2.5-74.5t8.5-67.5h-55l-20 79h-5q-23-39-62-65t-99-26q-40 0-70.5 9.5t-51 33.5-31 64.5-10.5 102.5v302h80zm159 71h-45l-115 128v21h95z"/><glyph unicode="ú" horiz-adv-x="539" d="M69 0zm80 500v-285q0-39 4.5-68.5t15.5-49 30-29.5 48-10q27 0 48 8.5t37.5 23.5 29 34.5 20.5 41.5v334h80v-358q0-36 2.5-74.5t8.5-67.5h-55l-20 79h-5q-23-39-62-65t-99-26q-40 0-70.5 9.5t-51 33.5-31 64.5-10.5 102.5v302h80zm136 220h89v-21l-101-128h-47z"/><glyph unicode="û" horiz-adv-x="539" d="M69 0zm80 500v-285q0-39 4.5-68.5t15.5-49 30-29.5 48-10q27 0 48 8.5t37.5 23.5 29 34.5 20.5 41.5v334h80v-358q0-36 2.5-74.5t8.5-67.5h-55l-20 79h-5q-23-39-62-65t-99-26q-40 0-70.5 9.5t-51 33.5-31 64.5-10.5 102.5v302h80zm111 232h32l111-182h-72l-39 66-21 58-22-58-45-66h-67z"/><glyph unicode="ü" horiz-adv-x="539" d="M69 0zm80 500v-285q0-39 4.5-68.5t15.5-49 30-29.5 48-10q27 0 48 8.5t37.5 23.5 29 34.5 20.5 41.5v334h80v-358q0-36 2.5-74.5t8.5-67.5h-55l-20 79h-5q-23-39-62-65t-99-26q-40 0-70.5 9.5t-51 33.5-31 64.5-10.5 102.5v302h80zm-24 153q0 23 13.5 37t35.5 14 35.5-14 13.5-37q0-21-13.5-35t-35.5-14-35.5 14-13.5 35zm192 0q0 23 13.5 37t35.5 14q23 0 36.5-14t13.5-37q0-21-13.5-35t-36.5-14q-22 0-35.5 14t-13.5 35z"/><glyph unicode="ý" horiz-adv-x="466" d="M12 0zm212 176l28-96h5l22 97 97 323h81l-148-449q-17-49-33.5-95t-36.5-82-45-57.5-58-21.5q-36 0-59 10l14 69q13-5 25-5 28 0 54 29.5t43 101.5l-201 500h92zm53 544h89v-21l-101-128h-47z"/><glyph unicode="þ" horiz-adv-x="541" d="M77 700h80v-250h4q20 29 53 45.5t80 16.5q100 0 149-59t49-193q0-63-16.5-113.5t-46.5-85.5-72.5-54-94.5-19q-37 0-58.5 4.5t-46.5 15.5v-208h-80v900zm202-258q-98 1-122-107v-249q18-14 41-21t61-7q69 0 109.5 51.5t40.5 151.5q0 41-7 74.5t-22.5 57-40 36.5-60.5 13z"/><glyph unicode="ÿ" horiz-adv-x="466" d="M12 0zm212 176l28-96h5l22 97 97 323h81l-148-449q-17-49-33.5-95t-36.5-82-45-57.5-58-21.5q-36 0-59 10l14 69q13-5 25-5 28 0 54 29.5t43 101.5l-201 500h92zm-135 477q0 23 13.5 37t35.5 14 35.5-14 13.5-37q0-21-13.5-35t-35.5-14-35.5 14-13.5 35zm192 0q0 23 13.5 37t35.5 14q23 0 36.5-14t13.5-37q0-21-13.5-35t-36.5-14q-22 0-35.5 14t-13.5 35z"/><glyph unicode="Ā" horiz-adv-x="585" d="M8 0zm410 194h-258l-70-194h-82l265 711h38l266-711h-87zm-231 72h206l-78 213-25 106h-1l-25-108zm-54 577h316v-62h-316v62z"/><glyph unicode="ā" horiz-adv-x="496" d="M39 0zm30 463q38 23 88.5 34t105.5 11q52 0 83.5-14t48-36.5 22-49.5 5.5-54q0-60-3-117t-3-108q0-37 3-70t11-61h-59l-21 70h-5q-9-14-22.5-27.5t-32.5-24-44-17.5-57-7-59.5 10-47.5 28.5-31.5 44.5-11.5 59q0 44 18 73.5t50.5 47 78 25 100.5 7.5h27.5l27.5-2q3 30 3 54 0 55-22 77t-80 22q-17 0-36.5-2.5t-40-7-39-11-32.5-14.5zm142-401q28 0 50 7.5t38 19 26.5 25.5 15.5 27v83q-14 1-28.5 1.5t-28.5.5q-31 0-60.5-3.5t-52-13-36-26-13.5-41.5q0-35 25-57.5t64-22.5zm-110 581h296v-62h-296v62z"/><glyph unicode="Ă" horiz-adv-x="585" d="M8 0zm410 194h-258l-70-194h-82l265 711h38l266-711h-87zm-231 72h206l-78 213-25 106h-1l-25-108zm-23 605q17-34 52-52.5t82-18.5q48 0 81 21t47 50l40-19q-9-29-25.5-51.5t-39-38.5-49.5-24-55-8q-27 0-53.5 7t-49.5 21-42 36.5-31 52.5z"/><glyph unicode="ă" horiz-adv-x="496" d="M39 0zm30 463q38 23 88.5 34t105.5 11q52 0 83.5-14t48-36.5 22-49.5 5.5-54q0-60-3-117t-3-108q0-37 3-70t11-61h-59l-21 70h-5q-9-14-22.5-27.5t-32.5-24-44-17.5-57-7-59.5 10-47.5 28.5-31.5 44.5-11.5 59q0 44 18 73.5t50.5 47 78 25 100.5 7.5h27.5l27.5-2q3 30 3 54 0 55-22 77t-80 22q-17 0-36.5-2.5t-40-7-39-11-32.5-14.5zm142-401q28 0 50 7.5t38 19 26.5 25.5 15.5 27v83q-14 1-28.5 1.5t-28.5.5q-31 0-60.5-3.5t-52-13-36-26-13.5-41.5q0-35 25-57.5t64-22.5zm-70 658q18-36 48-56.5t64-20.5 61.5 20 44.5 57l42-18q-3-24-15.5-47.5t-32-41.5-45.5-29-56-11q-28 0-53 8.5t-45.5 25-35.5 39-22 51.5z"/><glyph unicode="Ą" horiz-adv-x="585" d="M418 194h-258l-70-194h-82l265 711h38l266-711h-22q-26-16-41.5-37.5t-15.5-50.5q0-20 13.5-35t38.5-15q19 0 40 9l11-42q-15-12-40-18t-46-6q-44 0-71.5 23.5t-27.5 64.5q0 35 21.5 62.5t59.5 44.5h-7zm-231 72h206l-78 213-25 106h-1l-25-108z"/><glyph unicode="ą" horiz-adv-x="496" d="M69 463q38 23 88.5 34t105.5 11q52 0 83.5-14t48-36.5 22-49.5 5.5-54q0-60-3-117t-3-108q0-37 3-70t11-61h-23q-25-16-39-37.5t-14-47.5q0-20 13-35.5t38-15.5q19 0 40 10l11-43q-15-12-40-18t-46-6q-45 0-72 24t-27 65q0 39 26 67.5t71 45.5l-18 61h-5q-9-14-22.5-27.5t-32.5-24-44-17.5-57-7-59.5 10-47.5 28.5-31.5 44.5-11.5 59q0 44 18 73.5t50.5 47 78 25 100.5 7.5h27.5l27.5-2q3 30 3 54 0 55-22 77t-80 22q-17 0-36.5-2t-40-6.5-39-10.5-32.5-14zm142-401q28 0 50 7.5t38 19 26.5 25.5 15.5 27v83q-14 1-28.5 1.5t-28.5.5q-31 0-60.5-3.5t-52-13-36-26-13.5-41.5q0-35 25-57.5t64-22.5z"/><glyph unicode="Ć" horiz-adv-x="571" d="M56 0zm477 29q-30-23-76-32t-98-9q-63 0-118 21.5t-96 65.5-65 112.5-24 162.5q0 98 26.5 166.5t70 112 97.5 63.5 110 20q60 0 98-6.5t65-17.5l-20-73q-48 23-137 23-41 0-81-15t-71.5-49-50.5-89-19-135q0-72 18-126t49.5-90 74-54 92.5-18q45 0 78.5 9t56.5 23zm-116 841h114v-21l-163-97h-69z"/><glyph unicode="ć" horiz-adv-x="451" d="M49 0zm369 33q-30-22-71-33.5t-86-11.5q-58 0-98 18.5t-65.5 53-37 83-11.5 107.5q0 127 56 194.5t161 67.5q48 0 81.5-7.5t60.5-21.5l-23-69q-23 13-51 20.5t-60 7.5q-142 0-142-192 0-38 7.5-72.5t25-61 46-42.5 70.5-16q36 0 64.5 11t46.5 25zm-128 687h89v-21l-101-128h-47z"/><glyph unicode="Ĉ" horiz-adv-x="571" d="M56 0zm477 29q-30-23-76-32t-98-9q-63 0-118 21.5t-96 65.5-65 112.5-24 162.5q0 98 26.5 166.5t70 112 97.5 63.5 110 20q60 0 98-6.5t65-17.5l-20-73q-48 23-137 23-41 0-81-15t-71.5-49-50.5-89-19-135q0-72 18-126t49.5-90 74-54 92.5-18q45 0 78.5 9t56.5 23zm-213 841h60l127-102v-21h-81l-60 49-17 35-19-34-64-50h-79v22z"/><glyph unicode="ĉ" horiz-adv-x="451" d="M49 0zm369 33q-30-22-71-33.5t-86-11.5q-58 0-98 18.5t-65.5 53-37 83-11.5 107.5q0 127 56 194.5t161 67.5q48 0 81.5-7.5t60.5-21.5l-23-69q-23 13-51 20.5t-60 7.5q-142 0-142-192 0-38 7.5-72.5t25-61 46-42.5 70.5-16q36 0 64.5 11t46.5 25zm-181 699h32l111-182h-72l-39 66-21 58-22-58-45-66h-67z"/><glyph unicode="Č" horiz-adv-x="571" d="M56 0zm477 29q-30-23-76-32t-98-9q-63 0-118 21.5t-96 65.5-65 112.5-24 162.5q0 98 26.5 166.5t70 112 97.5 63.5 110 20q60 0 98-6.5t65-17.5l-20-73q-48 23-137 23-41 0-81-15t-71.5-49-50.5-89-19-135q0-72 18-126t49.5-90 74-54 92.5-18q45 0 78.5 9t56.5 23zm-151 717h-58l-127 103v21h82l59-50 17-34 19 33 63 51h78v-22z"/><glyph unicode="č" horiz-adv-x="451" d="M49 0zm369 33q-30-22-71-33.5t-86-11.5q-58 0-98 18.5t-65.5 53-37 83-11.5 107.5q0 127 56 194.5t161 67.5q48 0 81.5-7.5t60.5-21.5l-23-69q-23 13-51 20.5t-60 7.5q-142 0-142-192 0-38 7.5-72.5t25-61 46-42.5 70.5-16q36 0 64.5 11t46.5 25zm-148 517h-37l-115 182h78l39-66 21-58 22 58 45 66h70z"/><glyph unicode="Ď" horiz-adv-x="654" d="M85 0zm0 700q19 3 42.5 4.5t49 2 50 1 45.5.5q84 0 145.5-26t101.5-72.5 59.5-111.5 19.5-143q0-71-18.5-136.5t-58.5-116-104-81-155-30.5q-16 0-41.5.5t-52.5 2-50 2.5-33 3v701zm189-66h-28.5l-30.5-1-27.5-2-19.5-2v-560q5-1 19-1.5t29-1 29-1 19-.5q70 0 117.5 24t76 64.5 40.5 93 12 108.5q0 49-11 98.5t-38 89.5-72.5 65.5-114.5 25.5zm32 112h-58l-127 103v21h82l59-50 17-34 19 33 63 51h78v-22z"/><glyph unicode="ď" horiz-adv-x="589" d="M49 0zm412 172q0-51 1-92.5t9-81.5h-54l-20 71h-4q-20-35-58-58t-89-23q-100 0-148.5 63t-48.5 197q0 128 60.5 194.5t166.5 66.5q37 0 58.5-4t46.5-13v208h80v-528zm-202-114q51 0 81 26.5t41 80.5v248q-18 14-41 20t-61 6q-69 0-108-45.5t-39-145.5q0-41 6.5-76t21.5-60 39.5-39.5 59.5-14.5zm355 642q-2-29-12-59.5t-22.5-56.5-25.5-46-22-29l-33 18q17 36 26 81.5t9 91.5h80z"/><glyph unicode="Đ" horiz-adv-x="658" d="M0 0zm-1 392h90v308q19 3 42.5 4.5t49 2 50 1 45.5.5q84 0 145.5-26t101.5-72.5 59.5-111.5 19.5-143q0-71-18.5-136.5t-58.5-116-104-81-155-30.5q-16 0-41.5.5t-52.5 2-50 2.5-33 3v333h-90v60zm279 242h-28.5l-30.5-1-27.5-2-19.5-2v-237h147v-60h-147v-263q5-1 19-1.5t29-1 29-1 19-.5q70 0 117.5 24t76 64.5 40.5 93 12 108.5q0 49-11 98.5t-38 89.5-72.5 65.5-114.5 25.5z"/><glyph unicode="đ" horiz-adv-x="540" d="M461 632h81v-60h-81v-400q0-51 1-92.5t9-81.5h-54l-20 71h-4q-20-35-58-58t-89-23q-100 0-148.5 63t-48.5 197q0 128 60.5 194.5t166.5 66.5q37 0 58.5-4t46.5-13v80h-157v60h157v68h80v-68zm-202-574q51 0 81 26.5t41 80.5v249q-18 14-41 19.5t-61 5.5q-69 0-108-45.5t-39-145.5q0-41 6.5-76t21.5-60.5 39.5-39.5 59.5-14z"/><glyph unicode="Ē" horiz-adv-x="536" d="M85 0zm0 700h381v-74h-298v-229h273v-74h-273v-249h303v-74h-386v700zm24 143h316v-62h-316v62z"/><glyph unicode="ē" horiz-adv-x="508" d="M49 0zm393 40q-30-24-75.5-38t-96.5-14q-57 0-99 18.5t-69 53-40 82.5-13 108q0 128 57 195t163 67q34 0 68-7.5t61-28.5 44-59.5 17-101.5q0-33-6-73h-321q0-44 9-78t28-57.5 49.5-36 74.5-12.5q34 0 68 12t51 28zm-172 402q-59 0-94.5-31t-42.5-106h248q0 76-29 106.5t-82 30.5zm-163 201h296v-62h-296v62z"/><glyph unicode="Ė" horiz-adv-x="536" d="M85 0zm0 700h381v-74h-298v-229h273v-74h-273v-249h303v-74h-386v700zm127 97q0 21 16.5 36.5t45.5 15.5 46.5-15.5 17.5-36.5q0-23-17.5-38t-46.5-15-45.5 15-16.5 38z"/><glyph unicode="ė" horiz-adv-x="508" d="M49 0zm393 40q-30-24-75.5-38t-96.5-14q-57 0-99 18.5t-69 53-40 82.5-13 108q0 128 57 195t163 67q34 0 68-7.5t61-28.5 44-59.5 17-101.5q0-33-6-73h-321q0-44 9-78t28-57.5 49.5-36 74.5-12.5q34 0 68 12t51 28zm-172 402q-59 0-94.5-31t-42.5-106h248q0 76-29 106.5t-82 30.5zm-54 210q0 23 15.5 39.5t39.5 16.5 41-16.5 17-39.5-17-38-41-15-39.5 15-15.5 38z"/><glyph unicode="Ę" horiz-adv-x="536" d="M85 700h381v-74h-298v-229h273v-74h-273v-249h303v-74h-36q-26-16-41.5-37t-15.5-50q0-20 13-35.5t38-15.5q19 0 40 10l11-43q-15-12-40-18t-46-6q-45 0-72 24t-27 65q0 35 21 62t59 44h-290v700z"/><glyph unicode="ę" horiz-adv-x="508" d="M442 40q-11-9-24-16t-27-13q-34-17-53-41.5t-20-56.5q1-21 14.5-36t38.5-16q19 1 40 10l11-43q-15-12-40.5-17.5t-46.5-5.5q-45 1-71.5 24.5t-27.5 64.5q0 30 15 54t41 41q-5-1-11-1h-11q-57 0-99 18.5t-69 53-40 82.5-13 108q0 128 57 195t163 67q34 0 68-7.5t61-28.5 44-59.5 17-101.5q0-33-6-73h-321q0-44 9-78t28-58 49.5-36 74.5-12q34 0 68 12t51 28zm-172 402q-59 0-94.5-31t-42.5-106h248q0 76-29 106.5t-82 30.5z"/><glyph unicode="Ě" horiz-adv-x="536" d="M85 0zm0 700h381v-74h-298v-229h273v-74h-273v-249h303v-74h-386v700zm209 46h-58l-127 103v21h82l59-50 17-34 19 33 63 51h78v-22z"/><glyph unicode="ě" horiz-adv-x="508" d="M49 0zm393 40q-30-24-75.5-38t-96.5-14q-57 0-99 18.5t-69 53-40 82.5-13 108q0 128 57 195t163 67q34 0 68-7.5t61-28.5 44-59.5 17-101.5q0-33-6-73h-321q0-44 9-78t28-57.5 49.5-36 74.5-12.5q34 0 68 12t51 28zm-172 402q-59 0-94.5-31t-42.5-106h248q0 76-29 106.5t-82 30.5zm9 108h-37l-115 182h78l39-66 21-58 22 58 45 66h70z"/><glyph unicode="Ĝ" horiz-adv-x="612" d="M56 0zm265 349h235v-308q-16-12-38.5-22t-48-17-53-10.5-53.5-3.5q-67 0-123 21.5t-97 66-64 113-23 161.5q0 97 28 166t73 112.5 101 63.5 112 20q60 0 99-6.5t66-17.5l-21-73q-48 23-137 23-42 0-83.5-14.5t-74.5-48.5-54-89-21-136q0-74 17-128t47.5-89.5 73.5-53 94-17.5q64 0 109 25v195l-164 20v47zm10 521h60l127-102v-21h-81l-60 49-17 35-19-34-64-50h-79v22z"/><glyph unicode="ĝ" horiz-adv-x="537" d="M49 0zm411-23q0-97-51.5-143t-152.5-46q-60 0-96.5 7.5t-62.5 19.5l21 68q23-9 51-17t73-8q42 0 68.5 7.5t42.5 25 22 45 6 65.5v48h-4q-20-29-51-44.5t-81-15.5q-101 0-148.5 63t-47.5 196q0 128 61 194.5t180 66.5q57 0 97.5-9t72.5-21v-502zm-201 82q51 0 80 25.5t41 79.5v256q-40 19-102 19-68 0-107-46t-39-144q0-42 7-77t22-60 39-39 59-14zm1 673h32l111-182h-72l-39 66-21 58-22-58-45-66h-67z"/><glyph unicode="Ğ" horiz-adv-x="612" d="M56 0zm265 349h235v-308q-16-12-38.5-22t-48-17-53-10.5-53.5-3.5q-67 0-123 21.5t-97 66-64 113-23 161.5q0 97 28 166t73 112.5 101 63.5 112 20q60 0 99-6.5t66-17.5l-21-73q-48 23-137 23-42 0-83.5-14.5t-74.5-48.5-54-89-21-136q0-74 17-128t47.5-89.5 73.5-53 94-17.5q64 0 109 25v195l-164 20v47zm-98 522q17-34 52-52.5t82-18.5q48 0 81 21t47 50l40-19q-9-29-25.5-51.5t-39-38.5-49.5-24-55-8q-27 0-53.5 7t-49.5 21-42 36.5-31 52.5z"/><glyph unicode="ğ" horiz-adv-x="537" d="M49 0zm411-23q0-97-51.5-143t-152.5-46q-60 0-96.5 7.5t-62.5 19.5l21 68q23-9 51-17t73-8q42 0 68.5 7.5t42.5 25 22 45 6 65.5v48h-4q-20-29-51-44.5t-81-15.5q-101 0-148.5 63t-47.5 196q0 128 61 194.5t180 66.5q57 0 97.5-9t72.5-21v-502zm-201 82q51 0 80 25.5t41 79.5v256q-40 19-102 19-68 0-107-46t-39-144q0-42 7-77t22-60 39-39 59-14zm-98 661q18-36 48-56.5t64-20.5 61.5 20 44.5 57l42-18q-3-24-15.5-47.5t-32-41.5-45.5-29-56-11q-28 0-53 8.5t-45.5 25-35.5 39-22 51.5z"/><glyph unicode="Ģ" horiz-adv-x="612" d="M56 0zm265 349h235v-308q-16-12-38.5-22t-48-17-53-10.5-53.5-3.5q-67 0-123 21.5t-97 66-64 113-23 161.5q0 97 28 166t73 112.5 101 63.5 112 20q60 0 99-6.5t66-17.5l-21-73q-48 23-137 23-42 0-83.5-14.5t-74.5-48.5-54-89-21-136q0-74 17-128t47.5-89.5 73.5-53 94-17.5q64 0 109 25v195l-164 20v47zm-27-451q0 21 15.5 34t35.5 13q25 0 44.5-17.5t19.5-57.5q0-26-9-45.5t-21.5-34-26-23-23.5-12.5l-28 32q20 11 32 28t12 41q-4-1-10-1-18 0-29.5 12t-11.5 31z"/><glyph unicode="ģ" horiz-adv-x="537" d="M49 0zm411-23q0-97-51.5-143t-152.5-46q-60 0-96.5 7.5t-62.5 19.5l21 68q23-9 51-17t73-8q42 0 68.5 7.5t42.5 25 22 45 6 65.5v48h-4q-20-29-51-44.5t-81-15.5q-101 0-148.5 63t-47.5 196q0 128 61 194.5t180 66.5q57 0 97.5-9t72.5-21v-502zm-201 82q51 0 80 25.5t41 79.5v256q-40 19-102 19-68 0-107-46t-39-144q0-42 7-77t22-60 39-39 59-14zm86.004 549.994q0-20.999-15.499-33.998t-35.498-12.999q-24.999 0-44.497 17.498-19.499 17.499-19.499 57.497 0 25.998 8.999 45.497 9 19.499 21.499 33.998t25.998 22.998q13.5 8.5 23.499 12.5l27.998-31.998q-19.999-11-31.998-27.999-11.999-16.998-11.999-40.997 4 1 9.999 1 17.999 0 29.498-11.999 11.5-12 11.5-30.998z"/><glyph unicode="Ĥ" horiz-adv-x="672" d="M85 0zm419 321h-336v-321h-83v700h83v-305h336v305h83v-700h-83v321zm-197 549h60l127-102v-21h-81l-60 49-17 35-19-34-64-50h-79v22z"/><glyph unicode="ĥ" horiz-adv-x="547" d="M77 0zm321 0v285q0 39-4.5 68.5t-16.5 49-32.5 29.5-53.5 10q-47 0-85-30.5t-49-78.5v-333h-80v700h80v-256h4q26 31 62.5 49.5t90.5 18.5q42 0 73-9.5t51.5-33.5 30-64.5 9.5-102.5v-302h-80zm-136 870h60l127-102v-21h-81l-60 49-17 35-19-34-64-50h-79v22z"/><glyph unicode="Ħ" horiz-adv-x="677" d="M9 587h79v113h83v-113h336v113h83v-113h79v-64h-79v-523h-83v321h-336v-321h-83v523h-79v64zm498-192v128h-336v-128h336z"/><glyph unicode="ħ" horiz-adv-x="549" d="M-1 632h80v68h80v-68h160v-60h-160v-128h4q26 31 62.5 49.5t90.5 18.5q42 0 73-9.5t51.5-33.5 30-64.5 9.5-102.5v-302h-80v285q0 39-4.5 68.5t-16.5 49-32.5 29.5-53.5 10q-47 0-85-30.5t-49-78.5v-333h-80v572h-80v60z"/><glyph unicode="Ī" horiz-adv-x="291" d="M0 0zm104 700h83v-700h-83v700zm-115 143h316v-62h-316v62z"/><glyph unicode="ī" horiz-adv-x="268" d="M0 0zm94 500h80v-500h-80v500zm-107 143h296v-62h-296v62z"/><glyph unicode="Į" horiz-adv-x="291" d="M104 700h83v-700h-14q-26-16-41-37.5t-15-50.5q0-20 13-35.5t38-15.5q19 0 40 10l11-43q-15-12-40-17.5t-46-5.5q-45 0-72 23.5t-27 64.5q0 35 21 62.5t59 44.5h-10v700z"/><glyph unicode="į" horiz-adv-x="269" d="M94 500h80v-500h-18q-25-16-39.5-38t-14.5-50q0-20 13-35.5t38-15.5q19 0 40 10l11-43q-15-12-40-17.5t-47-5.5q-45 0-71.5 23.5t-26.5 64.5q0 35 21 62.5t59 44.5h-5v500zm-17 152q0 23 15.5 39.5t39.5 16.5 41-16.5 17-39.5-17-38-41-15-39.5 15-15.5 38z"/><glyph unicode="İ" horiz-adv-x="291" d="M84 0zm20 700h83v-700h-83v700zm-20 97q0 21 16.5 36.5t45.5 15.5 46.5-15.5 17.5-36.5q0-23-17.5-38t-46.5-15-45.5 15-16.5 38z"/><glyph unicode="ı" horiz-adv-x="268" d="M94 500h80v-500h-80v500z"/><glyph unicode="Ĵ" horiz-adv-x="291" d="M0 0zm112 700h83v-546q0-80-35.5-122t-107.5-42q-8 0-20 1t-24 3-23.5 5-18.5 7l16 71q28-13 61-13 42 0 55.5 29.5t13.5 80.5v526zm13 170h60l127-102v-21h-81l-60 49-17 35-19-34-64-50h-79v22z"/><glyph unicode="ĵ" horiz-adv-x="267" d="M1 0zm92 500h80v-527q0-93-32-139t-102-46q-8 0-15 .5t-15 1.5v68q28 0 44.5 8.5t25.5 26.5 11.5 45.5 2.5 64.5v497zm31 232h32l111-182h-72l-39 66-21 58-22-58-45-66h-67z"/><glyph unicode="Ķ" horiz-adv-x="610" d="M85 0zm130 324h-47v-324h-83v700h83v-326l45 14 235 312h96l-234-301-42-33 51-40 256-326h-105zm17-426q0 21 15.5 34t35.5 13q25 0 44.5-17.5t19.5-57.5q0-26-9-45.5t-21.5-34-26-23-23.5-12.5l-28 32q20 11 32 28t12 41q-4-1-10-1-18 0-29.5 12t-11.5 31z"/><glyph unicode="ķ" horiz-adv-x="479" d="M77 0zm126 225h-46v-225h-80v700h80v-426l41 14 155 212h93l-153-201-41-33 50-40 167-226h-99zm-20-327q0 21 15.5 34t35.5 13q25 0 44.5-17.5t19.5-57.5q0-26-9-45.5t-21.5-34-26-23-23.5-12.5l-28 32q20 11 32 28t12 41q-4-1-10-1-18 0-29.5 12t-11.5 31z"/><glyph unicode="Ĺ" horiz-adv-x="517" d="M85 0zm414 0h-414v700h83v-626h331v-74zm-268 870h114v-21l-163-97h-69z"/><glyph unicode="ĺ" horiz-adv-x="292" d="M86 0zm80 123q0-35 12-50t34-15q13 0 28 2t34 9l9-63q-16-8-44.5-13t-49.5-5q-45 0-74 25.5t-29 86.5v600h80v-577zm42 747h114v-21l-163-97h-69z"/><glyph unicode="Ļ" horiz-adv-x="517" d="M85 0zm414 0h-414v700h83v-626h331v-74zm-307-102q0 21 15.5 34t35.5 13q25 0 44.5-17.5t19.5-57.5q0-26-9-45.5t-21.5-34-26-23-23.5-12.5l-28 32q20 11 32 28t12 41q-4-1-10-1-18 0-29.5 12t-11.5 31z"/><glyph unicode="ļ" horiz-adv-x="292" d="M86 0zm80 123q0-35 12-50t34-15q13 0 28 2t34 9l9-63q-16-8-44.5-13t-49.5-5q-45 0-74 25.5t-29 86.5v600h80v-577zm-49-225q0 21 15.5 34t35.5 13q25 0 44.5-17.5t19.5-57.5q0-26-9-45.5t-21.5-34-26-23-23.5-12.5l-28 32q20 11 32 28t12 41q-4-1-10-1-18 0-29.5 12t-11.5 31z"/><glyph unicode="Ľ" horiz-adv-x="517" d="M85 0zm414 0h-414v700h83v-626h331v-74zm-70 700q-2-29-12-59.5t-22.5-56.5-25.5-46-22-29l-33 18q17 36 26 81.5t9 91.5h80z"/><glyph unicode="ľ" horiz-adv-x="292" d="M86 0zm80 123q0-35 12-50t34-15q13 0 28 2t34 9l9-63q-16-8-44.5-13t-49.5-5q-45 0-74 25.5t-29 86.5v600h80v-577zm155 577q-2-29-12-59.5t-22.5-56.5-25.5-46-22-29l-33 18q17 36 26 81.5t9 91.5h80z"/><glyph unicode="Ł" horiz-adv-x="517" d="M15 287l70 55v358h83v-293l107 84v-80l-107-82v-255h331v-74h-414v265l-70-54v76z"/><glyph unicode="ł" horiz-adv-x="292" d="M10 285l76 59v356h80v-293l104 82v-80l-104-80v-206q0-35 12-50t34-15q13 0 28 2t34 9l9-63q-16-8-44.5-13t-49.5-5q-45 0-74 25.5t-29 86.5v167l-76-58v76z"/><glyph unicode="Ń" horiz-adv-x="673" d="M85 0zm126 458l-54 101h-4l10-101v-458h-78v711h44l335-467 52-96h5l-11 96v456h78v-711h-44zm196 412h114v-21l-163-97h-69z"/><glyph unicode="ń" horiz-adv-x="547" d="M77 0zm321 0v285q0 78-22.5 117.5t-82.5 39.5q-53 0-87.5-28.5t-48.5-71.5v-342h-80v500h56l15-61h4q24 32 64.5 52.5t96.5 20.5q41 0 72-9.5t51.5-33.5 31-64.5 10.5-102.5v-302h-80zm-98 720h89v-21l-101-128h-47z"/><glyph unicode="Ņ" horiz-adv-x="673" d="M85 0zm126 458l-54 101h-4l10-101v-458h-78v711h44l335-467 52-96h5l-11 96v456h78v-711h-44zm68-560q0 21 15.5 34t35.5 13q25 0 44.5-17.5t19.5-57.5q0-26-9-45.5t-21.5-34-26-23-23.5-12.5l-28 32q20 11 32 28t12 41q-4-1-10-1-18 0-29.5 12t-11.5 31z"/><glyph unicode="ņ" horiz-adv-x="547" d="M77 0zm321 0v285q0 78-22.5 117.5t-82.5 39.5q-53 0-87.5-28.5t-48.5-71.5v-342h-80v500h56l15-61h4q24 32 64.5 52.5t96.5 20.5q41 0 72-9.5t51.5-33.5 31-64.5 10.5-102.5v-302h-80zm-182-102q0 21 15.5 34t35.5 13q25 0 44.5-17.5t19.5-57.5q0-26-9-45.5t-21.5-34-26-23-23.5-12.5l-28 32q20 11 32 28t12 41q-4-1-10-1-18 0-29.5 12t-11.5 31z"/><glyph unicode="Ň" horiz-adv-x="673" d="M85 0zm126 458l-54 101h-4l10-101v-458h-78v711h44l335-467 52-96h5l-11 96v456h78v-711h-44zm153 288h-58l-127 103v21h82l59-50 17-34 19 33 63 51h78v-22z"/><glyph unicode="ň" horiz-adv-x="547" d="M77 0zm321 0v285q0 78-22.5 117.5t-82.5 39.5q-53 0-87.5-28.5t-48.5-71.5v-342h-80v500h56l15-61h4q24 32 64.5 52.5t96.5 20.5q41 0 72-9.5t51.5-33.5 31-64.5 10.5-102.5v-302h-80zm-109 550h-37l-115 182h78l39-66 21-58 22 58 45 66h70z"/><glyph unicode="Ō" horiz-adv-x="684" d="M56 0zm0 350q0 175 74 268.5t211 93.5q74 0 128-26t89.5-73.5 52.5-114 17-148.5q0-175-74.5-268.5t-212.5-93.5q-73 0-126.5 26t-89 73.5-52.5 114-17 148.5zm88 0q0-58 11.5-110t35.5-91.5 61.5-63 88.5-23.5q93 0 146 70.5t53 217.5q0 57-11.5 109.5t-36 92-62 63-89.5 23.5q-92 0-144.5-70.5t-52.5-217.5zm46 493h316v-62h-316v62z"/><glyph unicode="ō" horiz-adv-x="536" d="M49 0zm0 250q0 127 56.5 194.5t162.5 67.5q56 0 97.5-18.5t68.5-53 40-83 13-107.5q0-127-56.5-194.5t-162.5-67.5q-56 0-97.5 18.5t-68.5 53-40 83-13 107.5zm83 0q0-38 7.5-73t23.5-61 42-42 63-16q136-1 136 192 0 39-7.5 74t-23.5 61-42 41.5-63 15.5q-136 1-136-192zm-12 393h296v-62h-296v62z"/><glyph unicode="Ő" horiz-adv-x="684" d="M56 0zm0 350q0 175 74 268.5t211 93.5q74 0 128-26t89.5-73.5 52.5-114 17-148.5q0-175-74.5-268.5t-212.5-93.5q-73 0-126.5 26t-89 73.5-52.5 114-17 148.5zm88 0q0-58 11.5-110t35.5-91.5 61.5-63 88.5-23.5q93 0 146 70.5t53 217.5q0 57-11.5 109.5t-36 92-62 63-89.5 23.5q-92 0-144.5-70.5t-52.5-217.5zm162 500h93v-16l-100-93h-57zm162 0h99v-16l-143-93h-58z"/><glyph unicode="ő" horiz-adv-x="536" d="M49 0zm0 250q0 127 56.5 194.5t162.5 67.5q56 0 97.5-18.5t68.5-53 40-83 13-107.5q0-127-56.5-194.5t-162.5-67.5q-56 0-97.5 18.5t-68.5 53-40 83-13 107.5zm83 0q0-38 7.5-73t23.5-61 42-42 63-16q136-1 136 192 0 39-7.5 74t-23.5 61-42 41.5-63 15.5q-136 1-136-192zm79 450h78v-16l-71-113h-42zm146 0h86v-16l-114-113h-45z"/><glyph unicode="Œ" horiz-adv-x="932" d="M481 618q-28 11-65 15.5t-75 4.5q-92 0-144.5-70.5t-52.5-217.5q0-58 11.5-110t36.5-91.5 64-63 93-23.5q29 0 59.5 2t72.5 15v539zm0-618q-25-5-60-8.5t-80-3.5q-73 0-126.5 26t-89 73.5-52.5 114-17 148.5q0 175 74 268.5t211 93.5q47 0 77.5-3.5t62.5-8.5h381v-74h-298v-229h273v-74h-273v-249h303v-74h-386z"/><glyph unicode="œ" horiz-adv-x="858" d="M132 250q0-38 7.5-73t23.5-61.5 42-42 63-15.5q135-1 135 192 0 39-7 74t-23 61-42 41.5-63 15.5q-136 1-136-192zm310-169q-27-45-70.5-69t-103.5-24q-56 0-97.5 18.5t-68.5 53-40 83-13 107.5q0 127 56.5 194.5t162.5 67.5q63 0 106.5-26t69.5-66q26 42 70.5 67t104.5 25q34 0 68-7.5t61-28.5 44-59.5 17-101.5q0-17-1-35t-4-38h-323q0-44 9-78.5t28-58.5 50-36 75-12q35 0 68.5 12.5t50.5 28.5l30-58q-30-24-75.5-38t-96.5-14q-62 0-107 25t-71 68zm178 362q-58 0-94-31.5t-43-106.5h248v9q0 69-30 99t-81 30z"/><glyph unicode="Ŕ" horiz-adv-x="595" d="M85 0zm0 693q38 7 87.5 11t90.5 4q46 0 87.5-10t73-33 50.5-60 19-90q0-82-45-133t-114-68l48-37 174-277h-97l-193 302-98 15v-317h-83v693zm180-57h-27l-27-1-24.5-2-18.5-3v-258h78q69 0 114 34t45 106q0 54-37 89t-103 35zm55 234h114v-21l-163-97h-69z"/><glyph unicode="ŕ" horiz-adv-x="340" d="M77 0zm236 423q-30 10-57 10-43 0-68-23.5t-31-59.5v-350h-80v500h56l15-61h4q19 34 45.5 52.5t67.5 18.5q29 0 65-10zm-118 297h89v-21l-101-128h-47z"/><glyph unicode="Ŗ" horiz-adv-x="595" d="M85 0zm0 693q38 7 87.5 11t90.5 4q46 0 87.5-10t73-33 50.5-60 19-90q0-82-45-133t-114-68l48-37 174-277h-97l-193 302-98 15v-317h-83v693zm180-57h-27l-27-1-24.5-2-18.5-3v-258h78q69 0 114 34t45 106q0 54-37 89t-103 35zm-26-738q0 21 15.5 34t35.5 13q25 0 44.5-17.5t19.5-57.5q0-26-9-45.5t-21.5-34-26-23-23.5-12.5l-28 32q20 11 32 28t12 41q-4-1-10-1-18 0-29.5 12t-11.5 31z"/><glyph unicode="ŗ" horiz-adv-x="340" d="M77 0zm236 423q-30 10-57 10-43 0-68-23.5t-31-59.5v-350h-80v500h56l15-61h4q19 34 45.5 52.5t67.5 18.5q29 0 65-10zm-228-525q0 21 15.5 34t35.5 13q25 0 44.5-17.5t19.5-57.5q0-26-9-45.5t-21.5-34-26-23-23.5-12.5l-28 32q20 11 32 28t12 41q-4-1-10-1-18 0-29.5 12t-11.5 31z"/><glyph unicode="Ř" horiz-adv-x="595" d="M85 0zm0 693q38 7 87.5 11t90.5 4q46 0 87.5-10t73-33 50.5-60 19-90q0-82-45-133t-114-68l48-37 174-277h-97l-193 302-98 15v-317h-83v693zm180-57h-27l-27-1-24.5-2-18.5-3v-258h78q69 0 114 34t45 106q0 54-37 89t-103 35zm12 110h-58l-127 103v21h82l59-50 17-34 19 33 63 51h78v-22z"/><glyph unicode="ř" horiz-adv-x="340" d="M54 0zm259 423q-30 10-57 10-43 0-68-23.5t-31-59.5v-350h-80v500h56l15-61h4q19 34 45.5 52.5t67.5 18.5q29 0 65-10zm-107 127h-37l-115 182h78l39-66 21-58 22 58 45 66h70z"/><glyph unicode="Ś" horiz-adv-x="531" d="M46 0zm355 178q0 42-25 68.5t-62.5 47-81.5 38.5-81.5 43.5-62.5 63-25 95.5q0 82 57 130t162 48q61 0 111-9t78-23l-25-73q-23 11-67.5 21t-100.5 10q-66 0-99-29.5t-33-69.5q0-39 25-65t62.5-46.5 81.5-40.5 81.5-46.5 62.5-63.5 25-92q0-45-16-81t-47-62-75-40-100-14q-75 0-124 11.5t-76 25.5l28 75q23-13 68-25.5t101-12.5q33 0 62 6.5t50 21 33.5 36.5 12.5 52zm-55 692h114v-21l-163-97h-69z"/><glyph unicode="ś" horiz-adv-x="421" d="M39 0zm258 136q0 30-18 47t-44.5 28.5-58 22-58 27-44.5 42.5-18 70q0 72 41 105.5t114 33.5q54 0 90.5-9.5t63.5-22.5l-19-66q-23 11-55.5 19.5t-69.5 8.5q-44 0-64.5-15t-20.5-52q0-26 18-40.5t44.5-26 58-22.5 58-29 44.5-45.5 18-72.5q0-32-10.5-60t-32.5-48-54.5-31.5-76.5-11.5q-57 0-97 11t-67 26l24 68q23-13 60-24t75-11q43 0 71 17t28 61zm-61 584h89v-21l-101-128h-47z"/><glyph unicode="Ŝ" horiz-adv-x="531" d="M46 0zm355 178q0 42-25 68.5t-62.5 47-81.5 38.5-81.5 43.5-62.5 63-25 95.5q0 82 57 130t162 48q61 0 111-9t78-23l-25-73q-23 11-67.5 21t-100.5 10q-66 0-99-29.5t-33-69.5q0-39 25-65t62.5-46.5 81.5-40.5 81.5-46.5 62.5-63.5 25-92q0-45-16-81t-47-62-75-40-100-14q-75 0-124 11.5t-76 25.5l28 75q23-13 68-25.5t101-12.5q33 0 62 6.5t50 21 33.5 36.5 12.5 52zm-149 692h60l127-102v-21h-81l-60 49-17 35-19-34-64-50h-79v22z"/><glyph unicode="ŝ" horiz-adv-x="421" d="M39 0zm258 136q0 30-18 47t-44.5 28.5-58 22-58 27-44.5 42.5-18 70q0 72 41 105.5t114 33.5q54 0 90.5-9.5t63.5-22.5l-19-66q-23 11-55.5 19.5t-69.5 8.5q-44 0-64.5-15t-20.5-52q0-26 18-40.5t44.5-26 58-22.5 58-29 44.5-45.5 18-72.5q0-32-10.5-60t-32.5-48-54.5-31.5-76.5-11.5q-57 0-97 11t-67 26l24 68q23-13 60-24t75-11q43 0 71 17t28 61zm-96 596h32l111-182h-72l-39 66-21 58-22-58-45-66h-67z"/><glyph unicode="Ş" horiz-adv-x="531" d="M401 178q0 42-25 68.5t-62.5 47-81.5 38.5-81.5 43.5-62.5 63-25 95.5q0 82 57 130t162 48q61 0 111-9t78-23l-25-73q-23 11-67.5 21t-100.5 10q-66 0-99-29.5t-33-69.5q0-39 25-65t62.5-46.5 81.5-40.5 81.5-46.5 62.5-63.5 25-92q0-79-49-130t-137-63l-19-35q42-8 60.5-26t18.5-49q0-39-32-64.5t-90-25.5q-11 0-22 1t-23 3l9 39q6-1 11-1h10q22 0 34.5 4t19 9.5 8 12.5 1.5 13q0 28-86 37l41 78q-72 1-119.5 12t-73.5 25l28 75q23-13 68-25.5t101-12.5q33 0 62 6.5t50 21 33.5 36.5 12.5 52z"/><glyph unicode="ş" horiz-adv-x="421" d="M297 136q0 30-18 47t-44.5 28.5-58 22-58 27-44.5 42.5-18 70q0 72 41 105.5t114 33.5q54 0 90.5-9.5t63.5-22.5l-19-65q-23 11-55.5 19t-69.5 8q-44 0-64.5-15t-20.5-52q0-26 18-40.5t44.5-26 58-22.5 58-29 44.5-45.5 18-72.5q0-59-35-100t-107-49l-18-33q42-8 60.5-26t18.5-49q0-39-32-64.5t-90-25.5q-11 0-22 1t-23 3l9 39q6-1 11-1h10q22 0 34.5 4t19 9.5 8 12.5 1.5 13q0 28-86 37l42 79q-47 2-81 12t-58 24l24 67q23-12 60-22.5t75-10.5q43 0 71 16.5t28 60.5z"/><glyph unicode="Š" horiz-adv-x="531" d="M46 0zm355 178q0 42-25 68.5t-62.5 47-81.5 38.5-81.5 43.5-62.5 63-25 95.5q0 82 57 130t162 48q61 0 111-9t78-23l-25-73q-23 11-67.5 21t-100.5 10q-66 0-99-29.5t-33-69.5q0-39 25-65t62.5-46.5 81.5-40.5 81.5-46.5 62.5-63.5 25-92q0-45-16-81t-47-62-75-40-100-14q-75 0-124 11.5t-76 25.5l28 75q23-13 68-25.5t101-12.5q33 0 62 6.5t50 21 33.5 36.5 12.5 52zm-79 568h-58l-127 103v21h82l59-50 17-34 19 33 63 51h78v-22z"/><glyph unicode="š" horiz-adv-x="421" d="M39 0zm258 136q0 30-18 47t-44.5 28.5-58 22-58 27-44.5 42.5-18 70q0 72 41 105.5t114 33.5q54 0 90.5-9.5t63.5-22.5l-19-66q-23 11-55.5 19.5t-69.5 8.5q-44 0-64.5-15t-20.5-52q0-26 18-40.5t44.5-26 58-22.5 58-29 44.5-45.5 18-72.5q0-32-10.5-60t-32.5-48-54.5-31.5-76.5-11.5q-57 0-97 11t-67 26l24 68q23-13 60-24t75-11q43 0 71 17t28 61zm-72 414h-37l-115 182h78l39-66 21-58 22 58 45 66h70z"/><glyph unicode="Ţ" horiz-adv-x="555" d="M18 0zm519 626h-218v-626h-83v626h-218v74h519v-74zm-319-728q0 21 15.5 34t35.5 13q25 0 44.5-17.5t19.5-57.5q0-26-9-45.5t-21.5-34-26-23-23.5-12.5l-28 32q20 11 32 28t12 41q-4-1-10-1-18 0-29.5 12t-11.5 31z"/><glyph unicode="ţ" horiz-adv-x="339" d="M11 0zm0 500h78v99l80 23v-122h136v-70h-136v-277q0-52 13-73.5t44-21.5q26 0 44 5.5t40 14.5l18-61q-27-13-59-21t-69-8q-61 0-86 34.5t-25 115.5v292h-78v70zm119-602q0 21 15.5 34t35.5 13q25 0 44.5-17.5t19.5-57.5q0-26-9-45.5t-21.5-34-26-23-23.5-12.5l-28 32q20 11 32 28t12 41q-4-1-10-1-18 0-29.5 12t-11.5 31z"/><glyph unicode="Ť" horiz-adv-x="555" d="M18 0zm519 626h-218v-626h-83v626h-218v74h519v-74zm-233 120h-58l-127 103v21h82l59-50 17-34 19 33 63 51h78v-22z"/><glyph unicode="ť" horiz-adv-x="339" d="M11 0zm0 500h78v99l80 23v-122h136v-70h-136v-277q0-52 13-73.5t44-21.5q26 0 44 5.5t40 14.5l18-61q-27-13-59-21t-69-8q-61 0-86 34.5t-25 115.5v292h-78v70zm301 214q-2-29-12-59.5t-22.5-56.5-25.5-46-22-29l-33 18q17 36 26 81.5t9 91.5h80z"/><glyph unicode="Ū" horiz-adv-x="652" d="M85 0zm402 700h80v-467q0-63-16.5-109t-47-75.5-73.5-43.5-95-14q-124 0-187 56t-63 170v483h83v-444q0-53 10.5-89.5t31.5-59 52.5-32.5 73.5-10q81 0 116 44.5t35 146.5v444zm-317 143h316v-62h-316v62z"/><glyph unicode="ū" horiz-adv-x="539" d="M69 0zm80 500v-285q0-39 4.5-68.5t15.5-49 30-29.5 48-10q27 0 48 8.5t37.5 23.5 29 34.5 20.5 41.5v334h80v-358q0-36 2.5-74.5t8.5-67.5h-55l-20 79h-5q-23-39-62-65t-99-26q-40 0-70.5 9.5t-51 33.5-31 64.5-10.5 102.5v302h80zm-27 143h296v-62h-296v62z"/><glyph unicode="Ŭ" horiz-adv-x="652" d="M85 0zm402 700h80v-467q0-63-16.5-109t-47-75.5-73.5-43.5-95-14q-124 0-187 56t-63 170v483h83v-444q0-53 10.5-89.5t31.5-59 52.5-32.5 73.5-10q81 0 116 44.5t35 146.5v444zm-290 171q17-34 52-52.5t82-18.5q48 0 81 21t47 50l40-19q-9-29-25.5-51.5t-39-38.5-49.5-24-55-8q-27 0-53.5 7t-49.5 21-42 36.5-31 52.5z"/><glyph unicode="ŭ" horiz-adv-x="539" d="M69 0zm80 500v-285q0-39 4.5-68.5t15.5-49 30-29.5 48-10q27 0 48 8.5t37.5 23.5 29 34.5 20.5 41.5v334h80v-358q0-36 2.5-74.5t8.5-67.5h-55l-20 79h-5q-23-39-62-65t-99-26q-40 0-70.5 9.5t-51 33.5-31 64.5-10.5 102.5v302h80zm13 220q18-36 48-56.5t64-20.5 61.5 20 44.5 57l42-18q-3-24-15.5-47.5t-32-41.5-45.5-29-56-11q-28 0-53 8.5t-45.5 25-35.5 39-22 51.5z"/><glyph unicode="Ů" horiz-adv-x="652" d="M85 0zm402 700h80v-467q0-63-16.5-109t-47-75.5-73.5-43.5-95-14q-124 0-187 56t-63 170v483h83v-444q0-53 10.5-89.5t31.5-59 52.5-32.5 73.5-10q81 0 116 44.5t35 146.5v444zm-262 68q0 37 25 61t80 24q50 0 78-21.5t28-63.5q0-36-26.5-59.5t-79.5-23.5q-51 0-78 22.5t-27 60.5zm61 0q0-17 10.5-28.5t33.5-11.5q22 0 33.5 11t11.5 29q0 19-11 30.5t-34 11.5q-22 0-33-11.5t-11-30.5z"/><glyph unicode="ů" horiz-adv-x="539" d="M69 0zm80 500v-285q0-39 4.5-68.5t15.5-49 30-29.5 48-10q27 0 48 8.5t37.5 23.5 29 34.5 20.5 41.5v334h80v-358q0-36 2.5-74.5t8.5-67.5h-55l-20 79h-5q-23-39-62-65t-99-26q-40 0-70.5 9.5t-51 33.5-31 64.5-10.5 102.5v302h80zm23 143q0 42 26.5 66.5t70.5 24.5q42 0 70-22t28-69q0-39-28-64.5t-70-25.5-69.5 23.5-27.5 66.5zm54 0q0-20 13-31t30-11q19 0 31.5 10t12.5 32-13.5 32.5-30.5 10.5-30-10-13-33z"/><glyph unicode="Ű" horiz-adv-x="652" d="M85 0zm402 700h80v-467q0-63-16.5-109t-47-75.5-73.5-43.5-95-14q-124 0-187 56t-63 170v483h83v-444q0-53 10.5-89.5t31.5-59 52.5-32.5 73.5-10q81 0 116 44.5t35 146.5v444zm-210 150h93v-16l-100-93h-57zm162 0h99v-16l-143-93h-58z"/><glyph unicode="ű" horiz-adv-x="539" d="M69 0zm80 500v-285q0-39 4.5-68.5t15.5-49 30-29.5 48-10q27 0 48 8.5t37.5 23.5 29 34.5 20.5 41.5v334h80v-358q0-36 2.5-74.5t8.5-67.5h-55l-20 79h-5q-23-39-62-65t-99-26q-40 0-70.5 9.5t-51 33.5-31 64.5-10.5 102.5v302h80zm61 200h78v-16l-71-113h-42zm146 0h86v-16l-114-113h-45z"/><glyph unicode="Ų" horiz-adv-x="652" d="M487 700h80v-467q-2-97-38-152.5t-101-76.5q-30-16-46-39t-16-52q1-21 14-35.5t37-15.5q21 0 41 9l11-43q-14-11-38-17t-47-6q-45 0-72.5 24t-27.5 65q0 30 16 55t44 42h-9q-124 0-187 56t-63 170v483h83v-444q0-53 10.5-89.5t31.5-59 52.5-32.5 73.5-10q80 0 115 44.5t36 146.5v444z"/><glyph unicode="ų" horiz-adv-x="539" d="M149 500v-285q0-39 4.5-68.5t15.5-49 30-29.5 48-10q27 0 48 8.5t37.5 23.5 29 34.5 20.5 41.5v334h80v-358q0-36 2.5-74.5t8.5-67.5h-18q-30-12-46.5-36t-14.5-55q3-21 15.5-34t37.5-13q19 0 39 9l11-43q-15-12-39.5-17.5t-45.5-5.5q-44 0-70.5 21.5t-29.5 63.5q0 41 25.5 71t76.5 49l-17 69h-5q-22-39-62.5-65t-97.5-26q-40 0-70.5 9.5t-51 33.5-31 64.5-10.5 102.5v302h80z"/><glyph unicode="Ÿ" horiz-adv-x="558" d="M8 0zm231 278l-231 422h97l164-306 17-61h1l18 63 157 304h89l-229-421v-279h-83v278zm-106 516q0 21 15 34t39 13q23 0 37.5-13t14.5-34q0-20-14.5-33t-37.5-13q-24 0-39 13t-15 33zm192 0q0 21 14.5 34t37.5 13q24 0 39-13t15-34q0-20-15-33t-39-13q-23 0-37.5 13t-14.5 33z"/><glyph unicode="Ź" d="M38 0zm0 75l353 511 42 40h-395v74h470v-75l-355-514-42-37h397v-74h-470v75zm291 795h114v-21l-163-97h-69z"/><glyph unicode="ź" horiz-adv-x="447" d="M42 0zm0 70l231 318 42 42h-273v70h356v-70l-233-321-41-39h274v-70h-356v70zm194 650h89v-21l-101-128h-47z"/><glyph unicode="Ż" d="M38 0zm0 75l353 511 42 40h-395v74h470v-75l-355-514-42-37h397v-74h-470v75zm173 722q0 21 16.5 36.5t45.5 15.5 46.5-15.5 17.5-36.5q0-23-17.5-38t-46.5-15-45.5 15-16.5 38z"/><glyph unicode="ż" horiz-adv-x="447" d="M42 0zm0 70l231 318 42 42h-273v70h356v-70l-233-321-41-39h274v-70h-356v70zm131 582q0 23 15.5 39.5t39.5 16.5 41-16.5 17-39.5-17-38-41-15-39.5 15-15.5 38z"/><glyph unicode="Ž" d="M38 0zm0 75l353 511 42 40h-395v74h470v-75l-355-514-42-37h397v-74h-470v75zm248 671h-58l-127 103v21h82l59-50 17-34 19 33 63 51h78v-22z"/><glyph unicode="ž" horiz-adv-x="447" d="M42 0zm0 70l231 318 42 42h-273v70h356v-70l-233-321-41-39h274v-70h-356v70zm193 480h-37l-115 182h78l39-66 21-58 22 58 45 66h70z"/><glyph unicode="ſ" horiz-adv-x="249" d="M22 500h78v28q0 93 32 135.5t112 42.5q32 0 56-4t51-15l-18-67q-23 10-43.5 13t-38.5 3q-24 0-38.5-6.5t-21.5-20-9-34-2-46.5v-529h-80v431h-78v69z"/><glyph unicode="ƒ" d="M316 430l-79-464q-6-37-17-68.5t-29.5-55-45.5-37-64-13.5q-29 0-60 7t-55 17l21 66q23-10 43.5-15t44.5-5q38 0 57.5 33.5t32.5 112.5l68 422h-85v70h96l11 67q12 74 43.5 109.5t103.5 35.5q33 0 64.5-7t56.5-18l-23-65q-48 20-92 20-19 0-31-5.5t-20-17-13.5-31-9.5-47.5l-7-41h120v-70h-131z"/><glyph unicode="Ǵ" horiz-adv-x="612" d="M56 0zm265 349h235v-308q-16-12-38.5-22t-48-17-53-10.5-53.5-3.5q-67 0-123 21.5t-97 66-64 113-23 161.5q0 97 28 166t73 112.5 101 63.5 112 20q60 0 99-6.5t66-17.5l-21-73q-48 23-137 23-42 0-83.5-14.5t-74.5-48.5-54-89-21-136q0-74 17-128t47.5-89.5 73.5-53 94-17.5q64 0 109 25v195l-164 20v47zm107 521h114v-21l-163-97h-69z"/><glyph unicode="ǵ" horiz-adv-x="537" d="M49 0zm411-23q0-97-51.5-143t-152.5-46q-60 0-96.5 7.5t-62.5 19.5l21 68q23-9 51-17t73-8q42 0 68.5 7.5t42.5 25 22 45 6 65.5v48h-4q-20-29-51-44.5t-81-15.5q-101 0-148.5 63t-47.5 196q0 128 61 194.5t180 66.5q57 0 97.5-9t72.5-21v-502zm-201 82q51 0 80 25.5t41 79.5v256q-40 19-102 19-68 0-107-46t-39-144q0-42 7-77t22-60 39-39 59-14zm45 661h89v-21l-101-128h-47z"/><glyph unicode="Ș" horiz-adv-x="531" d="M46 0zm355 178q0 42-25 68.5t-62.5 47-81.5 38.5-81.5 43.5-62.5 63-25 95.5q0 82 57 130t162 48q61 0 111-9t78-23l-25-73q-23 11-67.5 21t-100.5 10q-66 0-99-29.5t-33-69.5q0-39 25-65t62.5-46.5 81.5-40.5 81.5-46.5 62.5-63.5 25-92q0-45-16-81t-47-62-75-40-100-14q-75 0-124 11.5t-76 25.5l28 75q23-13 68-25.5t101-12.5q33 0 62 6.5t50 21 33.5 36.5 12.5 52zm-198-280q0 21 15.5 34t35.5 13q25 0 44.5-17.5t19.5-57.5q0-26-9-45.5t-21.5-34-26-23-23.5-12.5l-28 32q20 11 32 28t12 41q-4-1-10-1-18 0-29.5 12t-11.5 31z"/><glyph unicode="ș" horiz-adv-x="421" d="M39 0zm258 136q0 30-18 47t-44.5 28.5-58 22-58 27-44.5 42.5-18 70q0 72 41 105.5t114 33.5q54 0 90.5-9.5t63.5-22.5l-19-66q-23 11-55.5 19.5t-69.5 8.5q-44 0-64.5-15t-20.5-52q0-26 18-40.5t44.5-26 58-22.5 58-29 44.5-45.5 18-72.5q0-32-10.5-60t-32.5-48-54.5-31.5-76.5-11.5q-57 0-97 11t-67 26l24 68q23-13 60-24t75-11q43 0 71 17t28 61zm-143-238q0 21 15.5 34t35.5 13q25 0 44.5-17.5t19.5-57.5q0-26-9-45.5t-21.5-34-26-23-23.5-12.5l-28 32q20 11 32 28t12 41q-4-1-10-1-18 0-29.5 12t-11.5 31z"/><glyph unicode="ȷ" horiz-adv-x="267" d="M93 500h80v-527q0-93-32-139t-102-46q-8 0-15 .5t-15 1.5v68q28 0 44.5 8.5t25.5 26.5 11.5 45.5 2.5 64.5v497z"/><glyph unicode="ʼ" horiz-adv-x="194" d="M40 500zm0 159q0 23 14.5 36t37.5 13q28 0 45.5-17.5t17.5-52.5q0-33-9.5-57t-23-40.5-28.5-26.5-26-14l-25 34q23 12 36 30t13 47q-4-1-11-1-19 0-30 13.5t-11 35.5z"/><glyph unicode="ˆ" horiz-adv-x="386" d="M183 732h32l111-182h-72l-39 66-21 58-22-58-45-66h-67z"/><glyph unicode="ˇ" horiz-adv-x="395" d="M212 550h-37l-115 182h78l39-66 21-58 22 58 45 66h70z"/><glyph unicode="˘" horiz-adv-x="425" d="M105 720q18-36 48-56.5t64-20.5 61.5 20 44.5 57l42-18q-3-24-15.5-47.5t-32-41.5-45.5-29-56-11q-28 0-53 8.5t-45.5 25-35.5 39-22 51.5z"/><glyph unicode="˙" horiz-adv-x="233" d="M60 652q0 23 15.5 39.5t39.5 16.5 41-16.5 17-39.5-17-38-41-15-39.5 15-15.5 38z"/><glyph unicode="˚" horiz-adv-x="315" d="M60 643q0 42 26.5 66.5t70.5 24.5q42 0 70-22t28-69q0-39-28-64.5t-70-25.5-69.5 23.5-27.5 66.5zm54 0q0-20 13-31t30-11q19 0 31.5 10t12.5 32-13.5 32.5-30.5 10.5-30-10-13-33z"/><glyph unicode="˛" horiz-adv-x="305" d="M218 10q-35-16-55-40.5t-20-56.5q0-20 13-35.5t38-15.5q19 0 40 10l11-43q-15-12-40-18t-46-6q-45 0-72 24t-27 65 27.5 70 75.5 46h55z"/><glyph unicode="˜" horiz-adv-x="399" d="M60 656q29 33 53 45.5t44 12.5q17 0 31.5-6.5t28-14 26-13.5 26.5-6q22 0 46 24l24-43q-26-29-47.5-39.5t-39.5-10.5q-16 0-30 6t-27.5 13.5-27 14-27.5 6.5q-13 0-26.5-7t-30.5-24z"/><glyph unicode="˝" horiz-adv-x="387" d="M95 700h78v-16l-71-113h-42zm146 0h86v-16l-114-113h-45z"/><glyph unicode="́" horiz-adv-x="2" d="M-142 571zm-89 149h89v-21l-101-128h-47z"/><glyph unicode="Δ" horiz-adv-x="568" d="M14 0v37l254 674h34l256-674v-37h-544zm92 72h355l-155 403-24 105h-1l-28-107z"/><glyph unicode="Ω" horiz-adv-x="802" d="M76 70h116l94-10v26l-54 10q-32 15-60.5 41.5t-49.5 62-33.5 80-12.5 96.5q0 78 23 140t65 105.5 102 67 134 23.5q78 0 138.5-25t102.5-70 63.5-107.5 21.5-137.5q0-54-14-98t-36.5-78.5-50-59-54.5-39.5l-57-11v-26l96 10h116v-70h-287v125q30 6 64.5 22t64.5 45.5 50 75 20 109.5q0 48-13.5 94.5t-42.5 83.5-74.5 60-108.5 23q-113 0-174-66.5t-61-197.5q0-63 18.5-107.5t47.5-74.5 64-46 68-21v-125h-286v70z"/><glyph unicode="μ" horiz-adv-x="552" d="M148 500v-283q0-79 24.5-119t85.5-40q55 0 93 32.5t53 85.5v324h80v-337q0-41 2.5-82.5t12.5-80.5h-55l-28 74h-4q-20-35-61.5-60.5t-101.5-25.5q-48 0-73.5 14t-43.5 36h-5l21-105v-133h-80v700h80z"/><glyph unicode="π" horiz-adv-x="664" d="M514 116q0-28 9-39t23-11q10 0 22.5 2t21.5 4l19-54q-16-7-39.5-14.5t-53.5-7.5q-50 0-66 29t-16 81v324h-190v-430h-80v430h-14q-21 0-34-11.5t-27-33.5l-53 32q19 38 47 60.5t81 22.5h433v-70h-83v-314z"/><glyph unicode="Ё" horiz-adv-x="536" d="M85 0zm0 700h381v-74h-298v-229h273v-74h-273v-249h303v-74h-386v700zm35 94q0 21 15 34t39 13q23 0 37.5-13t14.5-34q0-20-14.5-33t-37.5-13q-24 0-39 13t-15 33zm192 0q0 21 14.5 34t37.5 13q24 0 39-13t15-34q0-20-15-33t-39-13q-23 0-37.5 13t-14.5 33z"/><glyph unicode="Ђ" horiz-adv-x="728" d="M319 0h-83v626h-218v74h519v-74h-218v-211q12 4 47.5 12.5t91.5 8.5q40 0 78.5-9.5t68.5-33.5 48.5-64.5 18.5-102.5q0-120-61-177t-172-57q-33 0-47.5.5t-22.5 2.5v72q13-2 28.5-2.5t44.5-.5q142 0 142 156 0 42-12 70t-32.5 44.5-48 23-59.5 6.5q-18 0-35.5-2.5t-33-6-27-7.5-17.5-6v-342z"/><glyph unicode="Ѓ" horiz-adv-x="442" d="M85 0zm375 626h-292v-626h-83v700h375v-74zm-145 244h114v-21l-163-97h-69z"/><glyph unicode="Є" horiz-adv-x="583" d="M544 29q-30-23-78.5-32t-100.5-9q-63 0-119 21.5t-98.5 65.5-67 112.5-24.5 162.5q0 98 27.5 166.5t71.5 112 99 63.5 111 20q60 0 101-6.5t68-17.5l-20-74q-23 11-60 17.5t-82 6.5q-39 0-76.5-12.5t-69-41-53-74.5-28.5-112h306v-74h-307q3-66 23.5-115t53-81.5 74.5-49 89-16.5q45 0 81 9t58 23z"/><glyph unicode="Ѕ" horiz-adv-x="531" d="M46 0zm355 178q0 42-25 68.5t-62.5 47-81.5 38.5-81.5 43.5-62.5 63-25 95.5q0 82 57 130t162 48q61 0 111-9t78-23l-25-73q-23 11-67.5 21t-100.5 10q-66 0-99-29.5t-33-69.5q0-39 25-65t62.5-46.5 81.5-40.5 81.5-46.5 62.5-63.5 25-92q0-45-16-81t-47-62-75-40-100-14q-75 0-124 11.5t-76 25.5l28 75q23-13 68-25.5t101-12.5q33 0 62 6.5t50 21 33.5 36.5 12.5 52z"/><glyph unicode="І" horiz-adv-x="291" d="M104 0zm0 700h83v-700h-83v700z"/><glyph unicode="Ї" horiz-adv-x="293" d="M32 793q0 22 14.5 35t36.5 13q21 0 35.5-13t14.5-35-14.5-34.5-35.5-12.5q-22 0-36.5 12.5t-14.5 34.5zm129 0q0 22 14.5 35t35.5 13q22 0 36.5-13t14.5-35-14.5-34.5-36.5-12.5q-21 0-35.5 12.5t-14.5 34.5zm-56-93h83v-700h-83v700z"/><glyph unicode="Ј" horiz-adv-x="291" d="M0 0zm112 700h83v-546q0-80-35.5-122t-107.5-42q-8 0-20 1t-24 3-23.5 5-18.5 7l16 71q28-13 61-13 42 0 55.5 29.5t13.5 80.5v526z"/><glyph unicode="Љ" horiz-adv-x="926" d="M456 626h-209q-10-200-26.5-332.5t-49.5-206.5q-22-48-52-70t-65-22q-18 0-31 2.5t-25 7.5l11 72q10-3 21-3 17 0 33.5 11t32.5 41q14 27 26.5 72t22 114 15.5 164.5 9 223.5h370v-272q5 1 17 2.5t26 2.5 29 2 27 1q48 0 93.5-9.5t81-33.5 57.5-64.5 22-102.5q0-60-21-104t-58-73-86.5-43-107.5-14q-14 0-34 .5t-42.5 2-45 4.5-41.5 8v619zm174-562q36 0 67.5 9.5t55.5 29 37.5 49 13.5 68.5q0 42-15 70t-39.5 44.5-56.5 23-66 6.5q-9 0-22-1l-26-2-24-3-16-3v-285q14-3 40-4.5t51-1.5z"/><glyph unicode="Њ" horiz-adv-x="974" d="M504 336h-336v-336h-83v700h83v-290h336v290h83v-291q5 1 17 2.5t26.5 2.5 29.5 2 27 1q47 0 92.5-8t81-30 57.5-61 22-101q0-60-21-103t-58-70-86.5-39.5-107.5-12.5q-14 0-34 .5t-42.5 2-45 4.5-41.5 7v330zm174-272q36 0 68 8t55.5 26 37 45.5 13.5 66.5q0 42-14.5 68.5t-39 41.5-56.5 20-67 5q-9 0-22-1l-26-2-24-3-16-3v-266q14-3 40-4.5t51-1.5z"/><glyph unicode="Ћ" horiz-adv-x="750" d="M319 0h-83v626h-218v74h519v-74h-218v-231q27 15 71.5 30t100.5 15q42 0 77.5-9.5t60.5-32 39-60.5 14-94v-244h-83v229q0 137-124 137-48 0-89-12.5t-67-33.5v-320z"/><glyph unicode="Ќ" horiz-adv-x="610" d="M85 0zm130 324h-47v-324h-83v700h83v-326l45 14 235 312h96l-234-301-42-33 51-40 256-326h-105zm126 546h114v-21l-163-97h-69z"/><glyph unicode="Ў" horiz-adv-x="553" d="M7 0zm275 331l26-89h5l20 92 134 366h85l-177-455q-27-71-47.5-118.5t-41.5-77-45-42-59-12.5q-33 0-52.5 5.5t-36.5 16.5l25 69q20-11 37-14t31-3q28 0 47 28.5t33 84.5l-259 518h96zm-81 539q4-37 28-57t64-20 63.5 20 28.5 56l71-17q-11-54-50.5-85.5t-113.5-31.5q-71 0-116.5 27.5t-53.5 87.5z"/><glyph unicode="Џ" horiz-adv-x="659" d="M85 0v700h83v-626h323v626h83v-700h-202l-15-179h-52l-20 179h-200z"/><glyph unicode="А" horiz-adv-x="585" d="M8 0zm410 194h-258l-70-194h-82l265 711h38l266-711h-87zm-231 72h206l-78 213-25 106h-1l-25-108z"/><glyph unicode="Б" horiz-adv-x="550" d="M85 700h380v-74h-297v-210q17 3 42 6t48 3q51 0 97-9.5t81-32.5 55.5-62.5 20.5-99.5-21-103.5-56-71-81.5-41-97.5-13.5q-17 0-38.5.5t-45 2.5-46 4.5-41.5 7.5v693zm181-636q32 0 61 9t50.5 26.5 34 44.5 12.5 63q0 46-14.5 74.5t-38.5 44.5-55.5 21.5-65.5 5.5q-9 0-21-1l-24-2-22-2.5-15-2.5v-275q7-2 18.5-3t25-2 27.5-1h27z"/><glyph unicode="В" horiz-adv-x="584" d="M85 0zm422 540q0-25-8-51t-24-48.5-41-39.5-59-26v-4q30-5 57.5-17t48.5-33 34-51 13-71q0-54-22.5-93.5t-59-64.5-83.5-37-96-12h-40l-48 1.5-50 4-44 7.5v689q37 6 86 10t107 4q39 0 79.5-6.5t73.5-25 54.5-51.5 21.5-85zm-232-476q32 0 62 7.5t53 24 36.5 40.5 13.5 57q0 41-16.5 66t-43 39-59.5 19-66 5h-87v-251q7-2 20-3t28-2 31-1.5 28-.5zm-55 328q17 0 41 1t40 3q24 8 45 19.5t37.5 27 26 36 9.5 44.5q0 33-12.5 54.5t-33.5 34.5-48 18.5-55 5.5q-33 0-60.5-1.5t-41.5-4.5v-238h52z"/><glyph unicode="Г" horiz-adv-x="442" d="M460 626h-292v-626h-83v700h375v-74z"/><glyph unicode="Д" horiz-adv-x="669" d="M641-129h-57l-15 129h-491l-15-129h-58v203h71q8 11 24.5 51.5t33 116 29.5 189 13 269.5h374v-626h91v-203zm-174 203v552h-213q-3-110-11.5-198t-20.5-155.5-27-116.5-31-82h303z"/><glyph unicode="Е" horiz-adv-x="536" d="M85 0zm0 700h381v-74h-298v-229h273v-74h-273v-249h303v-74h-386v700z"/><glyph unicode="Ж" horiz-adv-x="806" d="M358 700h80v-326l43 14 203 312h92l-202-304-40-32 50-41 223-323h-102l-221 324h-46v-324h-80v336l-42-14-221-322h-96l221 313 48 38-46 35-209 314h97l203-314h45v314z"/><glyph unicode="З" horiz-adv-x="541" d="M139 331v70h38l26.5 1 26 1.5 20.5 2.5q26 4 49 13.5t40 24.5 27 35 10 44q0 33-11 55t-30.5 35.5-45 19-54.5 5.5q-54 0-92-7.5t-61-18.5l-22 66q20 11 72 22.5t117 11.5q40 0 78.5-8.5t69-28 49-53 18.5-82.5q0-50-33-95.5t-99-65.5v-4q71-10 112-53t41-115q0-57-22.5-98.5t-59-68.5-84-39.5-96.5-12.5q-66 0-108.5 7.5t-70.5 18.5l21 75q23-11 64.5-19t100.5-8q31 0 61 8.5t53.5 26 38 43.5 14.5 62q0 63-44 92.5t-115 34.5q-12 1-22.5 1.5t-21.5.5h-55z"/><glyph unicode="И" horiz-adv-x="681" d="M513 474l6 80h-4l-43-82-338-472h-49v700h83v-480l-7-79h4l44 82 338 477h49v-700h-83v474z"/><glyph unicode="Й" horiz-adv-x="681" d="M85 0zm428 474l6 80h-4l-43-82-338-472h-49v700h83v-480l-7-79h4l44 82 338 477h49v-700h-83v474zm-255 396q4-37 28-57t64-20 63.5 20 28.5 56l71-17q-11-54-50.5-85.5t-113.5-31.5q-71 0-116.5 27.5t-53.5 87.5z"/><glyph unicode="К" horiz-adv-x="610" d="M85 0zm130 324h-47v-324h-83v700h83v-326l45 14 235 312h96l-234-301-42-33 51-40 256-326h-105z"/><glyph unicode="Л" horiz-adv-x="624" d="M456 626h-209q-10-200-26.5-332.5t-49.5-206.5q-22-48-52-70t-65-22q-18 0-31 2.5t-25 7.5l11 72q10-3 21-3 17 0 33.5 11t32.5 41q14 27 26.5 72t22 114 15.5 164.5 9 223.5h370v-700h-83v626z"/><glyph unicode="М" horiz-adv-x="791" d="M85 0zm538 470l10 105h-5l-38-96-182-316h-25l-193 317-36 95h-5l14-104v-471h-78v700h62l219-358 33-78h2l31 80 209 356h65v-700h-83v470z"/><glyph unicode="Н" horiz-adv-x="672" d="M85 0zm419 321h-336v-321h-83v700h83v-305h336v305h83v-700h-83v321z"/><glyph unicode="О" horiz-adv-x="684" d="M56 0zm0 350q0 175 74 268.5t211 93.5q74 0 128-26t89.5-73.5 52.5-114 17-148.5q0-175-74.5-268.5t-212.5-93.5q-73 0-126.5 26t-89 73.5-52.5 114-17 148.5zm88 0q0-58 11.5-110t35.5-91.5 61.5-63 88.5-23.5q93 0 146 70.5t53 217.5q0 57-11.5 109.5t-36 92-62 63-89.5 23.5q-92 0-144.5-70.5t-52.5-217.5z"/><glyph unicode="П" horiz-adv-x="659" d="M491 626h-323v-626h-83v700h489v-700h-83v626z"/><glyph unicode="Р" horiz-adv-x="559" d="M85 0zm0 693q38 9 82 12t87 3q46 0 93.5-9t86.5-33 63.5-66 24.5-107q0-64-23-108t-61-71.5-87-39.5-101-12h-16.5l-24 .5-24.5 1.5-17 2v-266h-83v693zm171-57q-26 0-50-1t-38-5v-290q5-2 16-2.5t23-1 23-.5h16q34 0 67.5 6.5t60.5 23.5 43.5 48 16.5 79q0 41-15.5 68.5t-41 44-57.5 23.5-64 7z"/><glyph unicode="С" horiz-adv-x="571" d="M56 0zm477 29q-30-23-76-32t-98-9q-63 0-118 21.5t-96 65.5-65 112.5-24 162.5q0 98 26.5 166.5t70 112 97.5 63.5 110 20q60 0 98-6.5t65-17.5l-20-73q-48 23-137 23-41 0-81-15t-71.5-49-50.5-89-19-135q0-72 18-126t49.5-90 74-54 92.5-18q45 0 78.5 9t56.5 23z"/><glyph unicode="Т" horiz-adv-x="555" d="M18 0zm519 626h-218v-626h-83v626h-218v74h519v-74z"/><glyph unicode="У" horiz-adv-x="553" d="M282 331l26-89h5l20 92 134 366h85l-177-455q-27-71-47.5-118.5t-41.5-77-45-42-59-12.5q-33 0-52.5 5.5t-36.5 16.5l25 69q20-11 37-14t31-3q28 0 47 28.5t33 84.5l-259 518h96z"/><glyph unicode="Ф" horiz-adv-x="780" d="M349 78q-17-3-39.5-4t-42.5-1q-47 0-88.5 16t-72 50-48 86.5-17.5 124.5q0 68 17.5 121.5t50 90.5 77.5 56.5 100 19.5q13 0 32.5-1t30.5-3v86h82v-89q18 5 42.5 6t40.5 1q48 0 89-17.5t71.5-52 47.5-87 17-121.5q0-71-19.5-125t-52.5-90-77-54-94-18q-11 0-32.5 1.5t-32.5 5.5v-100h-82v98zm153 490q-14 0-36-1t-36-6v-415q10-2 26.5-2.5t32.5-.5q34 0 63.5 13t52 40 35.5 68 13 96q0 46-10.5 84.5t-30 66.5-47.5 42.5-63 14.5zm-220-425h13.5l18.5.5 19.5 2 16.5 3.5v415q-12 2-29.5 3t-31.5 1q-34 0-63.5-13.5t-51.5-41-34.5-68.5-12.5-95q0-48 11-86.5t31.5-65.5 49-41 63.5-14z"/><glyph unicode="Х" horiz-adv-x="618" d="M26 0zm233 356l-213 344h100l142-237 25-57 24 57 150 237h92l-220-337 230-363h-97l-158 251-27 60-26-60-162-251h-93z"/><glyph unicode="Ц" horiz-adv-x="687" d="M659-129h-57l-15 129h-502v700h83v-626h315v626h83v-626h93v-203z"/><glyph unicode="Ч" horiz-adv-x="605" d="M158 700v-232q0-137 124-137 47 0 88 12.5t67 33.5v323h83v-700h-83v302q-27-15-71-30t-101-15q-42 0-77 9.5t-60 32-39 60.5-14 94v247h83z"/><glyph unicode="Ш" horiz-adv-x="877" d="M85 0v700h83v-626h229v626h83v-626h229v626h83v-700h-707z"/><glyph unicode="Щ" horiz-adv-x="913" d="M85 0v700h83v-626h229v626h83v-626h229v626h83v-626h93v-203h-58l-15 129h-727z"/><glyph unicode="Ъ" horiz-adv-x="630" d="M159 626h-160v74h243v-272q5 1 17 2.5t26.5 2.5 29.5 2 27 1q47 0 92.5-9.5t81.5-33.5 58-64.5 22-102.5q0-60-21-104t-58-73-86.5-43-107.5-14q-14 0-34 .5t-42.5 2-45.5 4.5-42 8v619zm175-562q36 0 67.5 9.5t55 29 37.5 49 14 68.5q0 42-15 70t-40 44.5-57 23-66 6.5q-9 0-22-1l-26-2-24-3-16-3v-285q14-3 40-4.5t52-1.5z"/><glyph unicode="Ы" horiz-adv-x="769" d="M601 700h83v-700h-83v700zm-516 0h83v-272q5 1 15 2.5t22 2.5 24.5 2 24.5 1q47 0 91.5-9.5t78.5-33.5 54.5-64.5 20.5-102.5q0-60-19-104.5t-53.5-73-82.5-42.5-106-14q-14 0-32.5.5t-39 2-41.5 4.5-40 8v693zm160-636q72 0 119 39t47 117q0 42-14 70t-37.5 44.5-54 23-64.5 6.5q-18 0-40-3t-33-6v-285q27-6 77-6z"/><glyph unicode="Ь" horiz-adv-x="555" d="M85 700h83v-272q5 1 17 2.5t26 2.5 29 2 27 1q48 0 93.5-9.5t81-33.5 57.5-64.5 22-102.5q0-60-21-104t-58-73-86.5-43-107.5-14q-14 0-34 .5t-42.5 2-45 4.5-41.5 8v693zm174-636q36 0 67.5 9.5t55.5 29 37.5 49 13.5 68.5q0 42-15 70t-39.5 44.5-56.5 23-66 6.5q-9 0-22-1l-26-2-24-3-16-3v-285q14-3 40-4.5t51-1.5z"/><glyph unicode="Э" horiz-adv-x="577" d="M150 395h288q-5 61-24 107.5t-49 77-69.5 44.5-85.5 14q-47 0-83.5-8t-59.5-22l-22 65q31 18 77 28.5t98 10.5q64 0 119-20t95.5-63.5 63.5-112.5 23-166q0-98-26-167t-70.5-112.5-103-63-122.5-19.5q-50 0-88.5 7t-65.5 18l22 73q23-11 60-17.5t77-6.5 80.5 12.5 73.5 43.5 55 81 26 122h-289v74z"/><glyph unicode="Ю" horiz-adv-x="893" d="M168 395h124q8 153 77 235t197 82q73 0 125-26t84-73.5 47-114 15-148.5q0-175-67-268.5t-204-93.5q-69 0-120 23.5t-84.5 67-50.5 105-20 137.5h-123v-321h-83v700h83v-305zm211-45q0-58 10-110t32-91.5 57.5-63 87.5-23.5q93 0 138 70t45 218q0 57-9 109.5t-30.5 92-56.5 63-87 23.5q-93 0-140-70.5t-47-217.5z"/><glyph unicode="Я" horiz-adv-x="569" d="M484 0h-83v305l-103-22-174-283h-98l156 249 61 43q-36 8-66.5 24.5t-53 42-35 59.5-12.5 78q0 61 20.5 101.5t56 65 83 35 100.5 10.5q34 0 72.5-3t75.5-12v-693zm-152 636q-33 0-63-6.5t-53.5-22.5-37.5-43-14-68q0-38 13.5-65t36.5-44.5 53.5-25.5 65.5-8h68v277q-14 3-29 4.5t-40 1.5z"/><glyph unicode="а" horiz-adv-x="496" d="M39 0zm30 463q38 23 88.5 34t105.5 11q52 0 83.5-14t48-36.5 22-49.5 5.5-54q0-60-3-117t-3-108q0-37 3-70t11-61h-59l-21 70h-5q-9-14-22.5-27.5t-32.5-24-44-17.5-57-7-59.5 10-47.5 28.5-31.5 44.5-11.5 59q0 44 18 73.5t50.5 47 78 25 100.5 7.5h27.5l27.5-2q3 30 3 54 0 55-22 77t-80 22q-17 0-36.5-2.5t-40-7-39-11-32.5-14.5zm142-401q28 0 50 7.5t38 19 26.5 25.5 15.5 27v83q-14 1-28.5 1.5t-28.5.5q-31 0-60.5-3.5t-52-13-36-26-13.5-41.5q0-35 25-57.5t64-22.5z"/><glyph unicode="б" horiz-adv-x="536" d="M123 411q33 48 73 67.5t100 19.5q92 0 141.5-60t49.5-177q0-135-57.5-204t-160.5-69q-110 0-165 76t-55 239q0 86 8.5 147t25 103 40 67 53 39.5 64.5 20.5 75 10q52 5 81.5 11.5t47.5 23.5l9-72q-10-9-22-15t-29-10-40.5-7-54.5-5q-43-3-75.5-10.5t-56-29-37-61-18.5-104.5h3zm9-162q0-38 8-73t24.5-61.5 42.5-41.5 61-15q69 0 102.5 49.5t33.5 146.5q0 38-7 70t-22 55.5-38 36-55 12.5q-78 1-114-45.5t-36-133.5z"/><glyph unicode="в" horiz-adv-x="499" d="M77 499q35 2 73.5 5t95.5 3q99 0 142-30.5t43-92.5q0-35-20.5-68.5t-67.5-49.5v-4q59-11 83-41t24-80q0-78-56-113t-168-35q-42 0-78 2.5t-71 5.5v498zm80-432q19-2 37.5-3t43.5-1q67 0 99.5 19t32.5 65q0 36-27.5 58.5t-97.5 22.5h-88v-161zm98 222q18 0 35 6t30.5 16.5 22 24.5 8.5 30q0 40-24 55.5t-84 15.5q-32 0-50.5-1t-35.5-2v-145h98z"/><glyph unicode="г" horiz-adv-x="369" d="M369 430h-212v-430h-80v500h292v-70z"/><glyph unicode="д" horiz-adv-x="541" d="M519-127h-54l-15 127h-376l-15-127h-54v197h59q8 11 21 39.5t25.5 80 22 128 11.5 182.5h302v-430h73v-197zm-153 197v360h-150q-2-42-7-91.5t-13.5-99-21.5-93.5-30-76h222z"/><glyph unicode="е" horiz-adv-x="508" d="M49 0zm393 40q-30-24-75.5-38t-96.5-14q-57 0-99 18.5t-69 53-40 82.5-13 108q0 128 57 195t163 67q34 0 68-7.5t61-28.5 44-59.5 17-101.5q0-33-6-73h-321q0-44 9-78t28-57.5 49.5-36 74.5-12.5q34 0 68 12t51 28zm-172 402q-59 0-94.5-31t-42.5-106h248q0 76-29 106.5t-82 30.5z"/><glyph unicode="ж" horiz-adv-x="659" d="M240 221l-147-221h-92l158 229 34 30-51 38-130 203h85l138-216h52v216h78v-226l47 14 139 212h84l-136-203-39-32 51-40 148-225h-95l-147 225h-52v-225h-78v235z"/><glyph unicode="з" horiz-adv-x="441" d="M125 223v65h70q18 0 35.5 6t31.5 16.5 22.5 25 8.5 30.5q0 39-27 55t-81 16q-39 0-71.5-12t-50.5-23l-23 62q30 17 70.5 30t96.5 13q166 0 166-123 0-35-22.5-68.5t-64.5-47.5v-4q59-11 82.5-42t23.5-82q0-32-13-59t-39-47-65.5-31.5-91.5-11.5q-51 0-84.5 9t-60.5 22l23 66q23-13 55.5-20t70.5-7q61 0 93 21t32 64q0 36-30 56.5t-99 20.5h-58z"/><glyph unicode="и" horiz-adv-x="546" d="M389 296l3 62h-3l-41-64-225-294h-46v500h80v-305l-3-59h4l39 62 225 302h47v-500h-80v296z"/><glyph unicode="й" horiz-adv-x="546" d="M77 0zm312 296l3 62h-3l-41-64-225-294h-46v500h80v-305l-3-59h4l39 62 225 302h47v-500h-80v296zm-197 406q10-46 34.5-64t56.5-18 57 19 34 62l60-19q-9-58-51.5-89t-101.5-31q-27 0-53.5 7t-47.5 21-36 36-20 52z"/><glyph unicode="к" horiz-adv-x="478" d="M203 225h-46v-225h-80v500h80v-226l43 14 160 212h87l-155-201-42-33 52-40 167-226h-99z"/><glyph unicode="л" horiz-adv-x="503" d="M346 430h-145q-3-42-6-90.5t-9-97-16-93-25.5-78.5-38-54.5-53.5-20.5q-19 0-33 2t-25 7l12 67q12-4 26-4 20 0 36 17t28 64.5 20 131.5 11 219h298v-500h-80v430z"/><glyph unicode="м" horiz-adv-x="645" d="M490 297l6 95h-5l-36-77-121-196h-28l-126 196-33 77h-4l8-94v-298h-74v500h79l140-224 29-58h2l30 60 131 222h80v-500h-78v297z"/><glyph unicode="н" horiz-adv-x="540" d="M383 221h-226v-221h-80v500h80v-209h226v209h80v-500h-80v221z"/><glyph unicode="о" horiz-adv-x="536" d="M49 0zm0 250q0 127 56.5 194.5t162.5 67.5q56 0 97.5-18.5t68.5-53 40-83 13-107.5q0-127-56.5-194.5t-162.5-67.5q-56 0-97.5 18.5t-68.5 53-40 83-13 107.5zm83 0q0-38 7.5-73t23.5-61 42-42 63-16q136-1 136 192 0 39-7.5 74t-23.5 61-42 41.5-63 15.5q-136 1-136-192z"/><glyph unicode="п" horiz-adv-x="535" d="M378 430h-221v-430h-80v500h381v-500h-80v430z"/><glyph unicode="р" horiz-adv-x="541" d="M77 0zm0 500h55l15-60h4q23 35 59.5 53.5t83.5 18.5q100 0 149-59t49-193q0-63-16.5-113.5t-46.5-85.5-72.5-54-94.5-19q-37 0-58.5 4.5t-46.5 15.5v-208h-80v700zm202-58q-51 0-80.5-26.5t-41.5-80.5v-248q18-14 41-21.5t61-7.5q69 0 109.5 51.5t40.5 151.5q0 41-7 74.5t-22.5 57-40 36.5-60.5 13z"/><glyph unicode="с" horiz-adv-x="451" d="M49 0zm369 33q-30-22-71-33.5t-86-11.5q-58 0-98 18.5t-65.5 53-37 83-11.5 107.5q0 127 56 194.5t161 67.5q48 0 81.5-7.5t60.5-21.5l-23-69q-23 13-51 20.5t-60 7.5q-142 0-142-192 0-38 7.5-72.5t25-61 46-42.5 70.5-16q36 0 64.5 11t46.5 25z"/><glyph unicode="т" horiz-adv-x="397" d="M395 430h-156v-430h-80v430h-156v70h392v-70z"/><glyph unicode="у" horiz-adv-x="466" d="M12 0zm212 176l28-96h5l22 97 97 323h81l-148-449q-17-49-33.5-95t-36.5-82-45-57.5-58-21.5q-36 0-59 10l14 69q13-5 25-5 28 0 54 29.5t43 101.5l-201 500h92z"/><glyph unicode="ф" horiz-adv-x="680" d="M302-4q-17-6-35.5-7t-33.5-1q-91 0-140 64t-49 198q0 128 54 193t156 65q28 0 48-4v196h76v-197q18 3 32 4t27 1q99 0 149-57.5t50-190.5q0-63-13.5-113.5t-39.5-85.5-63.5-54-86.5-19q-9 0-26.5 1.5t-28.5 5.5v-195h-76v196zm120 446q-12 0-21.5-.5t-23.5-4.5v-380q10-2 22.5-2.5t27.5-.5q64 0 96.5 53t32.5 153q0 85-29.5 133.5t-104.5 48.5zm-169-388q12 0 24 1t26 4v379q-12 2-22.5 3t-25.5 1q-62 0-96.5-46.5t-34.5-145.5q0-42 7.5-78t23.5-62.5 40.5-41 57.5-14.5z"/><glyph unicode="х" horiz-adv-x="515" d="M28 0zm180 256l-168 244h98l95-138 28-57 29 57 97 138h90l-169-240 179-260h-95l-106 152-30 60-31-60-108-152h-89z"/><glyph unicode="ц" horiz-adv-x="548" d="M526-127h-54l-15 127h-380v500h80v-430h217v430h80v-430h72v-197z"/><glyph unicode="ч" horiz-adv-x="490" d="M129 500v-136q0-27 3-48.5t12-37 26-24 45-8.5q45 0 74 10t44 22v222h80v-500h-80v210q-16-10-47.5-22t-86.5-12q-37 0-65 8t-47 28-28.5 53-9.5 83v152h80z"/><glyph unicode="ш" horiz-adv-x="736" d="M77 0v500h80v-430h171v430h80v-430h171v430h80v-500h-582z"/><glyph unicode="щ" horiz-adv-x="753" d="M731-130h-54l-15 130h-585v500h80v-430h171v430h80v-430h171v430h80v-430h72v-200z"/><glyph unicode="ъ" horiz-adv-x="497" d="M191 70q39-6 70-6 63 0 93 24.5t30 69.5q0 40-29 66t-91 26q-17 0-36-1t-37-6v-173zm0 239q24 4 45.5 5.5t41.5 1.5q52 0 88-11.5t58.5-31.5 32.5-47.5 10-58.5q0-91-54.5-132t-169.5-41q-33 0-65 1.5t-67 4.5v430h-110v70h190v-191z"/><glyph unicode="ы" horiz-adv-x="660" d="M157 70q37-6 71-6 63 0 88 24.5t25 69.5q0 40-24.5 66t-85.5 26q-17 0-37-1t-37-6v-173zm0 239q24 4 46 5.5t42 1.5q51 0 85.5-11.5t55.5-31.5 29.5-47.5 8.5-58.5q0-91-50.5-132t-163.5-41q-64 0-133 6v500h80v-191zm346 191h80v-500h-80v500z"/><glyph unicode="ь" horiz-adv-x="464" d="M157 70q37-6 71-6 63 0 93 24.5t30 69.5q0 40-29 66t-91 26q-17 0-37-1t-37-6v-173zm0 239q24 4 46 5.5t42 1.5q52 0 88-11.5t58.5-31.5 32.5-47.5 10-58.5q0-91-54.5-132t-169.5-41q-64 0-133 6v500h80v-191z"/><glyph unicode="э" horiz-adv-x="465" d="M121 285h212q-5 71-41.5 114t-103.5 43q-41 0-71.5-11t-49.5-24l-28 61q31 21 71 32.5t93 11.5q111 0 162-69t51-193q0-128-59-195t-164-67q-47 0-86.5 7.5t-66.5 22.5l23 68q23-13 56.5-20.5t65.5-7.5q140-1 149 161h-213v66z"/><glyph unicode="ю" horiz-adv-x="719" d="M465-12q-54 0-92.5 16.5t-63 47-37 74-15.5 95.5h-100v-221h-80v500h80v-209h101q8 107 58.5 164t150.5 57q55 0 93.5-18.5t63-53 35.5-83 11-107.5q0-127-50.5-194.5t-154.5-67.5zm-129 262q0-39 6-74t21-61.5 40.5-41.5 63.5-15q64 0 92 46.5t28 145.5q0 39-5.5 74t-19.5 61.5-37 41.5-59 15q-69 0-99.5-46.5t-30.5-145.5z"/><glyph unicode="я" horiz-adv-x="475" d="M326 207l-77-12-132-195h-97l120 171 40 37q-52 8-88.5 42t-36.5 92q0 45 15.5 77t44.5 53 69 30.5 90 9.5q37 0 69-5t63-11v-496h-80v207zm0 225q-13 5-29 7.5t-28 2.5q-64 0-97.5-23t-33.5-73q0-45 35.5-69.5t93.5-24.5h11l17 .5 31 1.5v178z"/><glyph unicode="ё" horiz-adv-x="508" d="M49 0zm393 40q-30-24-75.5-38t-96.5-14q-57 0-99 18.5t-69 53-40 82.5-13 108q0 128 57 195t163 67q34 0 68-7.5t61-28.5 44-59.5 17-101.5q0-33-6-73h-321q0-44 9-78t28-57.5 49.5-36 74.5-12.5q34 0 68 12t51 28zm-172 402q-59 0-94.5-31t-42.5-106h248q0 76-29 106.5t-82 30.5zm-151 192q0 23 13.5 37t35.5 14 35.5-14 13.5-37q0-21-13.5-35t-35.5-14-35.5 14-13.5 35zm192 0q0 23 13.5 37t35.5 14q23 0 36.5-14t13.5-37q0-21-13.5-35t-36.5-14q-22 0-35.5 14t-13.5 35z"/><glyph unicode="ђ" horiz-adv-x="548" d="M-2 500h80v200h80v-200h160v-60h-160v-148h4q26 31 62.5 49.5t90.5 18.5q42 0 73-9.5t51.5-33.5 30-64.5 9.5-102.5v-177q0-93-32-139t-102-46q-8 0-15 .5t-15 1.5v68q28 0 44.5 8.5t25.5 26 11.5 44.5 2.5 63v132q0 39-4.5 69t-16.5 49.5-32.5 29.5-53.5 10q-47 0-85-30.5t-49-78.5v-181h-80v440h-80v60z"/><glyph unicode="ѓ" horiz-adv-x="369" d="M77 0zm292 430h-212v-430h-80v500h292v-70zm-129 290h89v-21l-101-128h-47z"/><glyph unicode="є" horiz-adv-x="472" d="M438 33q-30-22-73-33.5t-88-11.5q-58 0-100.5 18.5t-71 53-42.5 83-14 107.5q0 63 17 112t47.5 82 73.5 50.5 95 17.5q48 0 84-7.5t63-21.5l-23-69q-23 13-53.5 20.5t-62.5 7.5q-69 1-110.5-38.5t-49.5-117.5h236v-66h-237q3-33 14.5-63t32-52 50.5-34.5 72-12.5q35 0 65.5 11t48.5 25z"/><glyph unicode="ѕ" horiz-adv-x="421" d="M39 0zm258 136q0 30-18 47t-44.5 28.5-58 22-58 27-44.5 42.5-18 70q0 72 41 105.5t114 33.5q54 0 90.5-9.5t63.5-22.5l-19-66q-23 11-55.5 19.5t-69.5 8.5q-44 0-64.5-15t-20.5-52q0-26 18-40.5t44.5-26 58-22.5 58-29 44.5-45.5 18-72.5q0-32-10.5-60t-32.5-48-54.5-31.5-76.5-11.5q-57 0-97 11t-67 26l24 68q23-13 60-24t75-11q43 0 71 17t28 61z"/><glyph unicode="і" horiz-adv-x="268" d="M77 0zm17 500h80v-500h-80v500zm-17 152q0 23 15.5 39.5t39.5 16.5 41-16.5 17-39.5-17-38-41-15-39.5 15-15.5 38z"/><glyph unicode="ї" horiz-adv-x="278" d="M29 633q0 23 12.5 36.5t35.5 13.5q22 0 35-13.5t13-36.5q0-21-13-35t-35-14q-23 0-35.5 14t-12.5 35zm125 0q0 23 12.5 36.5t34.5 13.5q23 0 36-13.5t13-36.5q0-21-13-35t-36-14q-22 0-34.5 14t-12.5 35zm-56-133h80v-500h-80v500z"/><glyph unicode="ј" horiz-adv-x="267" d="M9 0zm84 500h80v-527q0-93-32-139t-102-46q-8 0-15 .5t-15 1.5v68q28 0 44.5 8.5t25.5 26.5 11.5 45.5 2.5 64.5v497zm-17 152q0 23 15.5 39.5t39.5 16.5 41-16.5 17-39.5-17-38-41-15-39.5 15-15.5 38z"/><glyph unicode="љ" horiz-adv-x="733" d="M426 309q24 4 46 5.5t42 1.5q52 0 88-11.5t58.5-31.5 32.5-47.5 10-58.5q0-91-54.5-132t-169.5-41q-64 0-133 6v430h-145q-3-42-6-90.5t-9-97-16-93-25.5-78.5-38-54.5-53.5-20.5q-19 0-33 2t-25 7l12 67q12-4 26-4 20 0 36 17t28 64.5 20 131.5 11 219h298v-191zm0-240q37-6 71-6 63 0 93 25t30 70q0 40-29 66t-91 26q-17 0-37-1t-37-6v-174z"/><glyph unicode="њ" horiz-adv-x="770" d="M463 70q37-6 71-6 63 0 93 24.5t30 69.5q0 40-29 66t-91 26q-17 0-36.5-1.5t-37.5-5.5v-173zm0 239q24 4 46 5.5t42 1.5q52 0 88-11.5t58.5-31.5 32.5-47.5 10-58.5q0-91-54.5-132t-169.5-41q-64 0-133 6v223h-226v-223h-80v500h80v-207h226v207h80v-191z"/><glyph unicode="ћ" horiz-adv-x="548" d="M-2 500h80v200h80v-200h160v-60h-160v-148h4q26 31 62.5 49.5t90.5 18.5q42 0 73-9.5t51.5-33.5 30-64.5 9.5-102.5v-150h-80v132q0 39-4.5 69t-16.5 49.5-32.5 29.5-53.5 10q-47 0-85-30.5t-49-78.5v-181h-80v440h-80v60z"/><glyph unicode="ќ" horiz-adv-x="478" d="M77 0zm126 225h-46v-225h-80v500h80v-226l43 14 160 212h87l-155-201-42-33 52-40 167-226h-99zm53 495h89v-21l-101-128h-47z"/><glyph unicode="ў" horiz-adv-x="466" d="M12 0zm212 176l28-96h5l22 97 97 323h81l-148-449q-17-49-33.5-95t-36.5-82-45-57.5-58-21.5q-36 0-59 10l14 69q13-5 25-5 28 0 54 29.5t43 101.5l-201 500h92zm-67 526q10-46 34.5-64t56.5-18 57 19 34 62l60-19q-9-58-51.5-89t-101.5-31q-27 0-53.5 7t-47.5 21-36 36-20 52z"/><glyph unicode="џ" horiz-adv-x="535" d="M77 0v500h80v-430h221v430h80v-500h-146l-15-179h-52l-20 179h-148z"/><glyph unicode="Ѣ" horiz-adv-x="619" d="M0 620h149v101h83v-101h207v-70h-207v-123q5 1 17 2.5t26 2.5 29 2 27 1q48 0 93.5-9.5t81-33 57.5-64 22-102.5q0-60-21-104t-58-73-86.5-43-107.5-14q-14 0-34 .5t-42.5 2-45 4.5-41.5 8v543h-149v70zm323-556q36 0 67.5 9.5t55.5 29 37.5 49 13.5 68.5q0 42-15 70t-39.5 44-56.5 22.5-66 6.5q-9 0-22-1l-26-2-24-3-16-3v-284q14-3 40-4.5t51-1.5z"/><glyph unicode="ѣ" horiz-adv-x="497" d="M1 500h109v200h80v-200h160v-66h-160v-125q24 4 46 5.5t42 1.5q52 0 88-11.5t58.5-31.5 32.5-47.5 10-58.5q0-91-54.5-132t-169.5-41q-64 0-133 6v434h-109v66zm189-430q39-6 71-6 63 0 93 24.5t30 69.5q0 40-29 66t-91 26q-17 0-36.5-1t-37.5-6v-173z"/><glyph unicode="Ѳ" horiz-adv-x="684" d="M56 350q0 175 74 268.5t211 93.5q74 0 128-26t89.5-73.5 52.5-114 17-148.5q0-175-74.5-268.5t-212.5-93.5q-73 0-126.5 26t-89 73.5-52.5 114-17 148.5zm484 42q-8 119-62.5 182.5t-136.5 63.5q-36 0-70-12.5t-61-41.5-44.5-76-21.5-116h396zm-396-74q8-129 62.5-192.5t134.5-63.5q37 0 72 12t62 41.5 44.5 78.5 20.5 124h-396z"/><glyph unicode="ѳ" horiz-adv-x="536" d="M49 250q0 127 56.5 194.5t162.5 67.5q56 0 97.5-18.5t68.5-53 40-83 13-107.5q0-127-56.5-194.5t-162.5-67.5q-56 0-97.5 18.5t-68.5 53-40 83-13 107.5zm355 31q-8 85-43.5 123t-92.5 38q-26 0-49.5-8t-42-27-30.5-50-14-76h272zm-272-64q5-78 43-118.5t93-40.5q25 0 48.5 8t42 26 30.5 48.5 15 76.5h-272z"/><glyph unicode="Ѵ" horiz-adv-x="598" d="M304-11h-37l-269 711h90l178-481 24-106h2l16 108q19 66 39.5 132.5t41.5 138.5q23 78 43.5 121.5t41.5 64 43 25 48 4.5q35 0 55-5.5t37-16.5l-24-70q-20 11-37.5 14.5t-31.5 3.5q-28 0-47-26t-39-87z"/><glyph unicode="ѵ" horiz-adv-x="507" d="M261-11h-34l-217 511h92l120-293 28-95h1l25 97q14 36 22.5 57t13 33 6.5 17 4 9q16 43 30 76.5t30.5 57 38 36 51.5 12.5q18 0 32-2t26-7l-12-74q-9 4-17.5 6.5t-16.5 2.5q-17 0-34-15t-37-62z"/><glyph unicode="Ҋ" horiz-adv-x="690" d="M513 474l6 80h-4l-43-82-338-472h-49v700h83v-480l-7-79h4l44 82 338 477h49v-630h104v-22l-91-178h-54l45 130h-87v474zm-257 396q4-37 28-57t64-20 63.5 20 28.5 56l71-17q-11-54-50.5-85.5t-113.5-31.5q-71 0-116.5 27.5t-53.5 87.5z"/><glyph unicode="ҋ" horiz-adv-x="561" d="M389 296l3 62h-3l-41-64-225-294h-46v500h80v-305l-3-59h4l39 62 225 302h47v-430h100v-22l-91-178h-54l45 130h-80v296zm-197 406q10-46 34.5-64t56.5-18 57 19 34 62l60-19q-9-58-51.5-89t-101.5-31q-27 0-53.5 7t-47.5 21-36 36-20 52z"/><glyph unicode="Ҍ" horiz-adv-x="561" d="M0 700h91v80h83v-80h146v-62h-146v-210q5 1 17 2.5t26 2.5 29 2 27 1q48 0 93.5-9.5t81-33.5 57.5-64.5 22-102.5q0-60-21-104t-58-73-86.5-43-107.5-14q-14 0-34 .5t-42.5 2-45 4.5-41.5 8v631h-91v62zm265-636q36 0 67.5 9.5t55.5 29 37.5 49 13.5 68.5q0 42-15 70t-39.5 44.5-56.5 23-66 6.5q-9 0-22-1l-26-2-24-3-16-3v-285q14-3 40-4.5t51-1.5z"/><glyph unicode="ҍ" horiz-adv-x="497" d="M1 0zm0 500h109v200h80v-200h160v-66h-160v-125q24 4 46 5.5t42 1.5q52 0 88-11.5t58.5-31.5 32.5-47.5 10-58.5q0-91-54.5-132t-169.5-41q-64 0-133 6v434h-109v66zm189-430q39-6 71-6 63 0 93 24.5t30 69.5q0 40-29 66t-91 26q-17 0-36.5-1t-37.5-6v-173z"/><glyph unicode="Ҏ" horiz-adv-x="559" d="M85 693q38 9 82 12t87 3q46 0 93.5-9t86.5-33 63.5-66 24.5-107q0-75-31.5-123t-81.5-74l68-98-46-33-77 110q-48-13-104-13h-16.5l-24 .5-24.5 1.5-17 2v-266h-83v693zm206-231l71-103q32 17 52 48.5t20 85.5q0 41-15.5 68.5t-41 44-57.5 23.5-64 7q-26 0-50-1t-38-5v-290q5-2 16-2.5t23-1 23-.5h16q17 0 33 1t33 5l-64 93z"/><glyph unicode="ҏ" horiz-adv-x="541" d="M77 500h55l15-60h4q23 35 59.5 53.5t83.5 18.5q100 0 149-59t49-193q0-75-22-131t-63-91l53-62-42-37-59 69q-43-20-97-20-37 0-58.5 4.5t-46.5 15.5v-208h-80v700zm220-337l58-69q26 26 40 67.5t14 99.5q0 41-7 74.5t-22.5 57.5-40 36.5-60.5 12.5q-51 0-80.5-26.5t-41.5-80.5v-249q18-14 41-21t61-7q31-1 54 9l-55 65z"/><glyph unicode="Ґ" horiz-adv-x="442" d="M460 626h-292v-626h-83v700h303l16 134h56v-208z"/><glyph unicode="ґ" horiz-adv-x="369" d="M157 430v-430h-80v500h220l16 134h56v-204h-212z"/><glyph unicode="Ғ" horiz-adv-x="482" d="M481 626h-292v-241h215v-66h-215v-319h-83v319h-96v66h96v315h375v-74z"/><glyph unicode="ғ" horiz-adv-x="385" d="M382 430h-212v-151h169v-60h-169v-219h-80v219h-90v60h90v221h292v-70z"/><glyph unicode="Ҕ" horiz-adv-x="577" d="M168 0h-83v700h375v-74h-292v-271q12 4 47.5 12.5t90.5 8.5q40 0 78.5-11t69-38 49-73.5 18.5-117.5q0-137-60.5-200.5t-172.5-63.5q-33 0-47.5.5t-22.5 2.5v74q13-2 28.5-2.5t44.5-.5q142 0 142 183 0 51-12 84.5t-32.5 54-48 28.5-59.5 8q-18 0-35.5-2.5t-33-6-27-7.5-17.5-6v-282z"/><glyph unicode="ҕ" horiz-adv-x="535" d="M157 0h-80v500h291v-70h-211v-178q11 5 41 13t84 8q40 0 76-11.5t63-38 43-70 16-108.5q0-131-52.5-192.5t-164.5-61.5q-33 0-47.5.5t-22.5 2.5v70q13-2 28.5-2.5t44.5-.5q70 0 102 45.5t32 128.5q0 89-39 128.5t-101 39.5q-36 0-64-8t-39-13v-182z"/><glyph unicode="Җ" horiz-adv-x="819" d="M358 700h80v-326l43 14 203 312h92l-202-304-40-32 50-41 172-249h58v-203h-58l-15 129h-36l-221 324h-46v-324h-80v336l-42-14-221-322h-96l221 313 48 38-46 35-209 314h97l203-314h45v314z"/><glyph unicode="җ" horiz-adv-x="693" d="M240 221l-147-221h-92l158 229 34 30-51 38-130 203h85l138-216h52v216h78v-226l47 14 139 212h84l-136-203-39-32 51-40 102-155h75v-197h-54l-15 127h-55l-147 225h-52v-225h-78v235z"/><glyph unicode="Ҙ" horiz-adv-x="541" d="M139 331v70h38l26.5 1 26 1.5 20.5 2.5q26 4 49 13.5t40 24.5 27 35 10 44q0 33-11 55t-30.5 35.5-45 19-54.5 5.5q-54 0-92-7.5t-61-18.5l-22 66q20 11 72 22.5t117 11.5q40 0 78.5-8.5t69-28 49-53 18.5-82.5q0-50-33-95.5t-99-65.5v-4q71-10 112-53t41-115q0-52-18.5-90.5t-49-65-71-42-84.5-19.5l-14-169h-52l-19 168q-46 2-78 9t-55 16l21 75q23-11 64.5-18.5t100.5-7.5q31 0 61 8.5t53.5 25.5 38 43 14.5 62q0 63-44 92.5t-115 34.5q-12 1-22.5 1.5t-21.5.5h-55z"/><glyph unicode="ҙ" horiz-adv-x="441" d="M125 223v65h70q18 0 35.5 6t31.5 16.5 22.5 25 8.5 30.5q0 39-27 55t-81 16q-39 0-71.5-12t-50.5-23l-23 62q30 17 70.5 30t96.5 13q166 0 166-123 0-35-22.5-68.5t-64.5-47.5v-4q59-11 82.5-42t23.5-82q0-54-37.5-93.5t-113.5-51.5l-14-174h-52l-19 171q-40 2-67.5 10.5t-50.5 19.5l23 66q23-13 55.5-20t70.5-7q61 0 93 21t32 64q0 36-30 56.5t-99 20.5h-58z"/><glyph unicode="Қ" horiz-adv-x="615" d="M215 324h-47v-324h-83v700h83v-326l45 14 235 312h96l-234-301-42-33 51-40 198-252h89v-203h-58l-15 129h-63z"/><glyph unicode="қ" horiz-adv-x="506" d="M203 225h-46v-225h-80v500h80v-226l43 14 160 212h87l-155-201-42-33 52-40 115-156h79v-197h-54l-15 127h-57z"/><glyph unicode="Ҝ" horiz-adv-x="685" d="M222 324h-54v-324h-83v700h83v-326l54 5v126h66v-119l23 2 214 312h95l-216-301-41-33 50-40 237-326h-104l-232 324h-26v-129h-66v129z"/><glyph unicode="ҝ" horiz-adv-x="541" d="M205 225h-48v-225h-80v500h80v-226l48 5v123h63v-117l26 3 131 212h84l-126-201-44-33 52-40 138-226h-94l-138 225h-29v-127h-63v127z"/><glyph unicode="Ҟ" horiz-adv-x="664" d="M0 636h139v64h83v-64h122v-66h-122v-196l49 14 232 312h95l-231-301-44-33 52-40 254-326h-106l-252 324h-49v-324h-83v568h-139v68z"/><glyph unicode="ҟ" horiz-adv-x="481" d="M-2 613h81v87h80v-87h159v-60h-159v-279l41 14 155 212h93l-153-201-41-33 50-40 167-226h-99l-167 225h-46v-225h-80v553h-81v60z"/><glyph unicode="Ҡ" horiz-adv-x="685" d="M161 626h-161v74h244v-326l44 14 235 312h97l-235-301-41-33 50-40 257-326h-106l-255 324h-46v-324h-83v626z"/><glyph unicode="ҡ" horiz-adv-x="512" d="M191 274l42 14 161 212h86l-155-201-41-33 52-40 167-226h-99l-167 225h-46v-225h-80v430h-110v70h190v-226z"/><glyph unicode="Ң" horiz-adv-x="707" d="M85 0zm419 321h-336v-321h-83v700h83v-305h336v305h83v-626h92v-203h-58l-15 129h-102v321z"/><glyph unicode="ң" horiz-adv-x="546" d="M383 221h-226v-221h-80v500h80v-209h226v209h80v-430h73v-197h-54l-15 127h-84v221z"/><glyph unicode="Ҥ" horiz-adv-x="861" d="M879 626h-292v-626h-83v321h-336v-321h-83v700h83v-305h336v305h375v-74z"/><glyph unicode="ҥ" horiz-adv-x="675" d="M675 430h-212v-430h-80v221h-226v-221h-80v500h80v-209h226v209h292v-70z"/><glyph unicode="Ҧ" horiz-adv-x="983" d="M574 0h-83v626h-323v-626h-83v700h489v-345q11 4 47 12.5t91 8.5q40 0 79-11t69.5-38 49-73.5 18.5-117.5q0-137-61-200.5t-173-63.5q-33 0-47.5.5t-22.5 2.5v74q13-2 28.5-2.5t44.5-.5q70 0 106.5 45.5t36.5 137.5q0 51-12 84.5t-32.5 54-48.5 28.5-59 8q-18 0-36-2.5t-33.5-6-27.5-7.5-17-6v-282z"/><glyph unicode="ҧ" horiz-adv-x="836" d="M458 0h-80v430h-221v-430h-80v500h381v-248q11 5 41 13t84 8q39 0 74.5-11.5t63-38 43.5-70 16-108.5q0-131-52-192.5t-164-61.5q-33 0-47.5.5t-22.5 2.5v70q13-2 28.5-2.5t44.5-.5q70 0 101.5 45.5t31.5 128.5q0 89-38.5 128.5t-100.5 39.5q-36 0-64-8t-39-13v-182z"/><glyph unicode="Ҩ" horiz-adv-x="811" d="M353 638q-47 0-85-17.5t-66-53-43-89.5-15-127q0-59 17-112t47.5-93 72.5-64 93-24q11 0 24.5 1t23.5 5q-32 19-57 51t-42.5 71.5-27 84.5-9.5 91q0 78 18 137t49 99.5 73 61 91 20.5q111 0 168-74.5t57-207.5q0-62-12.5-115t-34-96.5-50-75.5-60.5-51q5-1 10.5-1h10.5q38 0 67 8t48 22l25-65q-19-15-47-25.5t-81-10.5q-32 0-64 8t-54 22q-26-15-58.5-22.5t-67.5-7.5q-74 0-133 26t-100 73-63 114-22 149q0 87 20.5 154.5t58.5 113.5 93.5 70 124.5 24v-74zm21-284q0-35 8.5-73.5t25-75 41.5-67.5 59-50q27 15 53 42.5t46.5 66.5 33.5 88 13 107q0 45-7.5 84t-23 68-41 45.5-61.5 16.5q-29 0-55.5-14.5t-46.5-45-32.5-78.5-12.5-114z"/><glyph unicode="ҩ" horiz-adv-x="660" d="M269 442q-137-1-137-191 0-39 9.5-74t29.5-62 49.5-42 70.5-15q11 0 25.5 2t24.5 8q-36 22-61 72t-25 113q0 44 8.5 88t29 79.5 55.5 57.5 88 22q46 0 78.5-17t53-46 30-68 9.5-84q0-40-10-76t-26.5-65.5-38-51-43.5-31.5q15-7 38-7 20 0 41 7.5t38 25.5l25-60q-18-17-48.5-28t-66.5-11q-28 0-56.5 9t-46.5 27q-30-21-66-28.5t-68-7.5q-55 0-98 18.5t-72 53-44.5 83-15.5 107.5q0 125 55.5 193t164.5 69v-70zm69-186q0-57 22.5-104.5t60.5-73.5q21 10 39.5 29.5t32.5 46.5 22.5 60 8.5 71q0 27-5.5 53t-16.5 46.5-27.5 33-39.5 12.5q-30 0-49-15t-29.5-39.5-14.5-56-4-63.5z"/><glyph unicode="Ҫ" horiz-adv-x="571" d="M533 29q-26-20-63-29t-80-11l-14-168h-52l-19 172q-53 8-98.5 33t-79 69-52.5 107.5-19 147.5q0 98 26.5 166.5t70 112 97.5 63.5 110 20q60 0 98-6.5t65-17.5l-20-73q-48 23-137 23-41 0-81-15t-71.5-49-50.5-89-19-135q0-72 18-126t49.5-90 74-53.5 92.5-17.5q45 0 78.5 8.5t56.5 22.5z"/><glyph unicode="ҫ" horiz-adv-x="451" d="M418 33q-44-32-109-41l-14-171h-52l-19 169q-48 6-81 27t-54 54.5-30.5 79-9.5 99.5q0 127 56 194.5t161 67.5q48 0 81.5-7.5t60.5-21.5l-23-69q-23 13-51 20.5t-60 7.5q-142 0-142-192 0-38 7.5-72.5t25-61 46-42.5 70.5-16q36 0 64.5 11t46.5 25z"/><glyph unicode="Ҭ" horiz-adv-x="555" d="M236 626h-218v74h519v-74h-218v-552h92v-203h-58l-15 129h-102v626z"/><glyph unicode="ҭ" horiz-adv-x="397" d="M159 430h-157v70h393v-70h-156v-360h74v-197h-54l-15 127h-85v430z"/><glyph unicode="Ү" horiz-adv-x="558" d="M8 0zm231 278l-231 422h97l164-306 17-61h1l18 63 157 304h89l-229-421v-279h-83v278z"/><glyph unicode="ү" horiz-adv-x="484" d="M10 500h92l122-324 28-106h1l25 108 110 322h86l-187-500v-200h-80v200z"/><glyph unicode="Ұ" horiz-adv-x="558" d="M89 285h146l-227 415h97l164-306 17-61h1l18 63 157 304h89l-225-415h146v-62h-150v-223h-83v223h-150v62z"/><glyph unicode="ұ" horiz-adv-x="484" d="M84 0h123l-197 500h92l122-324 28-106h1l25 108 110 322h86l-187-500h117v-60h-117v-140h-80v140h-123v60z"/><glyph unicode="Ҳ" horiz-adv-x="648" d="M259 356l-213 344h100l142-237 25-57 24 57 150 237h92l-220-337 183-289h97v-203h-58l-15 129h-74l-158 251-27 60-26-60-162-251h-93z"/><glyph unicode="ҳ" horiz-adv-x="525" d="M208 256l-168 244h98l95-138 28-57 29 57 97 138h90l-169-240 131-190h76v-197h-54l-15 127h-54l-106 152-30 60-31-60-108-152h-89z"/><glyph unicode="Ҵ" horiz-adv-x="838" d="M809-129h-57l-15 129h-501v626h-218v74h483v-74h-182v-552h315v626h83v-626h92v-203z"/><glyph unicode="ҵ" horiz-adv-x="630" d="M607-127h-54l-15 127h-380v430h-156v70h386v-70h-150v-360h217v430h80v-430h72v-197z"/><glyph unicode="Ҷ" horiz-adv-x="639" d="M437 302q-27-15-71-30t-101-15q-42 0-77 9.5t-60 32-39 60.5-14 94v247h83v-232q0-137 124-137 47 0 88 12.5t67 33.5v323h83v-626h92v-203h-58l-15 129h-102v302z"/><glyph unicode="ҷ" horiz-adv-x="509" d="M333 210q-16-10-47.5-22t-86.5-12q-37 0-65 8t-47 28-28.5 53-9.5 83v152h80v-136q0-27 3-48.5t12-37.5 26-24 45-8q45 0 74 10t44 22v222h80v-430h74v-197h-54l-15 127h-85v210z"/><glyph unicode="Ҹ" horiz-adv-x="613" d="M271 257q-45 0-81.5 9.5t-62 32-39 60.5-13.5 94v247h83v-232q0-131 113-137v124h66v-120q32 5 60 16t48 26v323h83v-700h-83v302q-19-11-46.5-21t-61.5-17v-119h-66v112z"/><glyph unicode="ҹ" horiz-adv-x="497" d="M205 176q-39 0-68.5 8t-49 28-29 53-9.5 83v152h80v-136q0-25 2.5-46t10.5-36.5 23-24.5 40-11v127h63v-123q26 5 44 12.5t28 15.5v222h80v-500h-80v210q-10-7-28-15t-44-13v-114h-63v108z"/><glyph unicode="Һ" horiz-adv-x="605" d="M448 0v232q0 137-124 137-48 0-89-12.5t-67-33.5v-323h-83v700h83v-302q27 15 71.5 30t100.5 15q42 0 77.5-9.5t60.5-32 39-60.5 14-94v-247h-83z"/><glyph unicode="һ" horiz-adv-x="547" d="M77 0zm321 0v285q0 39-4.5 68.5t-16.5 49-32.5 29.5-53.5 10q-47 0-85-30.5t-49-78.5v-333h-80v700h80v-256h4q26 31 62.5 49.5t90.5 18.5q42 0 73-9.5t51.5-33.5 30-64.5 9.5-102.5v-302h-80z"/><glyph unicode="Ҽ" horiz-adv-x="774" d="M274 318q8-131 65-193.5t166-62.5q45 0 83.5 13.5t63.5 28.5l22-67q-32-20-77.5-34.5t-107.5-14.5q-66 0-119.5 19t-92.5 59.5-61.5 102.5-25.5 149h-37q-84 0-118 34.5t-34 88.5q0 29 7.5 46.5t20.5 30.5h78q-16-13-22-33t-6-35q0-12 3-23.5t12-20.5 26-14.5 45-5.5h12l13 1q7 156 77 240.5t198 84.5q125 0 189-75t64-212q0-50-9-107h-435zm357 70q2 14 3 27t1 26q0 40-10 76t-30.5 64-52.5 44.5-76 16.5q-93 0-140.5-67t-52.5-187h358z"/><glyph unicode="ҽ" horiz-adv-x="617" d="M551 40q-30-24-75.5-38t-96.5-14q-56 0-97.5 18t-68.5 51-40.5 79.5-14.5 104.5h-12q-36 0-62 9.5t-43 25.5-25 38-8 47q0 30 10 51t31 42h78q-20-14-33.5-35t-13.5-53q0-11 3.5-21.5t11.5-19 21.5-14 33.5-5.5q7 0 11 1 12 100 67.5 152.5t149.5 52.5q34 0 68-7.5t61-28.5 44-59.5 17-101.5q0-33-6-73h-321q0-44 9-78t28-58 49.5-36 74.5-12q34 0 68 12t51 28zm-172 402q-59 0-94.5-31t-42.5-106h248q0 76-29 106.5t-82 30.5z"/><glyph unicode="Ҿ" horiz-adv-x="774" d="M274 318q8-131 65-193.5t166-61.5q45 0 83.5 13t63.5 28l22-67q-29-18-69-32t-94-16l-14-168h-52l-19 172q-105 16-167.5 94.5t-68.5 230.5h-37q-84 0-118 34.5t-34 88.5q0 29 7.5 46.5t20.5 30.5h78q-16-13-22-33t-6-35q0-12 3-23.5t12-20.5 26-14.5 45-5.5h12l13 1q7 156 77 240.5t198 84.5q125 0 189-75t64-212q0-50-9-107h-435zm357 70q2 14 3 27t1 26q0 40-10 76t-30.5 64-52.5 44.5-76 16.5q-93 0-140.5-67t-52.5-187h358z"/><glyph unicode="ҿ" horiz-adv-x="617" d="M551 40q-25-20-59-32t-74-17l-14-170h-52l-19 171q-89 14-131 79.5t-44 169.5h-12q-36 0-62 9.5t-43 25.5-25 38-8 47q0 32 10 52t31 41h78q-20-14-33.5-35t-13.5-53q0-11 3.5-21.5t11.5-19 21.5-14 33.5-5.5q7 0 11 1 12 100 67.5 152.5t149.5 52.5q34 0 68-7.5t61-28.5 44-59.5 17-101.5q0-33-6-73h-321q0-44 9-78t28-58 49.5-36.5 74.5-12.5q34 0 68 12t51 28zm-172 402q-59 0-94.5-31t-42.5-106h248q0 76-29 106.5t-82 30.5z"/><glyph unicode="Ӏ" horiz-adv-x="291" d="M104 0zm0 700h83v-700h-83v700z"/><glyph unicode="Ӄ" horiz-adv-x="600" d="M441 71q0 68-13.5 116t-41.5 78.5-70.5 44.5-100.5 14h-47v-324h-83v700h83v-326l45 14 235 312h96l-224-286-57-38h63q53-12 90.5-34t61.5-57.5 35-87 11-123.5v-18q0-72-13.5-123t-39-83-61.5-46.5-81-14.5h-13.5l-14.5 1v73q40 0 66.5 11t43 35.5 23.5 64 7 97.5z"/><glyph unicode="ӄ" horiz-adv-x="481" d="M361 16q0 105-42 152.5t-116 47.5h-46v-216h-80v500h80v-235l43 14 160 221h87l-156-210-36-26 44-6q45-10 72.5-34t43-56.5 21-72 5.5-79.5q0-61-13.5-104.5t-37-71.5-56-41-70.5-13h-16.5l-17.5 2v69q5-1 9-1h9q54 0 83.5 41t29.5 119z"/><glyph unicode="Ӆ" horiz-adv-x="622" d="M456 626h-209q-10-200-26.5-332.5t-49.5-206.5q-22-48-52-70t-65-22q-18 0-31 2.5t-25 7.5l11 72q10-3 21-3 17 0 33.5 11t32.5 41q14 27 26.5 72t22 114 15.5 164.5 9 223.5h370v-630h93v-22l-91-178h-54l45 130h-76v626z"/><glyph unicode="ӆ" horiz-adv-x="516" d="M346 430h-145q-3-42-6-90.5t-9-97-16-93-25.5-78.5-38-54.5-53.5-20.5q-36 0-58 9l12 67q12-4 26-4 20 0 36 17t28 64.5 20 131.5 11 219h298v-430h100v-22l-91-178h-54l45 130h-80v430z"/><glyph unicode="Ӈ" horiz-adv-x="672" d="M587-27q0-93-31.5-139t-101.5-46h-15.5l-15.5 2v70q28 0 44.5 8.5t24.5 25 10 43.5 2 63v321h-336v-321h-83v700h83v-305h336v305h83v-727z"/><glyph unicode="ӈ" horiz-adv-x="540" d="M383 221h-226v-221h-80v500h80v-209h226v209h80v-527q0-93-32-139t-102-46q-8 0-15 .5t-15 1.5v68q28 0 44.5 8.5t25.5 26 11.5 44.5 2.5 63v221z"/><glyph unicode="Ӊ" horiz-adv-x="681" d="M504 321h-336v-321h-83v700h83v-305h336v305h83v-630h104v-22l-91-178h-54l45 130h-87v321z"/><glyph unicode="ӊ" horiz-adv-x="556" d="M383 221h-226v-221h-80v500h80v-209h226v209h80v-430h100v-22l-91-178h-54l45 130h-80v221z"/><glyph unicode="Ӌ" horiz-adv-x="605" d="M158 700v-232q0-137 124-137 47 0 88 12.5t67 33.5v323h83v-700h-102l-15-129h-58v203h92v228q-27-15-71-30t-101-15q-42 0-77 9.5t-60 32-39 60.5-14 94v247h83z"/><glyph unicode="ӌ" horiz-adv-x="490" d="M333 212q-16-10-47.5-21.5t-86.5-11.5q-37 0-65 8.5t-47 28-28.5 52.5-9.5 82v150h80v-134q0-26 3-47.5t12-37.5 26-24 45-8q45 0 74 10t44 22v219h80v-500h-88l-15-127h-54v194h77v145z"/><glyph unicode="Ӎ" horiz-adv-x="801" d="M623 470l10 105h-5l-38-96-182-316h-25l-193 317-36 95h-5l14-104v-471h-78v700h62l219-358 33-78h2l31 80 209 356h65v-630h104v-22l-91-178h-54l45 130h-87v470z"/><glyph unicode="ӎ" horiz-adv-x="661" d="M490 297l6 95h-5l-36-77-121-196h-28l-126 196-33 77h-4l8-94v-298h-74v500h79l140-224 29-58h2l30 60 131 222h80v-430h100v-22l-91-178h-54l45 130h-78v297z"/><glyph unicode="ӏ" horiz-adv-x="254" d="M87 0zm0 700h80v-700h-80v700z"/><glyph unicode="Ӑ" horiz-adv-x="585" d="M8 0zm410 194h-258l-70-194h-82l265 711h38l266-711h-87zm-231 72h206l-78 213-25 106h-1l-25-108zm14 604q4-37 28-57t64-20 63.5 20 28.5 56l71-17q-11-54-50.5-85.5t-113.5-31.5q-71 0-116.5 27.5t-53.5 87.5z"/><glyph unicode="ӑ" horiz-adv-x="496" d="M39 0zm30 463q38 23 88.5 34t105.5 11q52 0 83.5-14t48-36.5 22-49.5 5.5-54q0-60-3-117t-3-108q0-37 3-70t11-61h-59l-21 70h-5q-9-14-22.5-27.5t-32.5-24-44-17.5-57-7-59.5 10-47.5 28.5-31.5 44.5-11.5 59q0 44 18 73.5t50.5 47 78 25 100.5 7.5h27.5l27.5-2q3 30 3 54 0 55-22 77t-80 22q-17 0-36.5-2.5t-40-7-39-11-32.5-14.5zm142-401q28 0 50 7.5t38 19 26.5 25.5 15.5 27v83q-14 1-28.5 1.5t-28.5.5q-31 0-60.5-3.5t-52-13-36-26-13.5-41.5q0-35 25-57.5t64-22.5zm-55 640q10-46 34.5-64t56.5-18 57 19 34 62l60-19q-9-58-51.5-89t-101.5-31q-27 0-53.5 7t-47.5 21-36 36-20 52z"/><glyph unicode="Ӓ" horiz-adv-x="585" d="M8 0zm410 194h-258l-70-194h-82l265 711h38l266-711h-87zm-231 72h206l-78 213-25 106h-1l-25-108zm-45 528q0 21 15 34t39 13q23 0 37.5-13t14.5-34q0-20-14.5-33t-37.5-13q-24 0-39 13t-15 33zm192 0q0 21 14.5 34t37.5 13q24 0 39-13t15-34q0-20-15-33t-39-13q-23 0-37.5 13t-14.5 33z"/><glyph unicode="ӓ" horiz-adv-x="496" d="M39 0zm30 463q38 23 88.5 34t105.5 11q52 0 83.5-14t48-36.5 22-49.5 5.5-54q0-60-3-117t-3-108q0-37 3-70t11-61h-59l-21 70h-5q-9-14-22.5-27.5t-32.5-24-44-17.5-57-7-59.5 10-47.5 28.5-31.5 44.5-11.5 59q0 44 18 73.5t50.5 47 78 25 100.5 7.5h27.5l27.5-2q3 30 3 54 0 55-22 77t-80 22q-17 0-36.5-2.5t-40-7-39-11-32.5-14.5zm142-401q28 0 50 7.5t38 19 26.5 25.5 15.5 27v83q-14 1-28.5 1.5t-28.5.5q-31 0-60.5-3.5t-52-13-36-26-13.5-41.5q0-35 25-57.5t64-22.5zm-113 572q0 23 13.5 37t35.5 14 35.5-14 13.5-37q0-21-13.5-35t-35.5-14-35.5 14-13.5 35zm192 0q0 23 13.5 37t35.5 14q23 0 36.5-14t13.5-37q0-21-13.5-35t-36.5-14q-22 0-35.5 14t-13.5 35z"/><glyph unicode="Ӕ" horiz-adv-x="846" d="M391 600l-34-103-133-229h171v332h-4zm4-402h-214l-112-198h-91l415 700h383v-74h-298v-229h273v-74h-273v-249h303v-74h-386v198z"/><glyph unicode="ӕ" horiz-adv-x="796" d="M39 0zm172 62q28 0 50 7.5t38 19 26.5 25.5 15.5 27v83q-14 1-28.5 1.5t-28.5.5q-31 0-60.5-3.5t-52-13-36-26-13.5-41.5q0-35 25-57.5t64-22.5zm156 22q-13-18-30-34.5t-38.5-29-49-20.5-60.5-8q-32 0-59.5 10t-47.5 28.5-31.5 44.5-11.5 59q0 44 18 73.5t50.5 47 78 25 100.5 7.5h27.5l27.5-2q1 15 2 28.5t1 25.5q0 55-22 77.5t-80 21.5q-17 0-36.5-2.5t-40-7-39-11-32.5-14.5l-25 60q38 23 88.5 34t105.5 11q105 0 136-65 26 36 70 52.5t88 16.5q34 0 68-7.5t61-29 44-60.5 17-102q0-16-1.5-33.5t-3.5-37.5h-323q0-87 36.5-135.5t124.5-48.5q35 0 68.5 12.5t51.5 27.5l30-58q-30-24-75.5-38t-96.5-14q-61 0-110.5 25t-73.5 71h-7zm191 358q-59 0-95-31t-42-106h248v12q0 68-30.5 96.5t-80.5 28.5z"/><glyph unicode="Ӗ" horiz-adv-x="536" d="M85 0zm0 700h381v-74h-298v-229h273v-74h-273v-249h303v-74h-386v700zm100 170q4-37 28-57t64-20 63.5 20 28.5 56l71-17q-11-54-50.5-85.5t-113.5-31.5q-71 0-116.5 27.5t-53.5 87.5z"/><glyph unicode="ӗ" horiz-adv-x="508" d="M49 0zm393 40q-30-24-75.5-38t-96.5-14q-57 0-99 18.5t-69 53-40 82.5-13 108q0 128 57 195t163 67q34 0 68-7.5t61-28.5 44-59.5 17-101.5q0-33-6-73h-321q0-44 9-78t28-57.5 49.5-36 74.5-12.5q34 0 68 12t51 28zm-172 402q-59 0-94.5-31t-42.5-106h248q0 76-29 106.5t-82 30.5zm-94 260q10-46 34.5-64t56.5-18 57 19 34 62l60-19q-9-58-51.5-89t-101.5-31q-27 0-53.5 7t-47.5 21-36 36-20 52z"/><glyph unicode="Ә" horiz-adv-x="639" d="M145 322q-2-14-3-26.5t-1-26.5q0-41 9.5-79t29.5-67 51.5-47 75.5-18q93 0 142.5 66.5t50.5 197.5h-355zm355 70q-9 128-60.5 187t-154.5 59q-23 0-46-4t-43.5-10-37.5-13-28-14l-21 67q30 18 80 33t112 15q67 0 119.5-20.5t88.5-64 55-112.5 19-165q0-173-69-267.5t-208-94.5q-62 0-109.5 20.5t-79.5 58-48 91.5-16 121q0 26 2.5 54.5t7.5 58.5h437z"/><glyph unicode="ә" horiz-adv-x="507" d="M65 460q30 24 75.5 38t96.5 14q57 0 99-18.5t69-53 40-83 13-107.5q0-127-56-194.5t-156-67.5q-33 0-68 10t-63.5 35-47 67.5-18.5 107.5q0 16 1.5 32.5t3.5 35.5h326q-5 85-41.5 125.5t-124.5 40.5q-34 0-67.5-12t-51.5-28zm183-402q55 0 92.5 39t37.5 116h-251v-15q0-70 34.5-105t86.5-35z"/><glyph unicode="Ӛ" horiz-adv-x="639" d="M53 0zm92 322q-2-14-3-26.5t-1-26.5q0-41 9.5-79t29.5-67 51.5-47 75.5-18q93 0 142.5 66.5t50.5 197.5h-355zm355 70q-9 128-60.5 187t-154.5 59q-23 0-46-4t-43.5-10-37.5-13-28-14l-21 67q30 18 80 33t112 15q67 0 119.5-20.5t88.5-64 55-112.5 19-165q0-173-69-267.5t-208-94.5q-62 0-109.5 20.5t-79.5 58-48 91.5-16 121q0 26 2.5 54.5t7.5 58.5h437zm-339 402q0 21 15 34t39 13q23 0 37.5-13t14.5-34q0-20-14.5-33t-37.5-13q-24 0-39 13t-15 33zm192 0q0 21 14.5 34t37.5 13q24 0 39-13t15-34q0-20-15-33t-39-13q-23 0-37.5 13t-14.5 33z"/><glyph unicode="ӛ" horiz-adv-x="507" d="M49 0zm16 460q30 24 75.5 38t96.5 14q57 0 99-18.5t69-53 40-83 13-107.5q0-127-56-194.5t-156-67.5q-33 0-68 10t-63.5 35-47 67.5-18.5 107.5q0 16 1.5 32.5t3.5 35.5h326q-5 85-41.5 125.5t-124.5 40.5q-34 0-67.5-12t-51.5-28zm183-402q55 0 92.5 39t37.5 116h-251v-15q0-70 34.5-105t86.5-35zm-147 576q0 23 13.5 37t35.5 14 35.5-14 13.5-37q0-21-13.5-35t-35.5-14-35.5 14-13.5 35zm192 0q0 23 13.5 37t35.5 14q23 0 36.5-14t13.5-37q0-21-13.5-35t-36.5-14q-22 0-35.5 14t-13.5 35z"/><glyph unicode="Ӝ" horiz-adv-x="806" d="M0 0zm358 700h80v-326l43 14 203 312h92l-202-304-40-32 50-41 223-323h-102l-221 324h-46v-324h-80v336l-42-14-221-322h-96l221 313 48 38-46 35-209 314h97l203-314h45v314zm-108 94q0 21 15 34t39 13q23 0 37.5-13t14.5-34q0-20-14.5-33t-37.5-13q-24 0-39 13t-15 33zm192 0q0 21 14.5 34t37.5 13q24 0 39-13t15-34q0-20-15-33t-39-13q-23 0-37.5 13t-14.5 33z"/><glyph unicode="ӝ" horiz-adv-x="659" d="M1 0zm239 221l-147-221h-92l158 229 34 30-51 38-130 203h85l138-216h52v216h78v-226l47 14 139 212h84l-136-203-39-32 51-40 148-225h-95l-147 225h-52v-225h-78v235zm-57 413q0 23 13.5 37t35.5 14 35.5-14 13.5-37q0-21-13.5-35t-35.5-14-35.5 14-13.5 35zm192 0q0 23 13.5 37t35.5 14q23 0 36.5-14t13.5-37q0-21-13.5-35t-36.5-14q-22 0-35.5 14t-13.5 35z"/><glyph unicode="Ӟ" horiz-adv-x="541" d="M44 0zm95 331v70h38l26.5 1 26 1.5 20.5 2.5q26 4 49 13.5t40 24.5 27 35 10 44q0 33-11 55t-30.5 35.5-45 19-54.5 5.5q-54 0-92-7.5t-61-18.5l-22 66q20 11 72 22.5t117 11.5q40 0 78.5-8.5t69-28 49-53 18.5-82.5q0-50-33-95.5t-99-65.5v-4q71-10 112-53t41-115q0-57-22.5-98.5t-59-68.5-84-39.5-96.5-12.5q-66 0-108.5 7.5t-70.5 18.5l21 75q23-11 64.5-19t100.5-8q31 0 61 8.5t53.5 26 38 43.5 14.5 62q0 63-44 92.5t-115 34.5q-12 1-22.5 1.5t-21.5.5h-55zm-46 463q0 21 15 34t39 13q23 0 37.5-13t14.5-34q0-20-14.5-33t-37.5-13q-24 0-39 13t-15 33zm192 0q0 21 14.5 34t37.5 13q24 0 39-13t15-34q0-20-15-33t-39-13q-23 0-37.5 13t-14.5 33z"/><glyph unicode="ӟ" horiz-adv-x="441" d="M38 0zm87 223v65h70q18 0 35.5 6t31.5 16.5 22.5 25 8.5 30.5q0 39-27 55t-81 16q-39 0-71.5-12t-50.5-23l-23 62q30 17 70.5 30t96.5 13q166 0 166-123 0-35-22.5-68.5t-64.5-47.5v-4q59-11 82.5-42t23.5-82q0-32-13-59t-39-47-65.5-31.5-91.5-11.5q-51 0-84.5 9t-60.5 22l23 66q23-13 55.5-20t70.5-7q61 0 93 21t32 64q0 36-30 56.5t-99 20.5h-58zm-66 411q0 23 13.5 37t35.5 14 35.5-14 13.5-37q0-21-13.5-35t-35.5-14-35.5 14-13.5 35zm192 0q0 23 13.5 37t35.5 14q23 0 36.5-14t13.5-37q0-21-13.5-35t-36.5-14q-22 0-35.5 14t-13.5 35z"/><glyph unicode="Ӡ" horiz-adv-x="563" d="M230 62q39 0 73.5 10t60 28.5 40 45 14.5 59.5q0 70-53.5 103t-147.5 33h-88v27l186 224 44 43-62-9h-240v74h415v-30l-200-239-35-29v-4l34 9q50 0 92-13.5t72-38.5 46.5-61 16.5-81q0-54-20.5-95.5t-56.5-70.5-85-44-107-15q-22 0-47 2.5t-49 7.5-44.5 11-33.5 14l21 73q11-6 29-12.5t39.5-11 43.5-7.5 42-3z"/><glyph unicode="ӡ" horiz-adv-x="475" d="M188-142q34 0 63.5 10.5t51 29 33.5 45.5 12 60q0 70-43 104t-117 34h-73v26l144 224 45 43-64-8h-198v74h359v-29l-159-238-34-29v-4l32 8q40 0 74-13.5t59-39 39-61.5 14-80q0-54-18.5-96t-51.5-71-77-44-95-15q-45 0-80.5 7t-64.5 20l23 71q24-12 55-20t71-8z"/><glyph unicode="Ӣ" horiz-adv-x="681" d="M85 0zm428 474l6 80h-4l-43-82-338-472h-49v700h83v-480l-7-79h4l44 82 338 477h49v-700h-83v474zm-324 369h316v-62h-316v62z"/><glyph unicode="ӣ" horiz-adv-x="546" d="M77 0zm312 296l3 62h-3l-41-64-225-294h-46v500h80v-305l-3-59h4l39 62 225 302h47v-500h-80v296zm-259 347h296v-62h-296v62z"/><glyph unicode="Ӥ" horiz-adv-x="681" d="M85 0zm428 474l6 80h-4l-43-82-338-472h-49v700h83v-480l-7-79h4l44 82 338 477h49v-700h-83v474zm-323 320q0 21 15 34t39 13q23 0 37.5-13t14.5-34q0-20-14.5-33t-37.5-13q-24 0-39 13t-15 33zm192 0q0 21 14.5 34t37.5 13q24 0 39-13t15-34q0-20-15-33t-39-13q-23 0-37.5 13t-14.5 33z"/><glyph unicode="ӥ" horiz-adv-x="546" d="M77 0zm312 296l3 62h-3l-41-64-225-294h-46v500h80v-305l-3-59h4l39 62 225 302h47v-500h-80v296zm-253 338q0 23 13.5 37t35.5 14 35.5-14 13.5-37q0-21-13.5-35t-35.5-14-35.5 14-13.5 35zm192 0q0 23 13.5 37t35.5 14q23 0 36.5-14t13.5-37q0-21-13.5-35t-36.5-14q-22 0-35.5 14t-13.5 35z"/><glyph unicode="Ӧ" horiz-adv-x="684" d="M56 0zm0 350q0 175 74 268.5t211 93.5q74 0 128-26t89.5-73.5 52.5-114 17-148.5q0-175-74.5-268.5t-212.5-93.5q-73 0-126.5 26t-89 73.5-52.5 114-17 148.5zm88 0q0-58 11.5-110t35.5-91.5 61.5-63 88.5-23.5q93 0 146 70.5t53 217.5q0 57-11.5 109.5t-36 92-62 63-89.5 23.5q-92 0-144.5-70.5t-52.5-217.5zm49 444q0 21 15 34t39 13q23 0 37.5-13t14.5-34q0-20-14.5-33t-37.5-13q-24 0-39 13t-15 33zm192 0q0 21 14.5 34t37.5 13q24 0 39-13t15-34q0-20-15-33t-39-13q-23 0-37.5 13t-14.5 33z"/><glyph unicode="ӧ" horiz-adv-x="536" d="M49 0zm0 250q0 127 56.5 194.5t162.5 67.5q56 0 97.5-18.5t68.5-53 40-83 13-107.5q0-127-56.5-194.5t-162.5-67.5q-56 0-97.5 18.5t-68.5 53-40 83-13 107.5zm83 0q0-38 7.5-73t23.5-61 42-42 63-16q136-1 136 192 0 39-7.5 74t-23.5 61-42 41.5-63 15.5q-136 1-136-192zm-12 384q0 23 13.5 37t35.5 14 35.5-14 13.5-37q0-21-13.5-35t-35.5-14-35.5 14-13.5 35zm192 0q0 23 13.5 37t35.5 14q23 0 36.5-14t13.5-37q0-21-13.5-35t-36.5-14q-22 0-35.5 14t-13.5 35z"/><glyph unicode="Ө" horiz-adv-x="684" d="M56 0zm0 350q0 175 74 268.5t211 93.5q74 0 128-26t89.5-73.5 52.5-114 17-148.5q0-175-74.5-268.5t-212.5-93.5q-73 0-126.5 26t-89 73.5-52.5 114-17 148.5zm484 42q-8 119-62.5 182.5t-136.5 63.5q-36 0-70-12.5t-61-41.5-44.5-76-21.5-116h396zm-396-74q8-129 62.5-192.5t134.5-63.5q37 0 72 12t62 41.5 44.5 78.5 20.5 124h-396z"/><glyph unicode="ө" horiz-adv-x="536" d="M49 0zm0 250q0 127 56.5 194.5t162.5 67.5q56 0 97.5-18.5t68.5-53 40-83 13-107.5q0-127-56.5-194.5t-162.5-67.5q-56 0-97.5 18.5t-68.5 53-40 83-13 107.5zm355 31q-8 85-43.5 123t-92.5 38q-26 0-49.5-8t-42-27-30.5-50-14-76h272zm-272-64q5-78 43-118.5t93-40.5q25 0 48.5 8t42 26 30.5 48.5 15 76.5h-272z"/><glyph unicode="Ӫ" horiz-adv-x="684" d="M56 0zm0 350q0 175 74 268.5t211 93.5q74 0 128-26t89.5-73.5 52.5-114 17-148.5q0-175-74.5-268.5t-212.5-93.5q-73 0-126.5 26t-89 73.5-52.5 114-17 148.5zm484 42q-8 119-62.5 182.5t-136.5 63.5q-36 0-70-12.5t-61-41.5-44.5-76-21.5-116h396zm-396-74q8-129 62.5-192.5t134.5-63.5q37 0 72 12t62 41.5 44.5 78.5 20.5 124h-396zm49 476q0 21 15 34t39 13q23 0 37.5-13t14.5-34q0-20-14.5-33t-37.5-13q-24 0-39 13t-15 33zm192 0q0 21 14.5 34t37.5 13q24 0 39-13t15-34q0-20-15-33t-39-13q-23 0-37.5 13t-14.5 33z"/><glyph unicode="ӫ" horiz-adv-x="536" d="M49 0zm0 250q0 127 56.5 194.5t162.5 67.5q56 0 97.5-18.5t68.5-53 40-83 13-107.5q0-127-56.5-194.5t-162.5-67.5q-56 0-97.5 18.5t-68.5 53-40 83-13 107.5zm355 31q-8 85-43.5 123t-92.5 38q-26 0-49.5-8t-42-27-30.5-50-14-76h272zm-272-64q5-78 43-118.5t93-40.5q25 0 48.5 8t42 26 30.5 48.5 15 76.5h-272zm-12 417q0 23 13.5 37t35.5 14 35.5-14 13.5-37q0-21-13.5-35t-35.5-14-35.5 14-13.5 35zm192 0q0 23 13.5 37t35.5 14q23 0 36.5-14t13.5-37q0-21-13.5-35t-36.5-14q-22 0-35.5 14t-13.5 35z"/><glyph unicode="Ӭ" horiz-adv-x="577" d="M45 0zm105 395h288q-5 61-24 107.5t-49 77-69.5 44.5-85.5 14q-47 0-83.5-8t-59.5-22l-22 65q31 18 77 28.5t98 10.5q64 0 119-20t95.5-63.5 63.5-112.5 23-166q0-98-26-167t-70.5-112.5-103-63-122.5-19.5q-50 0-88.5 7t-65.5 18l22 73q23-11 60-17.5t77-6.5 80.5 12.5 73.5 43.5 55 81 26 122h-289v74zm-72 399q0 21 15 34t39 13q23 0 37.5-13t14.5-34q0-20-14.5-33t-37.5-13q-24 0-39 13t-15 33zm192 0q0 21 14.5 34t37.5 13q24 0 39-13t15-34q0-20-15-33t-39-13q-23 0-37.5 13t-14.5 33z"/><glyph unicode="ӭ" horiz-adv-x="465" d="M39 0zm82 285h212q-5 71-41.5 114t-103.5 43q-41 0-71.5-11t-49.5-24l-28 61q31 21 71 32.5t93 11.5q111 0 162-69t51-193q0-128-59-195t-164-67q-47 0-86.5 7.5t-66.5 22.5l23 68q23-13 56.5-20.5t65.5-7.5q140-1 149 161h-213v66zm-64 349q0 23 13.5 37t35.5 14 35.5-14 13.5-37q0-21-13.5-35t-35.5-14-35.5 14-13.5 35zm192 0q0 23 13.5 37t35.5 14q23 0 36.5-14t13.5-37q0-21-13.5-35t-36.5-14q-22 0-35.5 14t-13.5 35z"/><glyph unicode="Ӯ" horiz-adv-x="553" d="M7 0zm275 331l26-89h5l20 92 134 366h85l-177-455q-27-71-47.5-118.5t-41.5-77-45-42-59-12.5q-33 0-52.5 5.5t-36.5 16.5l25 69q20-11 37-14t31-3q28 0 47 28.5t33 84.5l-259 518h96zm-144 512h316v-62h-316v62z"/><glyph unicode="ӯ" horiz-adv-x="466" d="M12 0zm212 176l28-96h5l22 97 97 323h81l-148-449q-17-49-33.5-95t-36.5-82-45-57.5-58-21.5q-36 0-59 10l14 69q13-5 25-5 28 0 54 29.5t43 101.5l-201 500h92zm-126 467h296v-62h-296v62z"/><glyph unicode="Ӱ" horiz-adv-x="553" d="M7 0zm275 331l26-89h5l20 92 134 366h85l-177-455q-27-71-47.5-118.5t-41.5-77-45-42-59-12.5q-33 0-52.5 5.5t-36.5 16.5l25 69q20-11 37-14t31-3q28 0 47 28.5t33 84.5l-259 518h96zm-137 463q0 21 15 34t39 13q23 0 37.5-13t14.5-34q0-20-14.5-33t-37.5-13q-24 0-39 13t-15 33zm192 0q0 21 14.5 34t37.5 13q24 0 39-13t15-34q0-20-15-33t-39-13q-23 0-37.5 13t-14.5 33z"/><glyph unicode="ӱ" horiz-adv-x="466" d="M12 0zm212 176l28-96h5l22 97 97 323h81l-148-449q-17-49-33.5-95t-36.5-82-45-57.5-58-21.5q-36 0-59 10l14 69q13-5 25-5 28 0 54 29.5t43 101.5l-201 500h92zm-125 458q0 23 13.5 37t35.5 14 35.5-14 13.5-37q0-21-13.5-35t-35.5-14-35.5 14-13.5 35zm192 0q0 23 13.5 37t35.5 14q23 0 36.5-14t13.5-37q0-21-13.5-35t-36.5-14q-22 0-35.5 14t-13.5 35z"/><glyph unicode="Ӳ" horiz-adv-x="553" d="M7 0zm275 331l26-89h5l20 92 134 366h85l-177-455q-27-71-47.5-118.5t-41.5-77-45-42-59-12.5q-33 0-52.5 5.5t-36.5 16.5l25 69q20-11 37-14t31-3q28 0 47 28.5t33 84.5l-259 518h96zm-41 519h93v-16l-100-93h-57zm162 0h99v-16l-143-93h-58z"/><glyph unicode="ӳ" horiz-adv-x="466" d="M12 0zm212 176l28-96h5l22 97 97 323h81l-148-449q-17-49-33.5-95t-36.5-82-45-57.5-58-21.5q-36 0-59 10l14 69q13-5 25-5 28 0 54 29.5t43 101.5l-201 500h92zm-29 524h78v-16l-71-113h-42zm146 0h86v-16l-114-113h-45z"/><glyph unicode="Ӵ" horiz-adv-x="605" d="M75 0zm83 700v-232q0-137 124-137 47 0 88 12.5t67 33.5v323h83v-700h-83v302q-27-15-71-30t-101-15q-42 0-77 9.5t-60 32-39 60.5-14 94v247h83zm-1 94q0 21 15 34t39 13q23 0 37.5-13t14.5-34q0-20-14.5-33t-37.5-13q-24 0-39 13t-15 33zm192 0q0 21 14.5 34t37.5 13q24 0 39-13t15-34q0-20-15-33t-39-13q-23 0-37.5 13t-14.5 33z"/><glyph unicode="ӵ" horiz-adv-x="490" d="M49 0zm80 500v-136q0-27 3-48.5t12-37 26-24 45-8.5q45 0 74 10t44 22v222h80v-500h-80v210q-16-10-47.5-22t-86.5-12q-37 0-65 8t-47 28-28.5 53-9.5 83v152h80zm-44 134q0 23 13.5 37t35.5 14 35.5-14 13.5-37q0-21-13.5-35t-35.5-14-35.5 14-13.5 35zm192 0q0 23 13.5 37t35.5 14q23 0 36.5-14t13.5-37q0-21-13.5-35t-36.5-14q-22 0-35.5 14t-13.5 35z"/><glyph unicode="Ӷ" horiz-adv-x="442" d="M460 626h-292v-552h92v-203h-58l-15 129h-102v700h375v-74z"/><glyph unicode="ӷ" horiz-adv-x="369" d="M77 500h292v-70h-212v-360h74v-197h-54l-15 127h-85v500z"/><glyph unicode="Ӹ" horiz-adv-x="769" d="M85 0zm516 700h83v-700h-83v700zm-516 0h83v-272q5 1 15 2.5t22 2.5 24.5 2 24.5 1q47 0 91.5-9.5t78.5-33.5 54.5-64.5 20.5-102.5q0-60-19-104.5t-53.5-73-82.5-42.5-106-14q-14 0-32.5.5t-39 2-41.5 4.5-40 8v693zm160-636q72 0 119 39t47 117q0 42-14 70t-37.5 44.5-54 23-64.5 6.5q-18 0-40-3t-33-6v-285q27-6 77-6zm-16 730q0 21 15 34t39 13q23 0 37.5-13t14.5-34q0-20-14.5-33t-37.5-13q-24 0-39 13t-15 33zm192 0q0 21 14.5 34t37.5 13q24 0 39-13t15-34q0-20-15-33t-39-13q-23 0-37.5 13t-14.5 33z"/><glyph unicode="ӹ" horiz-adv-x="660" d="M77 0zm80 70q37-6 71-6 63 0 88 24.5t25 69.5q0 40-24.5 66t-85.5 26q-17 0-37-1t-37-6v-173zm0 239q24 4 46 5.5t42 1.5q51 0 85.5-11.5t55.5-31.5 29.5-47.5 8.5-58.5q0-91-50.5-132t-163.5-41q-64 0-133 6v500h80v-191zm346 191h80v-500h-80v500zm-323 134q0 23 13.5 37t35.5 14 35.5-14 13.5-37q0-21-13.5-35t-35.5-14-35.5 14-13.5 35zm192 0q0 23 13.5 37t35.5 14q23 0 36.5-14t13.5-37q0-21-13.5-35t-36.5-14q-22 0-35.5 14t-13.5 35z"/><glyph unicode="Ӽ" horiz-adv-x="618" d="M479-42q0 49-16 86t-36 68l-91 139-29 60-26-60-162-251h-93l233 356-213 344h100l142-237 25-57 24 57 150 237h92l-220-337 139-215q32-49 46.5-90t14.5-83q0-93-33-139t-104-46h-15.5l-15.5 2v68q28 0 45.5 8t27 21.5 12.5 31.5 3 37z"/><glyph unicode="ӽ" horiz-adv-x="514" d="M404 126q29-42 46.5-83t17.5-79q0-87-37.5-131.5t-109.5-44.5q-8 0-16 .5t-15 1.5v68q57 0 77.5 22t20.5 67q0 41-17.5 77t-37.5 65l-47 63-32 56-29-56-108-152h-89l180 256-168 244h98l95-138 28-57 29 57 97 138h90l-169-240z"/><glyph unicode="Ԑ" horiz-adv-x="540" d="M356 331q-12 0-22.5-.5t-21.5-1.5q-71-5-115-35t-44-92q0-72 48-106t128-34q42 0 81 9.5t60 23.5l26-63q-25-16-70.5-30t-111.5-14q-56 0-101.5 12.5t-78.5 38.5-51 65-18 93q0 73 39 118.5t110 56.5v4q-33 10-57 27.5t-39.5 39.5-23.5 47-8 50q0 45 18 77.5t49 53.5 73 31 89 10q27 0 53.5-3.5t49.5-8.5 41-11.5 29-13.5l-24-67q-27 12-66 21t-76 9q-68 0-108-24t-40-82q0-28 12-50t32-38 45-26 51-13q17-2 40-3t41-1h16v-70h-55z"/><glyph unicode="ԑ" horiz-adv-x="441" d="M258 223q-69 0-99-20.5t-30-56.5q0-38 32-61.5t93-23.5q37 0 70 9t56 23l23-65q-25-14-59.5-25.5t-85.5-11.5q-106 0-157.5 40t-51.5 109q0 51 24.5 80t81.5 44v4q-42 14-64.5 44t-22.5 71q0 62 45 93t121 31q57 0 97-13t70-30l-23-62q-18 11-50.5 23t-71.5 12q-54 0-81-16t-27-55q0-16 8.5-30.5t22.5-25 31.5-16.5 35.5-6h70v-65h-58z"/><glyph unicode="Ԓ" horiz-adv-x="626" d="M541-27q0-93-32-139t-102-46q-8 0-15 .5t-15 1.5v68q28 0 44.5 7.5t24.5 24.5 10 44 2 66v626h-209q-10-200-26.5-332.5t-50.5-206.5q-22-48-51.5-70t-64.5-22-58 10l13 72q10-3 21-3 17 0 34 11t33 41q14 27 26 72t21.5 114 15.5 164.5 9 223.5h370v-727z"/><glyph unicode="ԓ" horiz-adv-x="503" d="M346 430h-145q-3-42-6-90.5t-9-97-16-93-25.5-78.5-38-54.5-53.5-20.5q-19 0-33 2t-25 7l12 67q12-4 26-4 20 0 36 17t28 64.5 20 131.5 11 219h298v-527q0-93-32-139t-102-46q-8 0-15 .5t-15 1.5v68q28 0 44.5 8.5t25.5 26 11.5 44.5 2.5 63v430z"/><glyph unicode="Ԝ" horiz-adv-x="828" d="M222 231l16-116h1l17 118 144 467h40l145-469 17-116h1l18 118 118 467h81l-195-711h-46l-142 469-18 106h-5l-18-107-142-468h-46l-200 711h88z"/><glyph unicode="ԝ" horiz-adv-x="735" d="M401 500l115-292 25-96h2l19 98 89 290h76l-168-511h-39l-131 330-19 82h-3l-20-83-126-329h-39l-174 511h87l99-291 17-97h1l24 99 107 289h58z"/><glyph unicode="Ԥ" horiz-adv-x="694" d="M491 626h-323v-626h-83v700h489v-626h92v-203h-58l-15 129h-102v626z"/><glyph unicode="ԥ" horiz-adv-x="554" d="M378 430h-221v-430h-80v500h381v-430h74v-197h-54l-15 127h-85v430z"/><glyph unicode="Ԧ" horiz-adv-x="640" d="M448 0v232q0 137-124 137-48 0-89-12.5t-67-33.5v-323h-83v700h83v-302q27 15 71.5 30t100.5 15q42 0 77.5-9.5t60.5-32 39-60.5 14-94v-173h92v-203h-58l-15 129h-102z"/><glyph unicode="ԧ" horiz-adv-x="574" d="M77 0zm321 0v285q0 39-4.5 68.5t-16.5 49-32.5 29.5-53.5 10q-47 0-85-30.5t-49-78.5v-333h-80v700h80v-256h4q26 31 62.5 49.5t90.5 18.5q42 0 73-9.5t51.5-33.5 30-64.5 9.5-102.5v-232h74v-197h-54l-15 127h-85z"/><glyph unicode="Ḱ" horiz-adv-x="610" d="M85 0zm130 324h-47v-324h-83v700h83v-326l45 14 235 312h96l-234-301-42-33 51-40 256-326h-105zm100 546h114v-21l-163-97h-69z"/><glyph unicode="ḱ" horiz-adv-x="479" d="M77 0zm126 225h-46v-225h-80v700h80v-426l41 14 155 212h93l-153-201-41-33 50-40 167-226h-99zm88 495h89v-21l-101-128h-47z"/><glyph unicode="Ḿ" horiz-adv-x="791" d="M85 0zm538 470l10 105h-5l-38-96-182-316h-25l-193 317-36 95h-5l14-104v-471h-78v700h62l219-358 33-78h2l31 80 209 356h65v-700h-83v470zm-173 400h114v-21l-163-97h-69z"/><glyph unicode="ḿ" horiz-adv-x="812" d="M77 0zm293 0v283q0 40-3.5 69.5t-13.5 49.5-28.5 30-48.5 10q-46 0-76.5-28t-42.5-70v-344h-80v500h56l15-61h4q27 32 62.5 52.5t92.5 20.5q48 0 78.5-18.5t47.5-64.5q23 39 63.5 61t91.5 22q42 0 71-9.5t48-33.5 27.5-65 8.5-104v-300h-80v301q0 36-3.5 62.5t-14 44-29 26-48.5 8.5q-50 0-78-28t-40-80v-334h-80zm55 720h89v-21l-101-128h-47z"/><glyph unicode="Ṕ" horiz-adv-x="559" d="M85 0zm0 693q38 9 82 12t87 3q46 0 93.5-9t86.5-33 63.5-66 24.5-107q0-64-23-108t-61-71.5-87-39.5-101-12h-16.5l-24 .5-24.5 1.5-17 2v-266h-83v693zm171-57q-26 0-50-1t-38-5v-290q5-2 16-2.5t23-1 23-.5h16q34 0 67.5 6.5t60.5 23.5 43.5 48 16.5 79q0 41-15.5 68.5t-41 44-57.5 23.5-64 7zm64 234h114v-21l-163-97h-69z"/><glyph unicode="ṕ" horiz-adv-x="541" d="M77 0zm0 500h55l15-60h4q23 35 59.5 53.5t83.5 18.5q100 0 149-59t49-193q0-63-16.5-113.5t-46.5-85.5-72.5-54-94.5-19q-37 0-58.5 4.5t-46.5 15.5v-208h-80v700zm202-58q-51 0-80.5-26.5t-41.5-80.5v-248q18-14 41-21.5t61-7.5q69 0 109.5 51.5t40.5 151.5q0 41-7 74.5t-22.5 57-40 36.5-60.5 13zm15 278h89v-21l-101-128h-47z"/><glyph unicode="ẞ" horiz-adv-x="667" d="M429 603q-9 8-24 15t-34 12.5-40.5 8.5-43.5 3q-44 0-68.5-16.5t-35.5-43.5-13-62-2-73v-447h-83v478q0 48 8.5 91t31.5 74.5 63 50 104 18.5q83 0 142.5-24.5t103.5-58.5l-162-198-33-29v-2l33 7q97-1 151.5-52.5t54.5-141.5q0-108-61-166.5t-168-58.5q-9 0-25 1t-34 3-35 5.5-29 9.5l13 75q9-6 23.5-9.5t30.5-6 31-3.5 26-1q70 2 104 39t36 103q0 70-44 103.5t-128 33.5h-62v59z"/><glyph horiz-adv-x="497"/><glyph horiz-adv-x="994"/><glyph horiz-adv-x="497"/><glyph horiz-adv-x="994"/><glyph horiz-adv-x="331"/><glyph horiz-adv-x="248"/><glyph horiz-adv-x="165"/><glyph horiz-adv-x="165"/><glyph horiz-adv-x="124"/><glyph horiz-adv-x="198"/><glyph horiz-adv-x="55"/><glyph unicode="‐" horiz-adv-x="360" d="M59 325h242v-74h-242v74z"/><glyph unicode="‑" horiz-adv-x="360" d="M59 325h242v-74h-242v74z"/><glyph unicode="‒" horiz-adv-x="360" d="M59 325h242v-74h-242v74z"/><glyph unicode="–" horiz-adv-x="660" d="M118 325h424v-74h-424v74z"/><glyph unicode="—" horiz-adv-x="820" d="M118 325h584v-74h-584v74z"/><glyph unicode="‘" horiz-adv-x="194" d="M155 620q0-23-15-36.5t-38-13.5q-27 0-44.5 18t-17.5 53q0 33 9.5 56.5t23 40 28 26.5 25.5 14l25-35q-22-11-35.5-29.5t-13.5-46.5q4 1 11 1 20 0 31-14t11-34z"/><glyph unicode="’" horiz-adv-x="194" d="M40 659q0 23 14.5 36t37.5 13q28 0 45.5-17.5t17.5-52.5q0-33-9.5-57t-23-40.5-28.5-26.5-26-14l-25 34q23 12 36 30t13 47q-4-1-11-1-19 0-30 13.5t-11 35.5z"/><glyph unicode="‚" horiz-adv-x="194" d="M40 0zm0 50q0 23 14.5 36t37.5 13q28 0 45.5-17.5t17.5-52.5q0-33-9.5-57t-23-40.5-28.5-26.5-26-14l-25 34q23 12 36 30t13 47q-4-1-11-1-19 0-30 13.5t-11 35.5z"/><glyph unicode="“" horiz-adv-x="340" d="M40 570zm261 50q0-23-15-36.5t-38-13.5q-27 0-44.5 18t-17.5 53q0 33 9.5 56.5t23 40 28 26.5 25.5 14l25-35q-22-11-35.5-29.5t-13.5-46.5q4 1 11 1 20 0 31-14t11-34zm-146 0q0-23-15-36.5t-38-13.5q-27 0-44.5 18t-17.5 53q0 33 9.5 56.5t23 40 28 26.5 25.5 14l25-35q-22-11-35.5-29.5t-13.5-46.5q4 1 11 1 20 0 31-14t11-34z"/><glyph unicode="”" horiz-adv-x="340" d="M40 500zm146 159q0 23 14.5 36t37.5 13q28 0 45.5-17.5t17.5-52.5q0-33-9.5-57t-23-40.5-28.5-26.5-26-14l-25 34q23 12 36 30t13 47q-4-1-11-1-19 0-30 13.5t-11 35.5zm-146 0q0 23 14.5 36t37.5 13q28 0 45.5-17.5t17.5-52.5q0-33-9.5-57t-23-40.5-28.5-26.5-26-14l-25 34q23 12 36 30t13 47q-4-1-11-1-19 0-30 13.5t-11 35.5z"/><glyph unicode="„" horiz-adv-x="340" d="M40 0zm146 50q0 23 14.5 36t37.5 13q28 0 45.5-17.5t17.5-52.5q0-33-9.5-57t-23-40.5-28.5-26.5-26-14l-25 34q23 12 36 30t13 47q-4-1-11-1-19 0-30 13.5t-11 35.5zm-146 0q0 23 14.5 36t37.5 13q28 0 45.5-17.5t17.5-52.5q0-33-9.5-57t-23-40.5-28.5-26.5-26-14l-25 34q23 12 36 30t13 47q-4-1-11-1-19 0-30 13.5t-11 35.5z"/><glyph unicode="†" horiz-adv-x="486" d="M40 502h131l43-11-11 47v162h80v-162l-11-47 43 11h131v-72h-133l-41 11 11-42v-399l-15-200h-50l-15 201v398l11 42-43-11h-131v72z"/><glyph unicode="‡" horiz-adv-x="486" d="M203 400l11 41-43-11h-131v72h131l43-11-11 46v163h80v-163l-11-46 43 11h131v-72h-133l-41 11 11-41v-124l-11-41 41 11h133v-72h-131l-43 11 11-46v-139l-16-200h-48l-16 201v138l11 46-43-11h-131v72h131l43-11-11 41v124z"/><glyph unicode="•" horiz-adv-x="452" d="M87 311q0 31 11 56.5t29.5 44 44 28.5 54.5 10 54.5-9.5 44-27.5 29.5-43.5 11-58.5-11-58.5-29.5-43.5-44-27.5-54.5-9.5-54.5 9.5-44 27.5-29.5 43.5-11 58.5z"/><glyph unicode="…" horiz-adv-x="759" d="M579 46q0 27 15.5 42.5t41.5 15.5q27 0 43-15.5t16-42.5q0-26-16-42t-43-16q-26 0-41.5 16t-15.5 42zm-254 0q0 27 15.5 42.5t41.5 15.5q27 0 43-15.5t16-42.5q0-26-16-42t-43-16q-26 0-41.5 16t-15.5 42zm-254 0q0 27 15.5 42.5t41.5 15.5q27 0 43-15.5t16-42.5q0-26-16-42t-43-16q-26 0-41.5 16t-15.5 42z"/><glyph horiz-adv-x="198"/><glyph unicode="‰" horiz-adv-x="1147" d="M70 0zm0 542q0 45 12 77t32.5 53 49 30.5 61.5 9.5 61.5-9 49-29 32.5-52.5 12-79.5-12-79.5-32.5-52.5-49-29-61.5-9-61.5 9-49 29-32.5 52.5-12 79.5zm74 0q0-60 21.5-86t59.5-26q19 0 34 5.5t25.5 18 16 34 5.5 54.5-5.5 54.5-16 34-25.5 18-34 5.5q-38 0-59.5-23.5t-21.5-88.5zm282-371q0 45 12 77t32.5 53 49 30.5 61.5 9.5 61.5-9 49-29 32.5-52.5 12-79.5-12-79.5-32.5-52.5-49-29-61.5-9-61.5 9-49 29-32.5 52.5-12 79.5zm74 0q0-60 21.5-86t59.5-26q19 0 34 5.5t25.5 18 16 34 5.5 54.5-5.5 54.5-16 34-25.5 18-34 5.5q-38 0-59.5-23.5t-21.5-88.5zm283 0q0 45 12 77t32.5 53 49 30.5 61.5 9.5 61.5-9 49-29 32.5-52.5 12-79.5-12-79.5-32.5-52.5-49-29-61.5-9-61.5 9-49 29-32.5 52.5-12 79.5zm74 0q0-60 21.5-86t59.5-26q19 0 34 5.5t25.5 18 16 34 5.5 54.5-5.5 54.5-16 34-25.5 18-34 5.5q-38 0-59.5-23.5t-21.5-88.5zm-220 542l49-38-513-687-50 39z"/><glyph unicode="‹" horiz-adv-x="297" d="M39 259l160 230 53-43-97-145-48-41 48-36 103-142-53-44z"/><glyph unicode="›" horiz-adv-x="297" d="M258 268l-160-230-53 43 97 145 48 41-48 36-103 142 53 44z"/><glyph unicode="⁄" horiz-adv-x="184" d="M310 713l52-35-487-690-52 36z"/><glyph horiz-adv-x="248"/><glyph unicode="₁" horiz-adv-x="394" d="M72-39h106v254l7 36-27-28-78-47-27 49 154 102h41v-366h95v-61h-271v61z"/><glyph unicode="₂" horiz-adv-x="394" d="M319 210q0-31-10.5-60t-28-57-41.5-55.5-51-55.5l-46-32v-2l57 15h140v-63h-291v33q23 19 57.5 51t66.5 69 54.5 76 22.5 72q0 31-20 46.5t-49 15.5q-27 0-52.5-9.5t-44.5-21.5l-22 57q26 18 60.5 28t70.5 10q63 0 95-31t32-86z"/><glyph unicode="₃" horiz-adv-x="394" d="M169-47q48 0 73.5 19t25.5 56q0 32-23 52t-74 20h-55v23l97 116 34 27-49-6h-130v60h256v-33l-103-123-25-18v-2l23 3q55-1 87-33t32-86q0-61-44.5-98t-118.5-37q-36 0-62 6t-46 13l15 60q17-8 39-13.5t48-5.5z"/><glyph unicode="₄" horiz-adv-x="394" d="M379-4h-83v-96h-67v96h-204v37l226 302h45v-280h83v-59zm-150 187l6 49h-2l-22-46-78-105-33-31 50 5h79v128z"/><glyph unicode="€" d="M28 454h62q11 69 37 117.5t62.5 80 82 46 96.5 14.5 88-6.5 64-17.5l-22-71q-23 11-54 17t-75 6q-34 0-65-10t-56.5-32-44-57.5-28.5-86.5h282l-17-66h-272q-1-9-1-18.5v-36.5l1-16h252l-17-66h-228q17-97 69.5-144t138.5-47q39 0 71.5 9t55.5 23l20-63q-30-23-74.5-32t-89.5-9q-115 0-186.5 63.5t-91.5 199.5h-78l18 66h54v52l1 19h-73z"/><glyph unicode="₴" d="M450 317v-66h-229q-11-11-21.5-25t-19-30-14-32.5-5.5-31.5q0-36 28-55.5t94-19.5q47 0 78 9.5t54 21.5l24-64q-23-14-62.5-25t-108.5-11q-96 0-143 35.5t-47 100.5q0 18 6 37.5t15 36.5 18.5 31 15.5 22h-92v66h409zm-409 71v66h236q25 26 39.5 58t14.5 63q0 35-23.5 51t-80.5 16q-40 0-67.5-9t-50.5-20l-25 67q14 7 29 12.5t33.5 10 41.5 7 54 2.5q85 0 128-31t43-94q0-38-15-72.5t-37-60.5h89v-66h-409z"/><glyph unicode="₶" d="M33 336h71v357q38 9 81.5 12t86.5 3q46 0 90.5-9t79-33 55.5-65 21-105q0-63-21.5-105t-57-68-81-37-92.5-12l-79-1v-71h166v-62h-166v-140h-83v140h-71v62h71v72h-71v62zm241 302q-26 0-49.5-1.5t-37.5-4.5v-290h76q30 0 60 6t54 23 39 46.5 14 77.5q1 41-11.5 68.5t-34 44-50 23.5-60.5 7z"/><glyph unicode="₷" d="M33 0zm0 336h71v357q38 9 81.5 12t86.5 3q46 0 90.5-9t79-33 55.5-65 21-105q0-63-21.5-105t-57-68-81-37-92.5-12l-79-1v-71h166v-62h-166v-140h-83v140h-71v62h71v72h-71v62zm241 302q-26 0-49.5-1.5t-37.5-4.5v-290h76q30 0 60 6t54 23 39 46.5 14 77.5q1 41-11.5 68.5t-34 44-50 23.5-60.5 7z"/><glyph unicode="₹" d="M33 0zm0 336h71v357q38 9 81.5 12t86.5 3q46 0 90.5-9t79-33 55.5-65 21-105q0-63-21.5-105t-57-68-81-37-92.5-12l-79-1v-71h166v-62h-166v-140h-83v140h-71v62h71v72h-71v62zm241 302q-26 0-49.5-1.5t-37.5-4.5v-290h76q30 0 60 6t54 23 39 46.5 14 77.5q1 41-11.5 68.5t-34 44-50 23.5-60.5 7z"/><glyph unicode="₺" d="M33 0zm0 336h71v357q38 9 81.5 12t86.5 3q46 0 90.5-9t79-33 55.5-65 21-105q0-63-21.5-105t-57-68-81-37-92.5-12l-79-1v-71h166v-62h-166v-140h-83v140h-71v62h71v72h-71v62zm241 302q-26 0-49.5-1.5t-37.5-4.5v-290h76q30 0 60 6t54 23 39 46.5 14 77.5q1 41-11.5 68.5t-34 44-50 23.5-60.5 7z"/><glyph unicode="₻" d="M33 0zm0 336h71v357q38 9 81.5 12t86.5 3q46 0 90.5-9t79-33 55.5-65 21-105q0-63-21.5-105t-57-68-81-37-92.5-12l-79-1v-71h166v-62h-166v-140h-83v140h-71v62h71v72h-71v62zm241 302q-26 0-49.5-1.5t-37.5-4.5v-290h76q30 0 60 6t54 23 39 46.5 14 77.5q1 41-11.5 68.5t-34 44-50 23.5-60.5 7z"/><glyph unicode="₼" d="M33 0zm0 336h71v357q38 9 81.5 12t86.5 3q46 0 90.5-9t79-33 55.5-65 21-105q0-63-21.5-105t-57-68-81-37-92.5-12l-79-1v-71h166v-62h-166v-140h-83v140h-71v62h71v72h-71v62zm241 302q-26 0-49.5-1.5t-37.5-4.5v-290h76q30 0 60 6t54 23 39 46.5 14 77.5q1 41-11.5 68.5t-34 44-50 23.5-60.5 7z"/><glyph unicode="₽" d="M33 0zm0 336h71v357q38 9 81.5 12t86.5 3q46 0 90.5-9t79-33 55.5-65 21-105q0-63-21.5-105t-57-68-81-37-92.5-12l-79-1v-71h166v-62h-166v-140h-83v140h-71v62h71v72h-71v62zm241 302q-26 0-49.5-1.5t-37.5-4.5v-290h76q30 0 60 6t54 23 39 46.5 14 77.5q1 41-11.5 68.5t-34 44-50 23.5-60.5 7z"/><glyph unicode="₾" d="M33 0zm0 336h71v357q38 9 81.5 12t86.5 3q46 0 90.5-9t79-33 55.5-65 21-105q0-63-21.5-105t-57-68-81-37-92.5-12l-79-1v-71h166v-62h-166v-140h-83v140h-71v62h71v72h-71v62zm241 302q-26 0-49.5-1.5t-37.5-4.5v-290h76q30 0 60 6t54 23 39 46.5 14 77.5q1 41-11.5 68.5t-34 44-50 23.5-60.5 7z"/><glyph unicode="₿" d="M33 0zm0 336h71v357q38 9 81.5 12t86.5 3q46 0 90.5-9t79-33 55.5-65 21-105q0-63-21.5-105t-57-68-81-37-92.5-12l-79-1v-71h166v-62h-166v-140h-83v140h-71v62h71v72h-71v62zm241 302q-26 0-49.5-1.5t-37.5-4.5v-290h76q30 0 60 6t54 23 39 46.5 14 77.5q1 41-11.5 68.5t-34 44-50 23.5-60.5 7z"/><glyph unicode="⃀" d="M33 0zm0 336h71v357q38 9 81.5 12t86.5 3q46 0 90.5-9t79-33 55.5-65 21-105q0-63-21.5-105t-57-68-81-37-92.5-12l-79-1v-71h166v-62h-166v-140h-83v140h-71v62h71v72h-71v62zm241 302q-26 0-49.5-1.5t-37.5-4.5v-290h76q30 0 60 6t54 23 39 46.5 14 77.5q1 41-11.5 68.5t-34 44-50 23.5-60.5 7z"/><glyph unicode="⃁" d="M33 0zm0 336h71v357q38 9 81.5 12t86.5 3q46 0 90.5-9t79-33 55.5-65 21-105q0-63-21.5-105t-57-68-81-37-92.5-12l-79-1v-71h166v-62h-166v-140h-83v140h-71v62h71v72h-71v62zm241 302q-26 0-49.5-1.5t-37.5-4.5v-290h76q30 0 60 6t54 23 39 46.5 14 77.5q1 41-11.5 68.5t-34 44-50 23.5-60.5 7z"/><glyph unicode="⃂" d="M33 0zm0 336h71v357q38 9 81.5 12t86.5 3q46 0 90.5-9t79-33 55.5-65 21-105q0-63-21.5-105t-57-68-81-37-92.5-12l-79-1v-71h166v-62h-166v-140h-83v140h-71v62h71v72h-71v62zm241 302q-26 0-49.5-1.5t-37.5-4.5v-290h76q30 0 60 6t54 23 39 46.5 14 77.5q1 41-11.5 68.5t-34 44-50 23.5-60.5 7z"/><glyph unicode="⃃" d="M33 0zm0 336h71v357q38 9 81.5 12t86.5 3q46 0 90.5-9t79-33 55.5-65 21-105q0-63-21.5-105t-57-68-81-37-92.5-12l-79-1v-71h166v-62h-166v-140h-83v140h-71v62h71v72h-71v62zm241 302q-26 0-49.5-1.5t-37.5-4.5v-290h76q30 0 60 6t54 23 39 46.5 14 77.5q1 41-11.5 68.5t-34 44-50 23.5-60.5 7z"/><glyph unicode="⃄" d="M33 0zm0 336h71v357q38 9 81.5 12t86.5 3q46 0 90.5-9t79-33 55.5-65 21-105q0-63-21.5-105t-57-68-81-37-92.5-12l-79-1v-71h166v-62h-166v-140h-83v140h-71v62h71v72h-71v62zm241 302q-26 0-49.5-1.5t-37.5-4.5v-290h76q30 0 60 6t54 23 39 46.5 14 77.5q1 41-11.5 68.5t-34 44-50 23.5-60.5 7z"/><glyph unicode="⃅" d="M33 0zm0 336h71v357q38 9 81.5 12t86.5 3q46 0 90.5-9t79-33 55.5-65 21-105q0-63-21.5-105t-57-68-81-37-92.5-12l-79-1v-71h166v-62h-166v-140h-83v140h-71v62h71v72h-71v62zm241 302q-26 0-49.5-1.5t-37.5-4.5v-290h76q30 0 60 6t54 23 39 46.5 14 77.5q1 41-11.5 68.5t-34 44-50 23.5-60.5 7z"/><glyph unicode="⃆" d="M33 0zm0 336h71v357q38 9 81.5 12t86.5 3q46 0 90.5-9t79-33 55.5-65 21-105q0-63-21.5-105t-57-68-81-37-92.5-12l-79-1v-71h166v-62h-166v-140h-83v140h-71v62h71v72h-71v62zm241 302q-26 0-49.5-1.5t-37.5-4.5v-290h76q30 0 60 6t54 23 39 46.5 14 77.5q1 41-11.5 68.5t-34 44-50 23.5-60.5 7z"/><glyph unicode="⃇" d="M33 0zm0 336h71v357q38 9 81.5 12t86.5 3q46 0 90.5-9t79-33 55.5-65 21-105q0-63-21.5-105t-57-68-81-37-92.5-12l-79-1v-71h166v-62h-166v-140h-83v140h-71v62h71v72h-71v62zm241 302q-26 0-49.5-1.5t-37.5-4.5v-290h76q30 0 60 6t54 23 39 46.5 14 77.5q1 41-11.5 68.5t-34 44-50 23.5-60.5 7z"/><glyph unicode="⃈" d="M33 0zm0 336h71v357q38 9 81.5 12t86.5 3q46 0 90.5-9t79-33 55.5-65 21-105q0-63-21.5-105t-57-68-81-37-92.5-12l-79-1v-71h166v-62h-166v-140h-83v140h-71v62h71v72h-71v62zm241 302q-26 0-49.5-1.5t-37.5-4.5v-290h76q30 0 60 6t54 23 39 46.5 14 77.5q1 41-11.5 68.5t-34 44-50 23.5-60.5 7z"/><glyph unicode="⃉" d="M33 0zm0 336h71v357q38 9 81.5 12t86.5 3q46 0 90.5-9t79-33 55.5-65 21-105q0-63-21.5-105t-57-68-81-37-92.5-12l-79-1v-71h166v-62h-166v-140h-83v140h-71v62h71v72h-71v62zm241 302q-26 0-49.5-1.5t-37.5-4.5v-290h76q30 0 60 6t54 23 39 46.5 14 77.5q1 41-11.5 68.5t-34 44-50 23.5-60.5 7z"/><glyph unicode="⃊" d="M33 0zm0 336h71v357q38 9 81.5 12t86.5 3q46 0 90.5-9t79-33 55.5-65 21-105q0-63-21.5-105t-57-68-81-37-92.5-12l-79-1v-71h166v-62h-166v-140h-83v140h-71v62h71v72h-71v62zm241 302q-26 0-49.5-1.5t-37.5-4.5v-290h76q30 0 60 6t54 23 39 46.5 14 77.5q1 41-11.5 68.5t-34 44-50 23.5-60.5 7z"/><glyph unicode="⃋" d="M33 0zm0 336h71v357q38 9 81.5 12t86.5 3q46 0 90.5-9t79-33 55.5-65 21-105q0-63-21.5-105t-57-68-81-37-92.5-12l-79-1v-71h166v-62h-166v-140h-83v140h-71v62h71v72h-71v62zm241 302q-26 0-49.5-1.5t-37.5-4.5v-290h76q30 0 60 6t54 23 39 46.5 14 77.5q1 41-11.5 68.5t-34 44-50 23.5-60.5 7z"/><glyph unicode="⃌" d="M33 0zm0 336h71v357q38 9 81.5 12t86.5 3q46 0 90.5-9t79-33 55.5-65 21-105q0-63-21.5-105t-57-68-81-37-92.5-12l-79-1v-71h166v-62h-166v-140h-83v140h-71v62h71v72h-71v62zm241 302q-26 0-49.5-1.5t-37.5-4.5v-290h76q30 0 60 6t54 23 39 46.5 14 77.5q1 41-11.5 68.5t-34 44-50 23.5-60.5 7z"/><glyph unicode="⃍" d="M33 0zm0 336h71v357q38 9 81.5 12t86.5 3q46 0 90.5-9t79-33 55.5-65 21-105q0-63-21.5-105t-57-68-81-37-92.5-12l-79-1v-71h166v-62h-166v-140h-83v140h-71v62h71v72h-71v62zm241 302q-26 0-49.5-1.5t-37.5-4.5v-290h76q30 0 60 6t54 23 39 46.5 14 77.5q1 41-11.5 68.5t-34 44-50 23.5-60.5 7z"/><glyph unicode="⃎" d="M33 0zm0 336h71v357q38 9 81.5 12t86.5 3q46 0 90.5-9t79-33 55.5-65 21-105q0-63-21.5-105t-57-68-81-37-92.5-12l-79-1v-71h166v-62h-166v-140h-83v140h-71v62h71v72h-71v62zm241 302q-26 0-49.5-1.5t-37.5-4.5v-290h76q30 0 60 6t54 23 39 46.5 14 77.5q1 41-11.5 68.5t-34 44-50 23.5-60.5 7z"/><glyph unicode="⃏" d="M33 0zm0 336h71v357q38 9 81.5 12t86.5 3q46 0 90.5-9t79-33 55.5-65 21-105q0-63-21.5-105t-57-68-81-37-92.5-12l-79-1v-71h166v-62h-166v-140h-83v140h-71v62h71v72h-71v62zm241 302q-26 0-49.5-1.5t-37.5-4.5v-290h76q30 0 60 6t54 23 39 46.5 14 77.5q1 41-11.5 68.5t-34 44-50 23.5-60.5 7z"/><glyph unicode="ℓ" horiz-adv-x="500" d="M406 30q-22-14-57.5-28t-70.5-14q-63 0-91.5 30.5t-28.5 95.5v104l-50-44-35 44 85 74v254q0 44 10 75.5t27.5 51.5 41 29.5 50.5 9.5q48 0 79-29.5t31-89.5q0-74-40-157t-131-171v-140q0-44 17-60.5t41-16.5q25 0 55 10.5t50 21.5zm-73 558q0 34-14 49t-32 15q-12 0-23-3.5t-19.5-14-13.5-29-5-48.5v-212q56 65 81.5 125.5t25.5 117.5z"/><glyph unicode="№" horiz-adv-x="1023" d="M669 313h278v-74h-278v74zm-458 141l-54 105h-4l12-101v-458h-80v711h44l316-463 51-100h5l-11 96v456h80v-711h-46zm439 88q0 45 12 77t32.5 53 49 30.5 61.5 9.5 61.5-9 49-29 32.5-52.5 12-79.5-12-79.5-32.5-52.5-49-29-61.5-9-61.5 9-49 29-32.5 52.5-12 79.5zm74 0q0-60 21.5-86t59.5-26q19 0 34 5.5t25.5 18 16 34 5.5 54.5-5.5 54.5-16 34-25.5 18-34 5.5q-38 0-59.5-23.5t-21.5-88.5z"/><glyph unicode="™" horiz-adv-x="885" d="M388 632h-136v-292h-78v292h-136v68h350v-68zm382-125l10 103h-4l-39-85-87-140h-33l-89 139-36 86h-4l13-102v-168h-73v360h78l105-168 28-58h1l30 60 97 166h79v-360h-76v167z"/><glyph unicode="℮" horiz-adv-x="600" d="M157 259v-181q62-59 145-59 124 0 193 120l35-21q-43-66-99-100.5t-129-34.5q-59 0-107 21.5t-81.5 58.5-51.5 87.5-18 108.5q0 59 18.5 109.5t52.5 87.5 81.5 58 105.5 21q62 0 109.5-22t80.5-59.5 50-87.5 19-107h-404zm291 36v145q-63 60-147 60-86 0-144-60v-145h291z"/><glyph unicode="∂" horiz-adv-x="505" d="M287 510q42 0 62-7.5t37-21.5h5q-3 46-22.5 77.5t-48.5 51-64 28.5-69 9h-10.5l-10.5-1 15 66q68 0 122.5-14.5t92.5-49.5 58-93 20-145q0-108-19.5-187.5t-54-131.5-83-77.5-105.5-25.5q-96 0-144 50.5t-48 143.5q0 60 17 118.5t50.5 105 83.5 75.5 116 29zm-6-70q-36 0-68.5-19.5t-57-54.5-38.5-83.5-14-105.5q0-23 6-45t20-38.5 36-26 54-9.5q50 0 83 30.5t53 79.5 28 109 8 117q-18 21-43 33.5t-67 12.5z"/><glyph unicode="∏" horiz-adv-x="678" d="M511 626h-343v-826h-83v900h509v-900h-83v826z"/><glyph unicode="∑" horiz-adv-x="505" d="M125-90l-40-36h382v-74h-453v74l224 346 34 30-35 32-223 344v74h453v-74h-378l43-36 215-334z"/><glyph unicode="−" horiz-adv-x="505" d="M40 374h424v-72h-424v72z"/><glyph unicode="∕" horiz-adv-x="505" d="M0 0zm470 713l52-35-487-690-52 36z"/><glyph unicode="√" horiz-adv-x="505" d="M167 446l92-227 23-114h2l19 116 148 479h75l-226-711h-31l-157 385h-121v72h176z"/><glyph unicode="∞" horiz-adv-x="856" d="M423 285q-36-58-88-90t-110-32q-35 0-65.5 12.5t-54 36.5-37 58-13.5 76q0 45 13 80.5t36.5 60.5 56 38.5 71.5 13.5q70 0 120.5-31.5t80.5-80.5q43 60 96 86t111 26q35 0 64.5-12.5t51-36.5 33.5-57.5 12-75.5q0-45-13-81t-37-61-56.5-38.5-71.5-13.5q-35 0-65 10t-55 26.5-45 39-35 46.5zm202-48q41 0 69.5 32t28.5 86q0 21-6 41t-18.5 35.5-31.5 24.5-44 9q-41 0-83.5-23t-77.5-71q12-27 29-51.5t38-42.5 45-29 51-11zm-394 228q-20 0-38-9t-31.5-24.5-21-37-7.5-45.5q0-48 29-80t80-32q22 0 43.5 8t41 22.5 36.5 33 31 39.5q-27 56-68 90.5t-95 34.5z"/><glyph unicode="∫" horiz-adv-x="350" d="M214-58q0-78-33-114t-104-36q-35 0-66 7t-55 17l22 64q23-9 45.5-13.5t45.5-4.5q38 0 51.5 24t13.5 83v593q0 78 33 114t105 36q34 0 65-7t55-17l-21-64q-23 9-45.5 13.5t-46.5 4.5q-38 0-51.5-23t-13.5-82v-595z"/><glyph unicode="≈" horiz-adv-x="505" d="M31 210zm0 234q43 33 78 46t64 13q28 0 52-8.5t46-19 43-19 44-8.5q19 0 39 8t43 28l34-61q-38-26-68.5-36.5t-55.5-10.5q-27 0-49.5 8.5t-43 19-41 19-44.5 8.5q-23 0-49-10.5t-58-36.5zm0-166q43 33 78 46t64 13q28 0 52-8.5t46-19 43-19 44-8.5q19 0 39 8t43 28l34-61q-38-26-68.5-36.5t-55.5-10.5q-27 0-49.5 8.5t-43 19-41 19-44.5 8.5q-23 0-49-10.5t-58-36.5z"/><glyph unicode="≠" horiz-adv-x="505" d="M40 457h228l61 137h72l-61-137h124v-72h-155l-42-94h197v-72h-228l-67-153h-72l67 153h-124v72h155l42 94h-197v72z"/><glyph unicode="≤" horiz-adv-x="505" d="M459 82l-35-63-368 210 35 64zm-423 344v29l378 231 38-62-237-145-91-38 90-32 243-144-38-60z"/><glyph unicode="≥" horiz-adv-x="505" d="M457 234l-366-215-38 62 367 215zm1 231v-29l-378-231-38 62 237 145 91 38-90 32-243 144 38 60z"/><glyph unicode="◊" horiz-adv-x="505" d="M267-11h-33l-200 353 200 369h33l203-364zm18 172l102 176-109 194-28 88h-2l-28-90-102-176 109-194 29-88h1z"/><glyph unicode="Ⱨ" horiz-adv-x="707" d="M504 321h-336v-321h-83v700h83v-305h336v305h83v-626h92v-203h-58l-15 129h-102v321z"/><glyph unicode="ⱨ" horiz-adv-x="579" d="M398 0v285q0 39-4.5 68.5t-16.5 49-32.5 29.5-53.5 10q-47 0-85-30.5t-49-78.5v-333h-80v700h80v-256h4q26 31 62.5 49.5t90.5 18.5q42 0 73-9.5t51.5-33.5 30-64.5 9.5-102.5v-232h74v-197h-54l-15 127h-85z"/><glyph unicode="" horiz-adv-x="500" d="M0 500h500v-500h-500v500z"/><glyph unicode="" horiz-adv-x="2" d="M-123 752zm-114 118h114v-21l-163-97h-69z"/><glyph unicode="" horiz-adv-x="465" d="M103 871q17-34 52-52.5t82-18.5q48 0 81 21t47 50l40-19q-9-29-25.5-51.5t-39-38.5-49.5-24-55-8q-27 0-53.5 7t-49.5 21-42 36.5-31 52.5z"/><glyph unicode="" horiz-adv-x="287" d="M60 0zm88-43q42-8 60.5-26t18.5-49q0-41-33-65.5t-89-24.5q-11 0-22 1t-23 3l7 49q6-1 11-1.5t23-1.5q12 0 23.5 1.5t18 6.5 8.5 11 2 12q1 29-86 37l48 90h57z"/><glyph unicode="" horiz-adv-x="440" d="M193 870h60l127-102v-21h-81l-60 49-17 35-19-34-64-50h-79v22z"/><glyph unicode="" horiz-adv-x="235" d="M60-55zm0-47q0 21 15.5 34t35.5 13q25 0 44.5-17.5t19.5-57.5q0-26-9-45.5t-21.5-34-26-23-23.5-12.5l-28 32q20 11 32 28t12 41q-4-1-10-1-18 0-29.5 12t-11.5 31z"/><glyph unicode="" horiz-adv-x="194" d="M40 500zm0 159q0 23 14.5 36t37.5 13q28 0 45.5-17.5t17.5-52.5q0-33-9.5-57t-23-40.5-28.5-26.5-26-14l-25 34q23 12 36 30t13 47q-4-1-11-1-19 0-30 13.5t-11 35.5z"/><glyph unicode="" horiz-adv-x="246" d="M60 797q0 21 16.5 36.5t45.5 15.5 46.5-15.5 17.5-36.5q0-23-17.5-38t-46.5-15-45.5 15-16.5 38z"/><glyph unicode="" horiz-adv-x="331" d="M60 768q0 37 25 61t80 24q50 0 78-21.5t28-63.5q0-36-26.5-59.5t-79.5-23.5q-51 0-78 22.5t-27 60.5zm61 0q0-17 10.5-28.5t33.5-11.5q22 0 33.5 11t11.5 29q0 19-11 30.5t-34 11.5q-22 0-33-11.5t-11-30.5z"/><glyph unicode="" horiz-adv-x="438" d="M60 785q31 32 57.5 43.5t50.5 11.5q19 0 37-5t34.5-11.5 32.5-11.5 31-5q26 0 50 21l25-43q-27-25-51-34.5t-45-9.5q-19 0-36 5t-33.5 11.5-32.5 11.5-32 5-31.5-6.5-32.5-23.5z"/><glyph unicode="" horiz-adv-x="305" d="M60 0zm158 10q-35-16-55-40.5t-20-56.5q0-20 13-35.5t38-15.5q19 0 40 10l11-43q-15-12-40-18t-46-6q-45 0-72 24t-27 65 27.5 70 75.5 46h55z"/><glyph unicode="" horiz-adv-x="584" d="M85 0zm422 540q0-25-8-51t-24-48.5-41-39.5-59-26v-4q30-5 57.5-17t48.5-33 34-51 13-71q0-54-22.5-93.5t-59-64.5-83.5-37-96-12h-40l-48 1.5-50 4-44 7.5v689q37 6 86 10t107 4q39 0 79.5-6.5t73.5-25 54.5-51.5 21.5-85zm-232-476q32 0 62 7.5t53 24 36.5 40.5 13.5 57q0 41-16.5 66t-43 39-59.5 19-66 5h-87v-251q7-2 20-3t28-2 31-1.5 28-.5zm-55 328q17 0 41 1t40 3q24 8 45 19.5t37.5 27 26 36 9.5 44.5q0 33-12.5 54.5t-33.5 34.5-48 18.5-55 5.5q-33 0-60.5-1.5t-41.5-4.5v-238h52zm91 478h114v-21l-163-97h-69z"/><glyph unicode="" horiz-adv-x="540" d="M77 0zm0 700h80v-249h4q23 29 58.5 45t77.5 16q97 0 145.5-62t48.5-192q0-131-64-199t-180-68q-56 0-101.5 12t-68.5 26v671zm206-258q-50 0-81-28t-45-79v-252q19-11 46-16.5t56-5.5q68 0 108.5 48t40.5 150q0 39-7 73t-22 58-38.5 38-57.5 14zm30 278h89v-21l-101-128h-47z"/><glyph unicode="" horiz-adv-x="517" d="M85 0zm0 700h381v-74h-298v-239h278v-74h-278v-313h-83v700zm226 170h114v-21l-163-97h-69z"/><glyph unicode="" horiz-adv-x="319" d="M22 0zm0 500h78v28q0 46 7.5 80t24.5 55.5 44 32 67 10.5q32 0 56.5-4t51.5-15l-18-67q-23 10-43.5 13t-38.5 3q-26 0-40.5-8t-21-23.5-8-38-1.5-52.5v-14h133v-70h-133v-430h-80v430h-78v70zm266 370h114v-21l-163-97h-69z"/><glyph unicode="" horiz-adv-x="605" d="M-3 589h88v111h83v-111h219v-66h-219v-125q27 15 71.5 30t100.5 15q42 0 77.5-9.5t60.5-32 39-60.5 14-94v-247h-83v232q0 137-124 137-48 0-89-12.5t-67-33.5v-323h-83v523h-88v66z"/><glyph unicode="" horiz-adv-x="547" d="M-3 632h80v68h80v-68h160v-60h-160v-128h4q26 31 62.5 49.5t90.5 18.5q42 0 73-9.5t51.5-33.5 30-64.5 9.5-102.5v-302h-80v285q0 39-4.5 68.5t-16.5 49-32.5 29.5-53.5 10q-47 0-85-30.5t-49-78.5v-333h-80v572h-80v60z"/><glyph unicode="" horiz-adv-x="605" d="M158 700v-232q0-137 124-137 47 0 88 12.5t67 33.5v323h83v-727q0-93-33.5-139t-104.5-46q-8 0-17 .5t-14 1.5v68q28 0 45 8.5t26 26 12 44.5 3 63v302q-27-15-71-30t-101-15q-42 0-77 9.5t-60 32-39 60.5-14 94v247h83z"/><glyph unicode="" horiz-adv-x="490" d="M333 210q-16-10-47.5-22t-86.5-12q-37 0-65 8t-47 28-28.5 53-9.5 83v152h80v-136q0-27 3-48.5t12-37.5 26-24 45-8q45 0 74 10t44 22v222h80v-527q0-93-32-139t-102-46q-8 0-15 .5t-15 1.5v68q28 0 44.5 8.5t25.5 26 11.5 44.5 2.5 63v210z"/><glyph unicode="" horiz-adv-x="553" d="M7 0zm275 331l26-89h5l20 92 134 366h85l-177-455q-27-71-47.5-118.5t-41.5-77-45-42-59-12.5q-33 0-52.5 5.5t-36.5 16.5l25 69q20-11 37-14t31-3q28 0 47 28.5t33 84.5l-259 518h96zm40 539h114v-21l-163-97h-69z"/><glyph unicode="" horiz-adv-x="466" d="M12 0zm212 176l28-96h5l22 97 97 323h81l-148-449q-17-49-33.5-95t-36.5-82-45-57.5-58-21.5q-36 0-59 10l14 69q13-5 25-5 28 0 54 29.5t43 101.5l-201 500h92zm43 544h89v-21l-101-128h-47z"/><glyph unicode="" horiz-adv-x="577" d="M45 0zm105 395h288q-5 61-24 107.5t-49 77-69.5 44.5-85.5 14q-47 0-83.5-8t-59.5-22l-22 65q31 18 77 28.5t98 10.5q64 0 119-20t95.5-63.5 63.5-112.5 23-166q0-98-26-167t-70.5-112.5-103-63-122.5-19.5q-50 0-88.5 7t-65.5 18l22 73q23-11 60-17.5t77-6.5 80.5 12.5 73.5 43.5 55 81 26 122h-289v74zm13 402q0 21 16.5 36.5t45.5 15.5 46.5-15.5 17.5-36.5q0-23-17.5-38t-46.5-15-45.5 15-16.5 38z"/><glyph unicode="" horiz-adv-x="465" d="M39 0zm82 285h212q-5 71-41.5 114t-103.5 43q-41 0-71.5-11t-49.5-24l-28 61q31 21 71 32.5t93 11.5q111 0 162-69t51-193q0-128-59-195t-164-67q-47 0-86.5 7.5t-66.5 22.5l23 68q23-13 56.5-20.5t65.5-7.5q140-1 149 161h-213v66zm16 367q0 23 15.5 39.5t39.5 16.5 41-16.5 17-39.5-17-38-41-15-39.5 15-15.5 38z"/><glyph unicode="" horiz-adv-x="541" d="M44 0zm95 331v70h38l26.5 1 26 1.5 20.5 2.5q26 4 49 13.5t40 24.5 27 35 10 44q0 33-11 55t-30.5 35.5-45 19-54.5 5.5q-54 0-92-7.5t-61-18.5l-22 66q20 11 72 22.5t117 11.5q40 0 78.5-8.5t69-28 49-53 18.5-82.5q0-50-33-95.5t-99-65.5v-4q71-10 112-53t41-115q0-52-18.5-90.5t-49-65-71-42-84.5-19.5l-14-169h-52l-19 168q-46 2-78 9t-55 16l21 75q23-11 64.5-18.5t100.5-7.5q31 0 61 8.5t53.5 25.5 38 43 14.5 62q0 63-44 92.5t-115 34.5q-12 1-22.5 1.5t-21.5.5h-55z"/><glyph unicode="" horiz-adv-x="441" d="M38 0zm87 223v65h70q18 0 35.5 6t31.5 16.5 22.5 25 8.5 30.5q0 39-27 55t-81 16q-39 0-71.5-12t-50.5-23l-23 62q30 17 70.5 30t96.5 13q166 0 166-123 0-35-22.5-68.5t-64.5-47.5v-4q59-11 82.5-42t23.5-82q0-54-37.5-93.5t-113.5-51.5l-14-174h-52l-19 171q-40 2-67.5 10.5t-50.5 19.5l23 66q23-13 55.5-20t70.5-7q61 0 93 21t32 64q0 36-30 56.5t-99 20.5h-58z"/><glyph unicode="" horiz-adv-x="571" d="M56 0zm477 29q-26-20-64-29t-83-11l-17-32q42-8 60.5-26t18.5-49q0-39-32-64.5t-90-25.5q-11 0-22 1t-23 3l9 39q6-1 11-1h10q22 0 34.5 4t19 9.5 8 12.5 1.5 13q0 28-86 37l42 80q-58 4-108 27.5t-87 67.5-58 110-21 155q0 98 26.5 166.5t70 112 97.5 63.5 110 20q60 0 98-6.5t65-17.5l-20-73q-48 23-137 23-41 0-81-15t-71.5-49-50.5-89-19-135q0-72 18-126t49.5-90 74-54 92.5-18q45 0 78.5 9t56.5 23z"/><glyph unicode="" horiz-adv-x="451" d="M49 0zm369 33q-49-35-121-43l-18-33q42-8 60.5-26t18.5-49q0-39-32-64.5t-90-25.5q-11 0-22 1t-23 3l9 39q6-1 11-1h10q22 0 34.5 4t19 9.5 8 12.5 1.5 13q0 28-86 37l42 79q-52 3-88 23t-59 54-33.5 80.5-10.5 103.5q0 127 56 194.5t161 67.5q48 0 81.5-7.5t60.5-21.5l-23-69q-23 13-51 20.5t-60 7.5q-142 0-142-192 0-38 7.5-72.5t25-61 46-42 70.5-15.5q36 0 64.5 10.5t46.5 24.5z"/><glyph unicode="" horiz-adv-x="585" d="M8 0zm410 194h-258l-70-194h-82l265 711h38l266-711h-87zm-231 72h206l-78 213-25 106h-1l-25-108zm-49 577h316v-62h-316v62z"/><glyph unicode="" horiz-adv-x="496" d="M39 0zm30 463q38 23 88.5 34t105.5 11q52 0 83.5-14t48-36.5 22-49.5 5.5-54q0-60-3-117t-3-108q0-37 3-70t11-61h-59l-21 70h-5q-9-14-22.5-27.5t-32.5-24-44-17.5-57-7-59.5 10-47.5 28.5-31.5 44.5-11.5 59q0 44 18 73.5t50.5 47 78 25 100.5 7.5h27.5l27.5-2q3 30 3 54 0 55-22 77t-80 22q-17 0-36.5-2.5t-40-7-39-11-32.5-14.5zm142-401q28 0 50 7.5t38 19 26.5 25.5 15.5 27v83q-14 1-28.5 1.5t-28.5.5q-31 0-60.5-3.5t-52-13-36-26-13.5-41.5q0-35 25-57.5t64-22.5zm-110 581h296v-62h-296v62z"/><glyph unicode="" horiz-adv-x="536" d="M85 0zm0 700h381v-74h-298v-229h273v-74h-273v-249h303v-74h-386v700zm28 143h316v-62h-316v62z"/><glyph unicode="" horiz-adv-x="508" d="M49 0zm393 40q-30-24-75.5-38t-96.5-14q-57 0-99 18.5t-69 53-40 82.5-13 108q0 128 57 195t163 67q34 0 68-7.5t61-28.5 44-59.5 17-101.5q0-33-6-73h-321q0-44 9-78t28-57.5 49.5-36 74.5-12.5q34 0 68 12t51 28zm-172 402q-59 0-94.5-31t-42.5-106h248q0 76-29 106.5t-82 30.5zm-163 201h296v-62h-296v62z"/><glyph unicode="" horiz-adv-x="536" d="M85 0zm0 700h381v-74h-298v-229h273v-74h-273v-249h303v-74h-386v700zm35 94q0 21 15 34t39 13q23 0 37.5-13t14.5-34q0-20-14.5-33t-37.5-13q-24 0-39 13t-15 33zm192 0q0 21 14.5 34t37.5 13q24 0 39-13t15-34q0-20-15-33t-39-13q-23 0-37.5 13t-14.5 33zm-202 160h316v-62h-316v62z"/><glyph unicode="" horiz-adv-x="508" d="M49 0zm393 40q-30-24-75.5-38t-96.5-14q-57 0-99 18.5t-69 53-40 82.5-13 108q0 128 57 195t163 67q34 0 68-7.5t61-28.5 44-59.5 17-101.5q0-33-6-73h-321q0-44 9-78t28-57.5 49.5-36 74.5-12.5q34 0 68 12t51 28zm-172 402q-59 0-94.5-31t-42.5-106h248q0 76-29 106.5t-82 30.5zm-151 173q0 23 13.5 37t35.5 14 35.5-14 13.5-37q0-21-13.5-35t-35.5-14-35.5 14-13.5 35zm192 0q0 23 13.5 37t35.5 14q23 0 36.5-14t13.5-37q0-21-13.5-35t-36.5-14q-22 0-35.5 14t-13.5 35zm-205 193h316v-62h-316v62z"/><glyph unicode="" horiz-adv-x="536" d="M85 0zm0 700h381v-74h-298v-229h273v-74h-273v-249h303v-74h-386v700zm35 94q0 21 15 34t39 13q23 0 37.5-13t14.5-34q0-20-14.5-33t-37.5-13q-24 0-39 13t-15 33zm192 0q0 21 14.5 34t37.5 13q24 0 39-13t15-34q0-20-15-33t-39-13q-23 0-37.5 13t-14.5 33zm-131 200q4-37 28-57t64-20 63.5 20 28.5 56l71-17q-11-54-50.5-85.5t-113.5-31.5q-71 0-116.5 27.5t-53.5 87.5z"/><glyph unicode="" horiz-adv-x="508" d="M49 0zm393 40q-30-24-75.5-38t-96.5-14q-57 0-99 18.5t-69 53-40 82.5-13 108q0 128 57 195t163 67q34 0 68-7.5t61-28.5 44-59.5 17-101.5q0-33-6-73h-321q0-44 9-78t28-57.5 49.5-36 74.5-12.5q34 0 68 12t51 28zm-172 402q-59 0-94.5-31t-42.5-106h248q0 76-29 106.5t-82 30.5zm-151 173q0 23 13.5 37t35.5 14 35.5-14 13.5-37q0-21-13.5-35t-35.5-14-35.5 14-13.5 35zm192 0q0 23 13.5 37t35.5 14q23 0 36.5-14t13.5-37q0-21-13.5-35t-36.5-14q-22 0-35.5 14t-13.5 35zm-135 220q4-37 28-57t64-20 63.5 20 28.5 56l71-17q-11-54-50.5-85.5t-113.5-31.5q-71 0-116.5 27.5t-53.5 87.5z"/><glyph unicode="" horiz-adv-x="541" d="M44 0zm95 331v70h38l26.5 1 26 1.5 20.5 2.5q26 4 49 13.5t40 24.5 27 35 10 44q0 33-11 55t-30.5 35.5-45 19-54.5 5.5q-54 0-92-7.5t-61-18.5l-22 66q20 11 72 22.5t117 11.5q40 0 78.5-8.5t69-28 49-53 18.5-82.5q0-50-33-95.5t-99-65.5v-4q71-10 112-53t41-115q0-57-22.5-98.5t-59-68.5-84-39.5-96.5-12.5q-66 0-108.5 7.5t-70.5 18.5l21 75q23-11 64.5-19t100.5-8q31 0 61 8.5t53.5 26 38 43.5 14.5 62q0 63-44 92.5t-115 34.5q-12 1-22.5 1.5t-21.5.5h-55zm128 415h-58l-127 103v21h82l59-50 17-34 19 33 63 51h78v-22z"/><glyph unicode="" horiz-adv-x="441" d="M38 0zm87 223v65h70q18 0 35.5 6t31.5 16.5 22.5 25 8.5 30.5q0 39-27 55t-81 16q-39 0-71.5-12t-50.5-23l-23 62q30 17 70.5 30t96.5 13q166 0 166-123 0-35-22.5-68.5t-64.5-47.5v-4q59-11 82.5-42t23.5-82q0-32-13-59t-39-47-65.5-31.5-91.5-11.5q-51 0-84.5 9t-60.5 22l23 66q23-13 55.5-20t70.5-7q61 0 93 21t32 64q0 36-30 56.5t-99 20.5h-58zm93 327h-37l-115 182h78l39-66 21-58 22 58 45 66h70z"/><glyph unicode="" horiz-adv-x="684" d="M56 0zm0 350q0 175 74 268.5t211 93.5q74 0 128-26t89.5-73.5 52.5-114 17-148.5q0-175-74.5-268.5t-212.5-93.5q-73 0-126.5 26t-89 73.5-52.5 114-17 148.5zm88 0q0-58 11.5-110t35.5-91.5 61.5-63 88.5-23.5q93 0 146 70.5t53 217.5q0 57-11.5 109.5t-36 92-62 63-89.5 23.5q-92 0-144.5-70.5t-52.5-217.5zm46 493h316v-62h-316v62z"/><glyph unicode="" horiz-adv-x="536" d="M49 0zm0 250q0 127 56.5 194.5t162.5 67.5q56 0 97.5-18.5t68.5-53 40-83 13-107.5q0-127-56.5-194.5t-162.5-67.5q-56 0-97.5 18.5t-68.5 53-40 83-13 107.5zm83 0q0-38 7.5-73t23.5-61 42-42 63-16q136-1 136 192 0 39-7.5 74t-23.5 61-42 41.5-63 15.5q-136 1-136-192zm-12 393h296v-62h-296v62z"/><glyph unicode="" horiz-adv-x="684" d="M56 0zm0 350q0 175 74 268.5t211 93.5q74 0 128-26t89.5-73.5 52.5-114 17-148.5q0-175-74.5-268.5t-212.5-93.5q-73 0-126.5 26t-89 73.5-52.5 114-17 148.5zm88 0q0-58 11.5-110t35.5-91.5 61.5-63 88.5-23.5q93 0 146 70.5t53 217.5q0 57-11.5 109.5t-36 92-62 63-89.5 23.5q-92 0-144.5-70.5t-52.5-217.5zm107 520q4-37 28-57t64-20 63.5 20 28.5 56l71-17q-11-54-50.5-85.5t-113.5-31.5q-71 0-116.5 27.5t-53.5 87.5z"/><glyph unicode="" horiz-adv-x="536" d="M49 0zm0 250q0 127 56.5 194.5t162.5 67.5q56 0 97.5-18.5t68.5-53 40-83 13-107.5q0-127-56.5-194.5t-162.5-67.5q-56 0-97.5 18.5t-68.5 53-40 83-13 107.5zm83 0q0-38 7.5-73t23.5-61 42-42 63-16q136-1 136 192 0 39-7.5 74t-23.5 61-42 41.5-63 15.5q-136 1-136-192zm49 452q10-46 34.5-64t56.5-18 57 19 34 62l60-19q-9-58-51.5-89t-101.5-31q-27 0-53.5 7t-47.5 21-36 36-20 52z"/><glyph unicode="" horiz-adv-x="684" d="M56 0zm0 350q0 175 74 268.5t211 93.5q74 0 128-26t89.5-73.5 52.5-114 17-148.5q0-175-74.5-268.5t-212.5-93.5q-73 0-126.5 26t-89 73.5-52.5 114-17 148.5zm484 42q-8 119-62.5 182.5t-136.5 63.5q-36 0-70-12.5t-61-41.5-44.5-76-21.5-116h396zm-396-74q8-129 62.5-192.5t134.5-63.5q37 0 72 12t62 41.5 44.5 78.5 20.5 124h-396zm106 552q4-37 28-57t64-20 63.5 20 28.5 56l71-17q-11-54-50.5-85.5t-113.5-31.5q-71 0-116.5 27.5t-53.5 87.5z"/><glyph unicode="" horiz-adv-x="536" d="M49 0zm0 250q0 127 56.5 194.5t162.5 67.5q56 0 97.5-18.5t68.5-53 40-83 13-107.5q0-127-56.5-194.5t-162.5-67.5q-56 0-97.5 18.5t-68.5 53-40 83-13 107.5zm355 31q-8 85-43.5 123t-92.5 38q-26 0-49.5-8t-42-27-30.5-50-14-76h272zm-272-64q5-78 43-118.5t93-40.5q25 0 48.5 8t42 26 30.5 48.5 15 76.5h-272zm49 485q10-46 34.5-64t56.5-18 57 19 34 62l60-19q-9-58-51.5-89t-101.5-31q-27 0-53.5 7t-47.5 21-36 36-20 52z"/><glyph unicode="" horiz-adv-x="684" d="M56 0zm0 350q0 175 74 268.5t211 93.5q74 0 128-26t89.5-73.5 52.5-114 17-148.5q0-175-74.5-268.5t-212.5-93.5q-73 0-126.5 26t-89 73.5-52.5 114-17 148.5zm484 42q-8 119-62.5 182.5t-136.5 63.5q-36 0-70-12.5t-61-41.5-44.5-76-21.5-116h396zm-396-74q8-129 62.5-192.5t134.5-63.5q37 0 72 12t62 41.5 44.5 78.5 20.5 124h-396zm49 476q0 21 15 34t39 13q23 0 37.5-13t14.5-34q0-20-14.5-33t-37.5-13q-24 0-39 13t-15 33zm192 0q0 21 14.5 34t37.5 13q24 0 39-13t15-34q0-20-15-33t-39-13q-23 0-37.5 13t-14.5 33zm-133 200q4-37 28-57t64-20 63.5 20 28.5 56l71-17q-11-54-50.5-85.5t-113.5-31.5q-71 0-116.5 27.5t-53.5 87.5z"/><glyph unicode="" horiz-adv-x="536" d="M49 0zm0 250q0 127 56.5 194.5t162.5 67.5q56 0 97.5-18.5t68.5-53 40-83 13-107.5q0-127-56.5-194.5t-162.5-67.5q-56 0-97.5 18.5t-68.5 53-40 83-13 107.5zm355 31q-8 85-43.5 123t-92.5 38q-26 0-49.5-8t-42-27-30.5-50-14-76h272zm-272-64q5-78 43-118.5t93-40.5q25 0 48.5 8t42 26 30.5 48.5 15 76.5h-272zm-10 398q0 23 13.5 37t35.5 14 35.5-14 13.5-37q0-21-13.5-35t-35.5-14-35.5 14-13.5 35zm192 0q0 23 13.5 37t35.5 14q23 0 36.5-14t13.5-37q0-21-13.5-35t-36.5-14q-22 0-35.5 14t-13.5 35zm-138 220q4-37 28-57t64-20 63.5 20 28.5 56l71-17q-11-54-50.5-85.5t-113.5-31.5q-71 0-116.5 27.5t-53.5 87.5z"/><glyph unicode="" horiz-adv-x="769" d="M85 0zm516 700h83v-700h-83v700zm-516 0h83v-272q5 1 15 2.5t22 2.5 24.5 2 24.5 1q47 0 91.5-9.5t78.5-33.5 54.5-64.5 20.5-102.5q0-60-19-104.5t-53.5-73-82.5-42.5-106-14q-14 0-32.5.5t-39 2-41.5 4.5-40 8v693zm160-636q72 0 119 39t47 117q0 42-14 70t-37.5 44.5-54 23-64.5 6.5q-18 0-40-3t-33-6v-285q27-6 77-6zm-33 779h316v-62h-316v62z"/><glyph unicode="" horiz-adv-x="660" d="M77 0zm80 70q37-6 71-6 63 0 88 24.5t25 69.5q0 40-24.5 66t-85.5 26q-17 0-37-1t-37-6v-173zm0 239q24 4 46 5.5t42 1.5q51 0 85.5-11.5t55.5-31.5 29.5-47.5 8.5-58.5q0-91-50.5-132t-163.5-41q-64 0-133 6v500h80v-191zm346 191h80v-500h-80v500zm-328 143h296v-62h-296v62z"/><glyph unicode="" horiz-adv-x="577" d="M45 0zm105 395h288q-5 61-24 107.5t-49 77-69.5 44.5-85.5 14q-47 0-83.5-8t-59.5-22l-22 65q31 18 77 28.5t98 10.5q64 0 119-20t95.5-63.5 63.5-112.5 23-166q0-98-26-167t-70.5-112.5-103-63-122.5-19.5q-50 0-88.5 7t-65.5 18l22 73q23-11 60-17.5t77-6.5 80.5 12.5 73.5 43.5 55 81 26 122h-289v74zm-64 448h316v-62h-316v62z"/><glyph unicode="" horiz-adv-x="465" d="M39 0zm82 285h212q-5 71-41.5 114t-103.5 43q-41 0-71.5-11t-49.5-24l-28 61q31 21 71 32.5t93 11.5q111 0 162-69t51-193q0-128-59-195t-164-67q-47 0-86.5 7.5t-66.5 22.5l23 68q23-13 56.5-20.5t65.5-7.5q140-1 149 161h-213v66zm-62 358h296v-62h-296v62z"/><glyph unicode="" horiz-adv-x="577" d="M45 0zm105 395h288q-5 61-24 107.5t-49 77-69.5 44.5-85.5 14q-47 0-83.5-8t-59.5-22l-22 65q31 18 77 28.5t98 10.5q64 0 119-20t95.5-63.5 63.5-112.5 23-166q0-98-26-167t-70.5-112.5-103-63-122.5-19.5q-50 0-88.5 7t-65.5 18l22 73q23-11 60-17.5t77-6.5 80.5 12.5 73.5 43.5 55 81 26 122h-289v74zm-1 475q4-37 28-57t64-20 63.5 20 28.5 56l71-17q-11-54-50.5-85.5t-113.5-31.5q-71 0-116.5 27.5t-53.5 87.5z"/><glyph unicode="" horiz-adv-x="465" d="M39 0zm82 285h212q-5 71-41.5 114t-103.5 43q-41 0-71.5-11t-49.5-24l-28 61q31 21 71 32.5t93 11.5q111 0 162-69t51-193q0-128-59-195t-164-67q-47 0-86.5 7.5t-66.5 22.5l23 68q23-13 56.5-20.5t65.5-7.5q140-1 149 161h-213v66zm4 417q10-46 34.5-64t56.5-18 57 19 34 62l60-19q-9-58-51.5-89t-101.5-31q-27 0-53.5 7t-47.5 21-36 36-20 52z"/><glyph unicode="" horiz-adv-x="583" d="M56 0zm488 29q-30-23-78.5-32t-100.5-9q-63 0-119 21.5t-98.5 65.5-67 112.5-24.5 162.5q0 98 27.5 166.5t71.5 112 99 63.5 111 20q60 0 101-6.5t68-17.5l-20-74q-23 11-60 17.5t-82 6.5q-39 0-76.5-12.5t-69-41-53-74.5-28.5-112h306v-74h-307q3-66 23.5-115t53-81.5 74.5-49 89-16.5q45 0 81 9t58 23zm-361 765q0 21 15 34t39 13q23 0 37.5-13t14.5-34q0-20-14.5-33t-37.5-13q-24 0-39 13t-15 33zm192 0q0 21 14.5 34t37.5 13q24 0 39-13t15-34q0-20-15-33t-39-13q-23 0-37.5 13t-14.5 33z"/><glyph unicode="" horiz-adv-x="472" d="M49 0zm389 33q-30-22-73-33.5t-88-11.5q-58 0-100.5 18.5t-71 53-42.5 83-14 107.5q0 63 17 112t47.5 82 73.5 50.5 95 17.5q48 0 84-7.5t63-21.5l-23-69q-23 13-53.5 20.5t-62.5 7.5q-69 1-110.5-38.5t-49.5-117.5h236v-66h-237q3-33 14.5-63t32-52 50.5-34.5 72-12.5q35 0 65.5 11t48.5 25zm-322 601q0 23 13.5 37t35.5 14 35.5-14 13.5-37q0-21-13.5-35t-35.5-14-35.5 14-13.5 35zm192 0q0 23 13.5 37t35.5 14q23 0 36.5-14t13.5-37q0-21-13.5-35t-36.5-14q-22 0-35.5 14t-13.5 35z"/><glyph unicode="" horiz-adv-x="569" d="M26 0zm458 0h-83v305l-103-22-174-283h-98l156 249 61 43q-36 8-66.5 24.5t-53 42-35 59.5-12.5 78q0 61 20.5 101.5t56 65 83 35 100.5 10.5q34 0 72.5-3t75.5-12v-693zm-152 636q-33 0-63-6.5t-53.5-22.5-37.5-43-14-68q0-38 13.5-65t36.5-44.5 53.5-25.5 65.5-8h68v277q-14 3-29 4.5t-40 1.5zm-174 207h316v-62h-316v62z"/><glyph unicode="" horiz-adv-x="475" d="M20 0zm306 207l-77-12-132-195h-97l120 171 40 37q-52 8-88.5 42t-36.5 92q0 45 15.5 77t44.5 53 69 30.5 90 9.5q37 0 69-5t63-11v-496h-80v207zm0 225q-13 5-29 7.5t-28 2.5q-64 0-97.5-23t-33.5-73q0-45 35.5-69.5t93.5-24.5h11l17 .5 31 1.5v178zm-235 211h296v-62h-296v62z"/><glyph unicode="" horiz-adv-x="569" d="M26 0zm458 0h-83v305l-103-22-174-283h-98l156 249 61 43q-36 8-66.5 24.5t-53 42-35 59.5-12.5 78q0 61 20.5 101.5t56 65 83 35 100.5 10.5q34 0 72.5-3t75.5-12v-693zm-152 636q-33 0-63-6.5t-53.5-22.5-37.5-43-14-68q0-38 13.5-65t36.5-44.5 53.5-25.5 65.5-8h68v277q-14 3-29 4.5t-40 1.5zm-116 234q4-37 28-57t64-20 63.5 20 28.5 56l71-17q-11-54-50.5-85.5t-113.5-31.5q-71 0-116.5 27.5t-53.5 87.5z"/><glyph unicode="" horiz-adv-x="475" d="M20 0zm306 207l-77-12-132-195h-97l120 171 40 37q-52 8-88.5 42t-36.5 92q0 45 15.5 77t44.5 53 69 30.5 90 9.5q37 0 69-5t63-11v-496h-80v207zm0 225q-13 5-29 7.5t-28 2.5q-64 0-97.5-23t-33.5-73q0-45 35.5-69.5t93.5-24.5h11l17 .5 31 1.5v178zm-171 270q10-46 34.5-64t56.5-18 57 19 34 62l60-19q-9-58-51.5-89t-101.5-31q-27 0-53.5 7t-47.5 21-36 36-20 52z"/><glyph unicode="" horiz-adv-x="893" d="M85 0zm83 395h124q8 153 77 235t197 82q73 0 125-26t84-73.5 47-114 15-148.5q0-175-67-268.5t-204-93.5q-69 0-120 23.5t-84.5 67-50.5 105-20 137.5h-123v-321h-83v700h83v-305zm211-45q0-58 10-110t32-91.5 57.5-63 87.5-23.5q93 0 138 70t45 218q0 57-9 109.5t-30.5 92-56.5 63-87 23.5q-93 0-140-70.5t-47-217.5zm-82 493h316v-62h-316v62z"/><glyph unicode="" horiz-adv-x="719" d="M77 0zm388-12q-54 0-92.5 16.5t-63 47-37 74-15.5 95.5h-100v-221h-80v500h80v-209h101q8 107 58.5 164t150.5 57q55 0 93.5-18.5t63-53 35.5-83 11-107.5q0-127-50.5-194.5t-154.5-67.5zm-129 262q0-39 6-74t21-61.5 40.5-41.5 63.5-15q64 0 92 46.5t28 145.5q0 39-5.5 74t-19.5 61.5-37 41.5-59 15q-69 0-99.5-46.5t-30.5-145.5zm-129 393h296v-62h-296v62z"/><glyph unicode="" horiz-adv-x="893" d="M85 0zm83 395h124q8 153 77 235t197 82q73 0 125-26t84-73.5 47-114 15-148.5q0-175-67-268.5t-204-93.5q-69 0-120 23.5t-84.5 67-50.5 105-20 137.5h-123v-321h-83v700h83v-305zm211-45q0-58 10-110t32-91.5 57.5-63 87.5-23.5q93 0 138 70t45 218q0 57-9 109.5t-30.5 92-56.5 63-87 23.5q-93 0-140-70.5t-47-217.5zm-40 520q4-37 28-57t64-20 63.5 20 28.5 56l71-17q-11-54-50.5-85.5t-113.5-31.5q-71 0-116.5 27.5t-53.5 87.5z"/><glyph unicode="" horiz-adv-x="719" d="M77 0zm388-12q-54 0-92.5 16.5t-63 47-37 74-15.5 95.5h-100v-221h-80v500h80v-209h101q8 107 58.5 164t150.5 57q55 0 93.5-18.5t63-53 35.5-83 11-107.5q0-127-50.5-194.5t-154.5-67.5zm-129 262q0-39 6-74t21-61.5 40.5-41.5 63.5-15q64 0 92 46.5t28 145.5q0 39-5.5 74t-19.5 61.5-37 41.5-59 15q-69 0-99.5-46.5t-30.5-145.5zm-73 452q10-46 34.5-64t56.5-18 57 19 34 62l60-19q-9-58-51.5-89t-101.5-31q-27 0-53.5 7t-47.5 21-36 36-20 52z"/><glyph unicode="" horiz-adv-x="657" d="M456 626h-209q-10-200-26.5-332.5t-49.5-206.5q-22-48-52-70t-65-22q-18 0-31 2.5t-25 7.5l11 72q10-3 21-3 17 0 33.5 11t32.5 41q14 27 26.5 72t22 114 15.5 164.5 9 223.5h370v-626h92v-203h-58l-15 129h-102v626z"/><glyph unicode="" horiz-adv-x="523" d="M346 430h-145q-3-42-6-90.5t-9-97-16-93-25.5-78.5-38-54.5-53.5-20.5q-19 0-33 2t-25 7l12 67q12-4 26-4 20 0 36 17t28 64.5 20 131.5 11 219h298v-430h74v-197h-54l-15 127h-85v430z"/><glyph unicode="" horiz-adv-x="681" d="M513 474l6 80h-4l-43-82-338-472h-49v700h83v-480l-7-79h4l44 82 338 477h49v-727q0-93-32.5-139t-104.5-46q-8 0-16.5.5t-14.5 1.5v68q28 0 45 8.5t26 26 11.5 44.5 2.5 63v474zm-255 396q4-37 28-57t64-20 63.5 20 28.5 56l71-17q-11-54-50.5-85.5t-113.5-31.5q-71 0-116.5 27.5t-53.5 87.5z"/><glyph unicode="" horiz-adv-x="546" d="M389 296l3 62h-3l-41-64-225-294h-46v500h80v-305l-3-59h4l39 62 225 302h47v-527q0-93-32-139t-102-46q-8 0-15 .5t-15 1.5v68q28 0 44.5 8.5t25.5 26 11.5 44.5 2.5 63v296zm-197 406q10-46 34.5-64t56.5-18 57 19 34 62l60-19q-9-58-51.5-89t-101.5-31q-27 0-53.5 7t-47.5 21-36 36-20 52z"/><glyph unicode="" horiz-adv-x="684" d="M56 0zm0 350q0 175 74 268.5t211 93.5q74 0 128-26t89.5-73.5 52.5-114 17-148.5q0-175-74.5-268.5t-212.5-93.5q-73 0-126.5 26t-89 73.5-52.5 114-17 148.5zm88 0q0-58 11.5-110t35.5-91.5 61.5-63 88.5-23.5q93 0 146 70.5t53 217.5q0 57-11.5 109.5t-36 92-62 63-89.5 23.5q-92 0-144.5-70.5t-52.5-217.5zm134 447q0 21 16.5 36.5t45.5 15.5 46.5-15.5 17.5-36.5q0-23-17.5-38t-46.5-15-45.5 15-16.5 38z"/><glyph unicode="" horiz-adv-x="536" d="M49 0zm0 250q0 127 56.5 194.5t162.5 67.5q56 0 97.5-18.5t68.5-53 40-83 13-107.5q0-127-56.5-194.5t-162.5-67.5q-56 0-97.5 18.5t-68.5 53-40 83-13 107.5zm83 0q0-38 7.5-73t23.5-61 42-42 63-16q136-1 136 192 0 39-7.5 74t-23.5 61-42 41.5-63 15.5q-136 1-136-192zm82 402q0 23 15.5 39.5t39.5 16.5 41-16.5 17-39.5-17-38-41-15-39.5 15-15.5 38z"/><glyph unicode="" horiz-adv-x="769" d="M85 0zm516 700h83v-700h-83v700zm-516 0h83v-272q5 1 15 2.5t22 2.5 24.5 2 24.5 1q47 0 91.5-9.5t78.5-33.5 54.5-64.5 20.5-102.5q0-60-19-104.5t-53.5-73-82.5-42.5-106-14q-14 0-32.5.5t-39 2-41.5 4.5-40 8v693zm160-636q72 0 119 39t47 117q0 42-14 70t-37.5 44.5-54 23-64.5 6.5q-18 0-40-3t-33-6v-285q27-6 77-6zm53 806q4-37 28-57t64-20 63.5 20 28.5 56l71-17q-11-54-50.5-85.5t-113.5-31.5q-71 0-116.5 27.5t-53.5 87.5z"/><glyph unicode="" horiz-adv-x="660" d="M77 0zm80 70q37-6 71-6 63 0 88 24.5t25 69.5q0 40-24.5 66t-85.5 26q-17 0-37-1t-37-6v-173zm0 239q24 4 46 5.5t42 1.5q51 0 85.5-11.5t55.5-31.5 29.5-47.5 8.5-58.5q0-91-50.5-132t-163.5-41q-64 0-133 6v500h80v-191zm346 191h80v-500h-80v500zm-266 202q10-46 34.5-64t56.5-18 57 19 34 62l60-19q-9-58-51.5-89t-101.5-31q-27 0-53.5 7t-47.5 21-36 36-20 52z"/><glyph unicode="" horiz-adv-x="540" d="M65 0zm291 331q-12 0-22.5-.5t-21.5-1.5q-71-5-115-35t-44-92q0-72 48-106t128-34q42 0 81 9.5t60 23.5l26-63q-25-16-70.5-30t-111.5-14q-56 0-101.5 12.5t-78.5 38.5-51 65-18 93q0 73 39 118.5t110 56.5v4q-33 10-57 27.5t-39.5 39.5-23.5 47-8 50q0 45 18 77.5t49 53.5 73 31 89 10q27 0 53.5-3.5t49.5-8.5 41-11.5 29-13.5l-24-67q-27 12-66 21t-76 9q-68 0-108-24t-40-82q0-28 12-50t32-38 45-26 51-13q17-2 40-3t41-1h16v-70h-55zm-207 463q0 21 15 34t39 13q23 0 37.5-13t14.5-34q0-20-14.5-33t-37.5-13q-24 0-39 13t-15 33zm192 0q0 21 14.5 34t37.5 13q24 0 39-13t15-34q0-20-15-33t-39-13q-23 0-37.5 13t-14.5 33z"/><glyph unicode="" horiz-adv-x="441" d="M49 0zm209 223q-69 0-99-20.5t-30-56.5q0-38 32-61.5t93-23.5q37 0 70 9t56 23l23-65q-25-14-59.5-25.5t-85.5-11.5q-106 0-157.5 40t-51.5 109q0 51 24.5 80t81.5 44v4q-42 14-64.5 44t-22.5 71q0 62 45 93t121 31q57 0 97-13t70-30l-23-62q-18 11-50.5 23t-71.5 12q-54 0-81-16t-27-55q0-16 8.5-30.5t22.5-25 31.5-16.5 35.5-6h70v-65h-58zm-165 411q0 23 13.5 37t35.5 14 35.5-14 13.5-37q0-21-13.5-35t-35.5-14-35.5 14-13.5 35zm192 0q0 23 13.5 37t35.5 14q23 0 36.5-14t13.5-37q0-21-13.5-35t-36.5-14q-22 0-35.5 14t-13.5 35z"/><glyph unicode="" horiz-adv-x="291" d="M84 0zm20 700h83v-700h-83v700zm-20 97q0 21 16.5 36.5t45.5 15.5 46.5-15.5 17.5-36.5q0-23-17.5-38t-46.5-15-45.5 15-16.5 38z"/><glyph unicode="" horiz-adv-x="268" d="M94 0zm0 500h80v-500h-80v500z"/><glyph unicode="" horiz-adv-x="517" d="M85 0zm0 700h381v-74h-298v-239h278v-74h-278v-313h-83v700z"/><glyph unicode="" horiz-adv-x="413" d="M369 430h-212v-153h187v-70h-187v-207h-80v500h292v-70z"/><glyph unicode="" horiz-adv-x="571" d="M56 0zm477 29q-26-20-63-29t-80-11l-14-168h-52l-19 172q-53 8-98.5 33t-79 69-52.5 107.5-19 147.5q0 98 26.5 166.5t70 112 97.5 63.5 110 20q60 0 98-6.5t65-17.5l-20-73q-48 23-137 23-41 0-81-15t-71.5-49-50.5-89-19-135q0-72 18-126t49.5-90 74-53.5 92.5-17.5q45 0 78.5 8.5t56.5 22.5z"/><glyph unicode="" horiz-adv-x="451" d="M49 0zm369 33q-44-32-109-41l-14-171h-52l-19 169q-48 6-81 27t-54 54.5-30.5 79-9.5 99.5q0 127 56 194.5t161 67.5q48 0 81.5-7.5t60.5-21.5l-23-69q-23 13-51 20.5t-60 7.5q-142 0-142-192 0-38 7.5-72.5t25-61 46-42.5 70.5-16q36 0 64.5 11t46.5 25z"/><glyph unicode="" horiz-adv-x="654" d="M85 0zm0 700q19 3 42.5 4.5t49 2 50 1 45.5.5q84 0 145.5-26t101.5-72.5 59.5-111.5 19.5-143q0-71-18.5-136.5t-58.5-116-104-81-155-30.5q-16 0-41.5.5t-52.5 2-50 2.5-33 3v701zm189-66h-28.5l-30.5-1-27.5-2-19.5-2v-560q5-1 19-1.5t29-1 29-1 19-.5q70 0 117.5 24t76 64.5 40.5 93 12 108.5q0 49-11 98.5t-38 89.5-72.5 65.5-114.5 25.5zm56 236h114v-21l-163-97h-69z"/><glyph unicode="" horiz-adv-x="547" d="M49 0zm412 172q0-51 1-92.5t9-81.5h-54l-20 71h-4q-20-35-58-58t-89-23q-100 0-148.5 63t-48.5 197q0 128 60.5 194.5t166.5 66.5q37 0 58.5-4t46.5-13v208h80v-528zm-202-114q51 0 81 26.5t41 80.5v248q-18 14-41 20t-61 6q-69 0-108-45.5t-39-145.5q0-41 6.5-76t21.5-60 39.5-39.5 59.5-14.5zm285 643h89v-21l-101-128h-47z"/><glyph unicode="" horiz-adv-x="672" d="M85 0zm419 321h-336v-321h-83v700h83v-305h336v305h83v-700h-83v321zm-125 549h114v-21l-163-97h-69z"/><glyph unicode="" horiz-adv-x="547" d="M77 0zm321 0v285q0 39-4.5 68.5t-16.5 49-32.5 29.5-53.5 10q-47 0-85-30.5t-49-78.5v-333h-80v700h80v-256h4q26 31 62.5 49.5t90.5 18.5q42 0 73-9.5t51.5-33.5 30-64.5 9.5-102.5v-302h-80zm-77 720h89v-21l-101-128h-47z"/><glyph unicode="" horiz-adv-x="517" d="M85 0zm414 0h-414v700h83v-626h331v-74zm-198 701h89v-21l-101-128h-47z"/><glyph unicode="" horiz-adv-x="292" d="M86 0zm80 123q0-35 12-50t34-15q13 0 28 2t34 9l9-63q-16-8-44.5-13t-49.5-5q-45 0-74 25.5t-29 86.5v600h80v-577zm88 578h89v-21l-101-128h-47z"/><glyph unicode="" horiz-adv-x="555" d="M18 0zm519 626h-218v-626h-83v626h-218v74h519v-74zm-187 244h114v-21l-163-97h-69z"/><glyph unicode="" horiz-adv-x="339" d="M11 0zm0 500h78v99l80 23v-122h136v-70h-136v-277q0-52 13-73.5t44-21.5q26 0 44 5.5t40 14.5l18-61q-27-13-59-21t-69-8q-61 0-86 34.5t-25 115.5v292h-78v70zm274 201h89v-21l-101-128h-47z"/><glyph unicode="" horiz-adv-x="568" d="M0 0zm267 219l24-106h1l26 108 169 479h83l-265-711h-37l-270 711h91zm78 651h114v-21l-163-97h-69z"/><glyph unicode="" horiz-adv-x="482" d="M9 0zm212 207l28-95h1l25 97 112 291h86l-213-511h-34l-217 511h92zm44 513h89v-21l-101-128h-47z"/><glyph unicode="" horiz-adv-x="541" d="M44 0zm95 331v70h38l26.5 1 26 1.5 20.5 2.5q26 4 49 13.5t40 24.5 27 35 10 44q0 33-11 55t-30.5 35.5-45 19-54.5 5.5q-54 0-92-7.5t-61-18.5l-22 66q20 11 72 22.5t117 11.5q40 0 78.5-8.5t69-28 49-53 18.5-82.5q0-50-33-95.5t-99-65.5v-4q71-10 112-53t41-115q0-57-22.5-98.5t-59-68.5-84-39.5-96.5-12.5q-66 0-108.5 7.5t-70.5 18.5l21 75q23-11 64.5-19t100.5-8q31 0 61 8.5t53.5 26 38 43.5 14.5 62q0 63-44 92.5t-115 34.5q-12 1-22.5 1.5t-21.5.5h-55z"/><glyph unicode="" horiz-adv-x="434" d="M116 152v65h73q45 6 72.5 45t23.5 92q-4 37-29 60t-81 24q-39-1-70-12.5t-49-22.5l-23 62q28 16 68.5 29t96.5 13q79 0 121.5-38.5t45.5-95.5q6-53-18.5-102t-70.5-73v-4q38-14 57-28.5t33-36.5 22-53.5 8-73.5q-6-55-20.5-90.5t-46-64-70.5-42.5-86-14q-51 0-84 9t-60 22l23 65q23-13 53.5-19.5t53.5-6.5q32 0 59 7.5t49.5 27.5 33 46 13.5 64q2 71-39 108.5t-108 37.5h-51z"/><glyph unicode="" horiz-adv-x="541" d="M44 0zm95 331v70h38l26.5 1 26 1.5 20.5 2.5q26 4 49 13.5t40 24.5 27 35 10 44q0 33-11 55t-30.5 35.5-45 19-54.5 5.5q-54 0-92-7.5t-61-18.5l-22 66q20 11 72 22.5t117 11.5q40 0 78.5-8.5t69-28 49-53 18.5-82.5q0-50-33-95.5t-99-65.5v-4q71-10 112-53t41-115q0-57-22.5-98.5t-59-68.5-84-39.5-96.5-12.5q-66 0-108.5 7.5t-70.5 18.5l21 75q23-11 64.5-19t100.5-8q31 0 61 8.5t53.5 26 38 43.5 14.5 62q0 63-44 92.5t-115 34.5q-12 1-22.5 1.5t-21.5.5h-55zm128 415h-58l-127 103v21h82l59-50 17-34 19 33 63 51h78v-22z"/><glyph unicode="" horiz-adv-x="434" d="M29 0zm87 152v65h73q45 6 72.5 45t23.5 92q-4 37-29 60t-81 24q-39-1-70-12.5t-49-22.5l-23 62q28 16 68.5 29t96.5 13q79 0 121.5-38.5t45.5-95.5q6-53-18.5-102t-70.5-73v-4q38-14 57-28.5t33-36.5 22-53.5 8-73.5q-6-55-20.5-90.5t-46-64-70.5-42.5-86-14q-51 0-84 9t-60 22l23 65q23-13 53.5-19.5t53.5-6.5q32 0 59 7.5t49.5 27.5 33 46 13.5 64q2 71-39 108.5t-108 37.5h-51zm102 398h-37l-115 182h78l39-66 21-58 22 58 45 66h70z"/><glyph unicode="" horiz-adv-x="194" d="M40 396zm115 50q0-23-15-36.5t-38-13.5q-27 0-44.5 18t-17.5 53q0 33 9.5 56.5t23 40 28 26.5 25.5 14l25-35q-22-11-35.5-29.5t-13.5-46.5q4 1 11 1 20 0 31-14t11-34z"/><glyph unicode="" horiz-adv-x="194" d="M40 326zm0 159q0 23 14.5 36t37.5 13q28 0 45.5-17.5t17.5-52.5q0-33-9.5-57t-23-40.5-28.5-26.5-26-14l-25 34q23 12 36 30t13 47q-4-1-11-1-19 0-30 13.5t-11 35.5z"/><glyph unicode="" horiz-adv-x="340" d="M40 396zm261 50q0-23-15-36.5t-38-13.5q-27 0-44.5 18t-17.5 53q0 33 9.5 56.5t23 40 28 26.5 25.5 14l25-35q-22-11-35.5-29.5t-13.5-46.5q4 1 11 1 20 0 31-14t11-34zm-146 0q0-23-15-36.5t-38-13.5q-27 0-44.5 18t-17.5 53q0 33 9.5 56.5t23 40 28 26.5 25.5 14l25-35q-22-11-35.5-29.5t-13.5-46.5q4 1 11 1 20 0 31-14t11-34z"/><glyph unicode="" horiz-adv-x="340" d="M40 325zm146 159q0 23 14.5 36t37.5 13q28 0 45.5-17.5t17.5-52.5q0-33-9.5-57t-23-40.5-28.5-26.5-26-14l-25 34q23 12 36 30t13 47q-4-1-11-1-19 0-30 13.5t-11 35.5zm-146 0q0 23 14.5 36t37.5 13q28 0 45.5-17.5t17.5-52.5q0-33-9.5-57t-23-40.5-28.5-26.5-26-14l-25 34q23 12 36 30t13 47q-4-1-11-1-19 0-30 13.5t-11 35.5z"/><glyph unicode="" horiz-adv-x="218" d="M90 333zm0 193h78l-31-193h-47v193z"/><glyph unicode="" horiz-adv-x="335" d="M90 333zm117 193h78l-31-193h-47v193zm-117 0h78l-31-193h-47v193z"/><glyph unicode="" horiz-adv-x="394" d="M179 595l7 36-28-28-78-47-27 49 154 102h42v-427h-70v315z"/><glyph unicode="" horiz-adv-x="235" d="M60-102q0 21 15.5 34t35.5 13q25 0 44.5-17.5t19.5-57.5q0-26-9-45.5t-21.5-34-26-23-23.5-12.5l-28 32q20 11 32 28t12 41q-4-1-10-1-18 0-29.5 12t-11.5 31z"/><glyph unicode="" horiz-adv-x="352" d="M178 870h114v-21l-163-97h-69z"/><glyph unicode="" horiz-adv-x="438" d="M245 746h-58l-127 103v21h82l59-50 17-34 19 33 63 51h78v-22z"/><glyph unicode="" horiz-adv-x="418" d="M60 794q0 21 15 34t39 13q23 0 37.5-13t14.5-34q0-20-14.5-33t-37.5-13q-24 0-39 13t-15 33zm192 0q0 21 14.5 34t37.5 13q24 0 39-13t15-34q0-20-15-33t-39-13q-23 0-37.5 13t-14.5 33z"/><glyph unicode="" horiz-adv-x="352" d="M292 752h-74l-158 97v21h114z"/><glyph unicode="" horiz-adv-x="445" d="M124 850h93v-16l-100-93h-57zm162 0h99v-16l-143-93h-58z"/><glyph unicode="" horiz-adv-x="436" d="M60 843h316v-62h-316v62z"/><glyph unicode="" horiz-adv-x="454" d="M139 870q4-37 28-57t64-20 63.5 20 28.5 56l71-17q-11-54-50.5-85.5t-113.5-31.5q-71 0-116.5 27.5t-53.5 87.5z"/><glyph unicode="" horiz-adv-x="430" d="M128 702q10-46 34.5-64t56.5-18 57 19 34 62l60-19q-9-58-51.5-89t-101.5-31q-27 0-53.5 7t-47.5 21-36 36-20 52z"/><glyph horiz-adv-x="184" d="M324 713l49-38-513-687-50 39z"/><glyph horiz-adv-x="188" d="M319 700q-2-29-12-59.5t-22.5-56.5-25.5-46-22-29l-33 18q17 36 26 81.5t9 91.5h80z"/><glyph horiz-adv-x="254" d="M87 700h80v-700h-80v700z"/><glyph horiz-adv-x="254" d="M0 0z"/></font>
</defs>
</svg>
